{
    "patcher": {
        "fileversion": 1,
        "appversion": {
            "major": 9,
            "minor": 2,
            "revision": 0,
            "architecture": "x64",
            "modernui": 1
        },
        "classnamespace": "box",
        "rect": [ -52.0, -406.0, 608.0, 291.0 ],
        "openinpresentation": 1,
        "default_fontsize": 10.0,
        "boxes": [
            {
                "box": {
                    "id": "obj-13",
                    "maxclass": "comment",
                    "numinlets": 1,
                    "numoutlets": 0,
                    "patching_rect": [ 408.0, 115.0, 89.0, 18.0 ],
                    "presentation": 1,
                    "presentation_rect": [ 409.0, 113.0, 89.0, 18.0 ],
                    "text": "Pitch randomness",
                    "textcolor": [ 0.0, 0.0, 0.0, 1.0 ]
                }
            },
            {
                "box": {
                    "format": 6,
                    "id": "obj-127",
                    "maxclass": "flonum",
                    "maximum": 24.0,
                    "minimum": 0.0,
                    "numinlets": 1,
                    "numoutlets": 2,
                    "outlettype": [ "", "bang" ],
                    "parameter_enable": 0,
                    "patching_rect": [ 356.0, 114.0, 50.0, 20.0 ],
                    "presentation": 1,
                    "presentation_rect": [ 356.0, 114.0, 50.0, 20.0 ]
                }
            },
            {
                "box": {
                    "id": "obj-128",
                    "maxclass": "newobj",
                    "numinlets": 1,
                    "numoutlets": 1,
                    "outlettype": [ "" ],
                    "patching_rect": [ 356.0, 143.0, 159.0, 20.0 ],
                    "text": "sw ns.Granular.randomPitch"
                }
            },
            {
                "box": {
                    "id": "obj-12",
                    "linecount": 2,
                    "maxclass": "comment",
                    "numinlets": 1,
                    "numoutlets": 0,
                    "patching_rect": [ 21.0, 199.0, 50.0, 29.0 ],
                    "presentation": 1,
                    "presentation_rect": [ 22.0, 199.0, 78.0, 18.0 ],
                    "text": "Played chord",
                    "textcolor": [ 0.0, 0.0, 0.0, 1.0 ]
                }
            },
            {
                "box": {
                    "id": "obj-9",
                    "maxclass": "newobj",
                    "numinlets": 1,
                    "numoutlets": 1,
                    "outlettype": [ "" ],
                    "patching_rect": [ 286.0, 328.0, 92.0, 20.0 ],
                    "text": "sw granular/chord"
                }
            },
            {
                "box": {
                    "id": "obj-10",
                    "maxclass": "newobj",
                    "numinlets": 2,
                    "numoutlets": 1,
                    "outlettype": [ "" ],
                    "patching_rect": [ 286.0, 294.0, 525.0, 20.0 ],
                    "text": "pack 0 0"
                }
            },
            {
                "box": {
                    "hkeycolor": [ 1.0, 0.0, 0.0, 1.0 ],
                    "id": "obj-11",
                    "maxclass": "kslider",
                    "mode": 1,
                    "numinlets": 2,
                    "numoutlets": 2,
                    "offset": 0,
                    "outlettype": [ "int", "int" ],
                    "parameter_enable": 0,
                    "patching_rect": [ 286.0, 250.5, 525.0, 34.0 ],
                    "presentation": 1,
                    "presentation_rect": [ 22.0, 219.0, 525.0, 34.0 ],
                    "range": 128,
                    "whitekeycolor": [ 1.0, 1.0, 1.0, 1.0 ]
                }
            },
            {
                "box": {
                    "id": "obj-37",
                    "maxclass": "newobj",
                    "numinlets": 1,
                    "numoutlets": 1,
                    "outlettype": [ "" ],
                    "patching_rect": [ 77.0, 288.0, 156.0, 20.0 ],
                    "text": "sw ns.Granular.BaseGrainLength"
                }
            },
            {
                "box": {
                    "id": "obj-36",
                    "maxclass": "newobj",
                    "numinlets": 1,
                    "numoutlets": 2,
                    "outlettype": [ "signal", "float" ],
                    "patching_rect": [ 123.0, 434.0, 65.0, 20.0 ],
                    "text": "sampstoms~"
                }
            },
            {
                "box": {
                    "id": "obj-35",
                    "maxclass": "newobj",
                    "numinlets": 1,
                    "numoutlets": 2,
                    "outlettype": [ "signal", "float" ],
                    "patching_rect": [ 77.0, 327.0, 65.0, 20.0 ],
                    "text": "mstosamps~"
                }
            },
            {
                "box": {
                    "id": "obj-32",
                    "maxclass": "comment",
                    "numinlets": 1,
                    "numoutlets": 0,
                    "patching_rect": [ 102.0, 193.0, 118.0, 18.0 ],
                    "presentation": 1,
                    "presentation_rect": [ 79.0, 79.0, 118.0, 18.0 ],
                    "text": "Base grain duration (ms)",
                    "textcolor": [ 0.0, 0.0, 0.0, 1.0 ]
                }
            },
            {
                "box": {
                    "id": "obj-33",
                    "maxclass": "number",
                    "maximum": 44100,
                    "minimum": 0,
                    "numinlets": 1,
                    "numoutlets": 2,
                    "outlettype": [ "", "bang" ],
                    "parameter_enable": 0,
                    "patching_rect": [ 45.0, 191.0, 50.0, 20.0 ],
                    "presentation": 1,
                    "presentation_rect": [ 22.0, 77.0, 50.0, 20.0 ]
                }
            },
            {
                "box": {
                    "id": "obj-31",
                    "maxclass": "newobj",
                    "numinlets": 1,
                    "numoutlets": 1,
                    "outlettype": [ "" ],
                    "patching_rect": [ 45.0, 226.0, 156.0, 20.0 ],
                    "text": "sw ns.Granular.BaseGrainLength"
                }
            },
            {
                "box": {
                    "id": "obj-30",
                    "linecount": 3,
                    "maxclass": "comment",
                    "numinlets": 1,
                    "numoutlets": 0,
                    "patching_rect": [ 170.0, 143.0, 50.0, 40.0 ],
                    "presentation": 1,
                    "presentation_rect": [ 79.0, 159.0, 78.0, 18.0 ],
                    "text": "Base Pitch (Hz)",
                    "textcolor": [ 0.0, 0.0, 0.0, 1.0 ]
                }
            },
            {
                "box": {
                    "id": "obj-28",
                    "maxclass": "newobj",
                    "numinlets": 0,
                    "numoutlets": 1,
                    "outlettype": [ "float" ],
                    "patcher": {
                        "fileversion": 1,
                        "appversion": {
                            "major": 9,
                            "minor": 2,
                            "revision": 0,
                            "architecture": "x64",
                            "modernui": 1
                        },
                        "classnamespace": "box",
                        "rect": [ 0.0, 0.0, 1000.0, 755.2 ],
                        "boxes": [
                            {
                                "box": {
                                    "id": "obj-21",
                                    "maxclass": "newobj",
                                    "numinlets": 1,
                                    "numoutlets": 2,
                                    "outlettype": [ "bang", "int" ],
                                    "patching_rect": [ 203.0, 292.0, 29.5, 20.0 ],
                                    "text": "t b i"
                                }
                            },
                            {
                                "box": {
                                    "id": "obj-18",
                                    "linecount": 2,
                                    "maxclass": "newobj",
                                    "numinlets": 1,
                                    "numoutlets": 1,
                                    "outlettype": [ "bang" ],
                                    "patching_rect": [ 166.0, 201.0, 50.0, 20.0 ],
                                    "text": "loadbang"
                                }
                            },
                            {
                                "box": {
                                    "format": 6,
                                    "id": "obj-17",
                                    "maxclass": "flonum",
                                    "numinlets": 1,
                                    "numoutlets": 2,
                                    "outlettype": [ "", "bang" ],
                                    "parameter_enable": 0,
                                    "patching_rect": [ 204.0, 268.0, 50.0, 20.0 ]
                                }
                            },
                            {
                                "box": {
                                    "id": "obj-15",
                                    "linecount": 2,
                                    "maxclass": "newobj",
                                    "numinlets": 2,
                                    "numoutlets": 2,
                                    "outlettype": [ "", "int" ],
                                    "patching_rect": [ 166.0, 239.0, 57.0, 20.0 ],
                                    "text": "adstatus sr"
                                }
                            },
                            {
                                "box": {
                                    "id": "obj-14",
                                    "linecount": 2,
                                    "maxclass": "newobj",
                                    "numinlets": 2,
                                    "numoutlets": 1,
                                    "outlettype": [ "float" ],
                                    "patching_rect": [ 50.0, 363.0, 47.0, 20.0 ],
                                    "text": "!/ 44100."
                                }
                            },
                            {
                                "box": {
                                    "format": 6,
                                    "id": "obj-13",
                                    "maxclass": "flonum",
                                    "numinlets": 1,
                                    "numoutlets": 2,
                                    "outlettype": [ "", "bang" ],
                                    "parameter_enable": 0,
                                    "patching_rect": [ 50.0, 240.0, 50.0, 20.0 ]
                                }
                            },
                            {
                                "box": {
                                    "id": "obj-11",
                                    "maxclass": "newobj",
                                    "numinlets": 1,
                                    "numoutlets": 2,
                                    "outlettype": [ "bang", "int" ],
                                    "patching_rect": [ 89.0, 166.0, 29.5, 20.0 ],
                                    "text": "t b i"
                                }
                            },
                            {
                                "box": {
                                    "id": "obj-10",
                                    "maxclass": "newobj",
                                    "numinlets": 2,
                                    "numoutlets": 1,
                                    "outlettype": [ "float" ],
                                    "patching_rect": [ 50.0, 208.0, 29.5, 20.0 ],
                                    "text": "/ 1."
                                }
                            },
                            {
                                "box": {
                                    "id": "obj-9",
                                    "linecount": 3,
                                    "maxclass": "newobj",
                                    "numinlets": 0,
                                    "numoutlets": 1,
                                    "outlettype": [ "" ],
                                    "patching_rect": [ 50.0, 100.0, 119.0, 20.0 ],
                                    "text": "r ns.Granular.samplesize"
                                }
                            },
                            {
                                "box": {
                                    "id": "obj-40",
                                    "linecount": 3,
                                    "maxclass": "newobj",
                                    "numinlets": 0,
                                    "numoutlets": 1,
                                    "outlettype": [ "" ],
                                    "patching_rect": [ 89.0, 139.0, 104.0, 20.0 ],
                                    "text": "r ns.Granular.Ncycles"
                                }
                            },
                            {
                                "box": {
                                    "comment": "",
                                    "id": "obj-27",
                                    "index": 1,
                                    "maxclass": "outlet",
                                    "numinlets": 1,
                                    "numoutlets": 0,
                                    "patching_rect": [ 50.0, 443.0, 30.0, 30.0 ]
                                }
                            }
                        ],
                        "lines": [
                            {
                                "patchline": {
                                    "destination": [ "obj-13", 0 ],
                                    "source": [ "obj-10", 0 ]
                                }
                            },
                            {
                                "patchline": {
                                    "destination": [ "obj-10", 1 ],
                                    "source": [ "obj-11", 1 ]
                                }
                            },
                            {
                                "patchline": {
                                    "destination": [ "obj-10", 0 ],
                                    "source": [ "obj-11", 0 ]
                                }
                            },
                            {
                                "patchline": {
                                    "destination": [ "obj-14", 0 ],
                                    "source": [ "obj-13", 0 ]
                                }
                            },
                            {
                                "patchline": {
                                    "destination": [ "obj-27", 0 ],
                                    "source": [ "obj-14", 0 ]
                                }
                            },
                            {
                                "patchline": {
                                    "destination": [ "obj-17", 0 ],
                                    "source": [ "obj-15", 1 ]
                                }
                            },
                            {
                                "patchline": {
                                    "destination": [ "obj-21", 0 ],
                                    "source": [ "obj-17", 0 ]
                                }
                            },
                            {
                                "patchline": {
                                    "destination": [ "obj-15", 0 ],
                                    "source": [ "obj-18", 0 ]
                                }
                            },
                            {
                                "patchline": {
                                    "destination": [ "obj-14", 1 ],
                                    "source": [ "obj-21", 1 ]
                                }
                            },
                            {
                                "patchline": {
                                    "destination": [ "obj-14", 0 ],
                                    "source": [ "obj-21", 0 ]
                                }
                            },
                            {
                                "patchline": {
                                    "destination": [ "obj-11", 0 ],
                                    "source": [ "obj-40", 0 ]
                                }
                            },
                            {
                                "patchline": {
                                    "destination": [ "obj-10", 0 ],
                                    "source": [ "obj-9", 0 ]
                                }
                            }
                        ]
                    },
                    "patching_rect": [ 228.0, 114.0, 19.0, 20.0 ],
                    "text": "p"
                }
            },
            {
                "box": {
                    "bgcolor": [ 0.2980392156862745, 0.2980392156862745, 0.2980392156862745, 1.0 ],
                    "format": 6,
                    "id": "obj-20",
                    "ignoreclick": 1,
                    "maxclass": "flonum",
                    "numinlets": 1,
                    "numoutlets": 2,
                    "outlettype": [ "", "bang" ],
                    "parameter_enable": 0,
                    "patching_rect": [ 228.0, 142.0, 50.0, 20.0 ],
                    "presentation": 1,
                    "presentation_rect": [ 22.0, 158.0, 50.0, 20.0 ]
                }
            },
            {
                "box": {
                    "fontsize": 18.0,
                    "id": "obj-8",
                    "maxclass": "comment",
                    "numinlets": 1,
                    "numoutlets": 0,
                    "patching_rect": [ 23.0, 9.0, 260.0, 27.0 ],
                    "presentation": 1,
                    "presentation_rect": [ 22.0, 9.0, 159.0, 27.0 ],
                    "text": "Granular synthesis",
                    "textcolor": [ 0.0, 0.0, 0.0, 1.0 ]
                }
            },
            {
                "box": {
                    "id": "obj-1",
                    "maxclass": "comment",
                    "numinlets": 1,
                    "numoutlets": 0,
                    "patching_rect": [ 102.0, 126.0, 46.0, 18.0 ],
                    "presentation": 1,
                    "presentation_rect": [ 79.0, 138.0, 63.0, 18.0 ],
                    "text": "N cycles",
                    "textcolor": [ 0.0, 0.0, 0.0, 1.0 ]
                }
            },
            {
                "box": {
                    "id": "obj-2",
                    "maxclass": "number",
                    "maximum": 16000,
                    "minimum": 0,
                    "numinlets": 1,
                    "numoutlets": 2,
                    "outlettype": [ "", "bang" ],
                    "parameter_enable": 0,
                    "patching_rect": [ 45.0, 124.0, 50.0, 20.0 ],
                    "presentation": 1,
                    "presentation_rect": [ 22.0, 136.0, 50.0, 20.0 ]
                }
            },
            {
                "box": {
                    "id": "obj-7",
                    "maxclass": "newobj",
                    "numinlets": 1,
                    "numoutlets": 1,
                    "outlettype": [ "" ],
                    "patching_rect": [ 45.0, 153.0, 113.0, 20.0 ],
                    "text": "sw ns.Granular.Ncycles"
                }
            },
            {
                "box": {
                    "id": "obj-4",
                    "linecount": 3,
                    "maxclass": "comment",
                    "numinlets": 1,
                    "numoutlets": 0,
                    "patching_rect": [ 180.0, 366.0, 63.0, 40.0 ],
                    "presentation": 1,
                    "presentation_rect": [ 79.0, 101.0, 142.0, 18.0 ],
                    "text": "Base grain duration (samples)",
                    "textcolor": [ 0.0, 0.0, 0.0, 1.0 ]
                }
            },
            {
                "box": {
                    "id": "obj-5",
                    "maxclass": "number",
                    "minimum": 0,
                    "numinlets": 1,
                    "numoutlets": 2,
                    "outlettype": [ "", "bang" ],
                    "parameter_enable": 0,
                    "patching_rect": [ 123.0, 364.0, 50.0, 20.0 ],
                    "presentation": 1,
                    "presentation_rect": [ 22.0, 99.0, 50.0, 20.0 ]
                }
            },
            {
                "box": {
                    "id": "obj-6",
                    "maxclass": "newobj",
                    "numinlets": 1,
                    "numoutlets": 1,
                    "outlettype": [ "" ],
                    "patching_rect": [ 163.0, 395.0, 128.0, 20.0 ],
                    "text": "sw ns.Granular.samplesize"
                }
            },
            {
                "box": {
                    "id": "obj-3",
                    "maxclass": "comment",
                    "numinlets": 1,
                    "numoutlets": 0,
                    "patching_rect": [ 102.0, 63.0, 55.0, 18.0 ],
                    "presentation": 1,
                    "presentation_rect": [ 79.0, 45.0, 55.0, 18.0 ],
                    "text": "Polyphony",
                    "textcolor": [ 0.0, 0.0, 0.0, 1.0 ]
                }
            },
            {
                "box": {
                    "id": "obj-29",
                    "maxclass": "number",
                    "maximum": 32000,
                    "minimum": 0,
                    "numinlets": 1,
                    "numoutlets": 2,
                    "outlettype": [ "", "bang" ],
                    "parameter_enable": 0,
                    "patching_rect": [ 45.0, 61.0, 50.0, 20.0 ],
                    "presentation": 1,
                    "presentation_rect": [ 22.0, 43.0, 50.0, 20.0 ]
                }
            },
            {
                "box": {
                    "id": "obj-49",
                    "maxclass": "newobj",
                    "numinlets": 1,
                    "numoutlets": 1,
                    "outlettype": [ "" ],
                    "patching_rect": [ 45.0, 90.0, 124.0, 20.0 ],
                    "text": "sw ns.Granular.polyphony"
                }
            }
        ],
        "lines": [
            {
                "patchline": {
                    "destination": [ "obj-9", 0 ],
                    "source": [ "obj-10", 0 ]
                }
            },
            {
                "patchline": {
                    "destination": [ "obj-10", 1 ],
                    "source": [ "obj-11", 1 ]
                }
            },
            {
                "patchline": {
                    "destination": [ "obj-10", 0 ],
                    "source": [ "obj-11", 0 ]
                }
            },
            {
                "patchline": {
                    "destination": [ "obj-128", 0 ],
                    "source": [ "obj-127", 0 ]
                }
            },
            {
                "patchline": {
                    "destination": [ "obj-127", 0 ],
                    "source": [ "obj-128", 0 ]
                }
            },
            {
                "patchline": {
                    "destination": [ "obj-7", 0 ],
                    "source": [ "obj-2", 0 ]
                }
            },
            {
                "patchline": {
                    "destination": [ "obj-20", 0 ],
                    "source": [ "obj-28", 0 ]
                }
            },
            {
                "patchline": {
                    "destination": [ "obj-49", 0 ],
                    "source": [ "obj-29", 0 ]
                }
            },
            {
                "patchline": {
                    "destination": [ "obj-33", 0 ],
                    "source": [ "obj-31", 0 ]
                }
            },
            {
                "patchline": {
                    "destination": [ "obj-31", 0 ],
                    "source": [ "obj-33", 0 ]
                }
            },
            {
                "patchline": {
                    "destination": [ "obj-5", 0 ],
                    "source": [ "obj-35", 1 ]
                }
            },
            {
                "patchline": {
                    "destination": [ "obj-37", 0 ],
                    "midpoints": [ 178.5, 464.0, 55.2734375, 464.0, 55.2734375, 258.87890625, 86.5, 258.87890625 ],
                    "source": [ "obj-36", 1 ]
                }
            },
            {
                "patchline": {
                    "destination": [ "obj-35", 0 ],
                    "source": [ "obj-37", 0 ]
                }
            },
            {
                "patchline": {
                    "destination": [ "obj-29", 0 ],
                    "source": [ "obj-49", 0 ]
                }
            },
            {
                "patchline": {
                    "destination": [ "obj-36", 0 ],
                    "order": 1,
                    "source": [ "obj-5", 0 ]
                }
            },
            {
                "patchline": {
                    "destination": [ "obj-6", 0 ],
                    "order": 0,
                    "source": [ "obj-5", 0 ]
                }
            },
            {
                "patchline": {
                    "destination": [ "obj-5", 0 ],
                    "source": [ "obj-6", 0 ]
                }
            },
            {
                "patchline": {
                    "destination": [ "obj-2", 0 ],
                    "source": [ "obj-7", 0 ]
                }
            },
            {
                "patchline": {
                    "destination": [ "obj-11", 0 ],
                    "source": [ "obj-9", 0 ]
                }
            }
        ]
    }
}