{
    "patcher": {
        "fileversion": 1,
        "appversion": {
            "major": 9,
            "minor": 1,
            "revision": 4,
            "architecture": "x64",
            "modernui": 1
        },
        "classnamespace": "box",
        "rect": [ 139.0, 259.0, 1060.0, 689.0 ],
        "boxes": [
            {
                "box": {
                    "fontsize": 24.0,
                    "id": "obj-83",
                    "maxclass": "comment",
                    "numinlets": 1,
                    "numoutlets": 0,
                    "patching_rect": [ 49.0, 26.0, 123.0, 33.0 ],
                    "presentation": 1,
                    "presentation_rect": [ 48.0, 13.0, 123.0, 33.0 ],
                    "text": "bo.jit.world"
                }
            },
            {
                "box": {
                    "id": "obj-81",
                    "maxclass": "toggle",
                    "numinlets": 1,
                    "numoutlets": 1,
                    "outlettype": [ "int" ],
                    "parameter_enable": 0,
                    "patching_rect": [ 80.0, 135.0, 24.0, 24.0 ],
                    "presentation": 1,
                    "presentation_rect": [ 30.0, 60.0, 24.0, 24.0 ]
                }
            },
            {
                "box": {
                    "id": "obj-79",
                    "maxclass": "newobj",
                    "numinlets": 1,
                    "numoutlets": 1,
                    "outlettype": [ "" ],
                    "patcher": {
                        "fileversion": 1,
                        "appversion": {
                            "major": 9,
                            "minor": 1,
                            "revision": 4,
                            "architecture": "x64",
                            "modernui": 1
                        },
                        "classnamespace": "box",
                        "rect": [ 59.0, 119.0, 469.0, 261.0 ],
                        "boxes": [
                            {
                                "box": {
                                    "id": "obj-76",
                                    "maxclass": "newobj",
                                    "numinlets": 2,
                                    "numoutlets": 1,
                                    "outlettype": [ "int" ],
                                    "patching_rect": [ 231.0, 94.0, 29.5, 22.0 ],
                                    "text": "- 1"
                                }
                            },
                            {
                                "box": {
                                    "id": "obj-75",
                                    "maxclass": "number",
                                    "numinlets": 1,
                                    "numoutlets": 2,
                                    "outlettype": [ "", "bang" ],
                                    "parameter_enable": 0,
                                    "patching_rect": [ 231.0, 66.0, 50.0, 22.0 ]
                                }
                            },
                            {
                                "box": {
                                    "id": "obj-73",
                                    "maxclass": "newobj",
                                    "numinlets": 2,
                                    "numoutlets": 2,
                                    "outlettype": [ "", "" ],
                                    "patching_rect": [ 231.0, 127.0, 119.0, 22.0 ],
                                    "text": "substitute count max"
                                }
                            },
                            {
                                "box": {
                                    "id": "obj-37",
                                    "maxclass": "newobj",
                                    "numinlets": 1,
                                    "numoutlets": 1,
                                    "outlettype": [ "" ],
                                    "patching_rect": [ 231.0, 11.0, 93.0, 22.0 ],
                                    "text": "loadmess count"
                                }
                            },
                            {
                                "box": {
                                    "id": "obj-27",
                                    "maxclass": "newobj",
                                    "numinlets": 1,
                                    "numoutlets": 1,
                                    "outlettype": [ "" ],
                                    "patching_rect": [ 231.0, 39.0, 64.0, 22.0 ],
                                    "text": "jit.displays"
                                }
                            },
                            {
                                "box": {
                                    "id": "obj-65",
                                    "maxclass": "newobj",
                                    "numinlets": 1,
                                    "numoutlets": 1,
                                    "outlettype": [ "" ],
                                    "patching_rect": [ 50.0, 100.0, 151.0, 22.0 ],
                                    "text": "sw /TBO/render/FSmonitor"
                                }
                            },
                            {
                                "box": {
                                    "comment": "",
                                    "id": "obj-77",
                                    "index": 1,
                                    "maxclass": "inlet",
                                    "numinlets": 0,
                                    "numoutlets": 1,
                                    "outlettype": [ "" ],
                                    "patching_rect": [ 50.0, 40.0, 30.0, 30.0 ]
                                }
                            },
                            {
                                "box": {
                                    "comment": "",
                                    "id": "obj-78",
                                    "index": 1,
                                    "maxclass": "outlet",
                                    "numinlets": 1,
                                    "numoutlets": 0,
                                    "patching_rect": [ 50.0, 165.0, 30.0, 30.0 ]
                                }
                            }
                        ],
                        "lines": [
                            {
                                "patchline": {
                                    "destination": [ "obj-75", 0 ],
                                    "source": [ "obj-27", 0 ]
                                }
                            },
                            {
                                "patchline": {
                                    "destination": [ "obj-27", 0 ],
                                    "source": [ "obj-37", 0 ]
                                }
                            },
                            {
                                "patchline": {
                                    "destination": [ "obj-78", 0 ],
                                    "source": [ "obj-65", 0 ]
                                }
                            },
                            {
                                "patchline": {
                                    "destination": [ "obj-78", 0 ],
                                    "source": [ "obj-73", 0 ]
                                }
                            },
                            {
                                "patchline": {
                                    "destination": [ "obj-76", 0 ],
                                    "source": [ "obj-75", 0 ]
                                }
                            },
                            {
                                "patchline": {
                                    "destination": [ "obj-73", 0 ],
                                    "source": [ "obj-76", 0 ]
                                }
                            },
                            {
                                "patchline": {
                                    "destination": [ "obj-65", 0 ],
                                    "source": [ "obj-77", 0 ]
                                }
                            }
                        ]
                    },
                    "patching_rect": [ 588.0, 82.0, 165.0, 22.0 ],
                    "presentation": 1,
                    "presentation_rect": [ 57.0, 92.0, 165.0, 22.0 ],
                    "text": "p sw /TBO/render/FSmonitor"
                }
            },
            {
                "box": {
                    "id": "obj-67",
                    "maxclass": "number",
                    "minimum": 0,
                    "numinlets": 1,
                    "numoutlets": 2,
                    "outlettype": [ "", "bang" ],
                    "parameter_enable": 0,
                    "patching_rect": [ 536.0, 82.0, 50.0, 22.0 ],
                    "presentation": 1,
                    "presentation_rect": [ 5.0, 92.0, 50.0, 22.0 ]
                }
            },
            {
                "box": {
                    "id": "obj-62",
                    "maxclass": "newobj",
                    "numinlets": 1,
                    "numoutlets": 1,
                    "outlettype": [ "" ],
                    "patcher": {
                        "fileversion": 1,
                        "appversion": {
                            "major": 9,
                            "minor": 1,
                            "revision": 4,
                            "architecture": "x64",
                            "modernui": 1
                        },
                        "classnamespace": "box",
                        "rect": [ 571.0, 581.0, 427.0, 316.0 ],
                        "boxes": [
                            {
                                "box": {
                                    "id": "obj-59",
                                    "maxclass": "message",
                                    "numinlets": 2,
                                    "numoutlets": 1,
                                    "outlettype": [ "" ],
                                    "patching_rect": [ 50.0, 160.0, 243.0, 22.0 ],
                                    "text": "windowposition 0 50, size 512 288, border 1"
                                }
                            },
                            {
                                "box": {
                                    "id": "obj-52",
                                    "maxclass": "newobj",
                                    "numinlets": 3,
                                    "numoutlets": 3,
                                    "outlettype": [ "bang", "bang", "" ],
                                    "patching_rect": [ 50.0, 100.0, 44.0, 22.0 ],
                                    "text": "sel 0 1"
                                }
                            },
                            {
                                "box": {
                                    "id": "obj-50",
                                    "maxclass": "newobj",
                                    "numinlets": 1,
                                    "numoutlets": 1,
                                    "outlettype": [ "" ],
                                    "patcher": {
                                        "fileversion": 1,
                                        "appversion": {
                                            "major": 9,
                                            "minor": 1,
                                            "revision": 4,
                                            "architecture": "x64",
                                            "modernui": 1
                                        },
                                        "classnamespace": "box",
                                        "rect": [ 59.0, 119.0, 406.0, 401.0 ],
                                        "boxes": [
                                            {
                                                "box": {
                                                    "id": "obj-2",
                                                    "maxclass": "newobj",
                                                    "numinlets": 1,
                                                    "numoutlets": 1,
                                                    "outlettype": [ "" ],
                                                    "patching_rect": [ 171.0, 60.0, 151.0, 22.0 ],
                                                    "text": "sw /TBO/render/FSmonitor"
                                                }
                                            },
                                            {
                                                "box": {
                                                    "id": "obj-46",
                                                    "maxclass": "message",
                                                    "numinlets": 2,
                                                    "numoutlets": 1,
                                                    "outlettype": [ "" ],
                                                    "patching_rect": [ 62.0, 341.0, 236.0, 22.0 ],
                                                    "text": "border 0, windowposition $1 $2, size $3 $4"
                                                }
                                            },
                                            {
                                                "box": {
                                                    "comment": "",
                                                    "id": "obj-1",
                                                    "index": 1,
                                                    "maxclass": "inlet",
                                                    "numinlets": 0,
                                                    "numoutlets": 1,
                                                    "outlettype": [ "bang" ],
                                                    "patching_rect": [ 62.0, 52.0, 30.0, 30.0 ]
                                                }
                                            },
                                            {
                                                "box": {
                                                    "id": "obj-44",
                                                    "maxclass": "newobj",
                                                    "numinlets": 2,
                                                    "numoutlets": 2,
                                                    "outlettype": [ "", "" ],
                                                    "patching_rect": [ 62.0, 312.0, 106.0, 22.0 ],
                                                    "text": "zl.reg"
                                                }
                                            },
                                            {
                                                "box": {
                                                    "comment": "",
                                                    "id": "obj-49",
                                                    "index": 1,
                                                    "maxclass": "outlet",
                                                    "numinlets": 1,
                                                    "numoutlets": 0,
                                                    "patching_rect": [ 62.0, 371.0, 30.0, 30.0 ]
                                                }
                                            },
                                            {
                                                "box": {
                                                    "id": "obj-43",
                                                    "maxclass": "newobj",
                                                    "numinlets": 4,
                                                    "numoutlets": 1,
                                                    "outlettype": [ "" ],
                                                    "patching_rect": [ 149.0, 285.0, 127.0, 22.0 ],
                                                    "text": "pack 1512 0 1280 720"
                                                }
                                            },
                                            {
                                                "box": {
                                                    "id": "obj-42",
                                                    "maxclass": "newobj",
                                                    "numinlets": 2,
                                                    "numoutlets": 1,
                                                    "outlettype": [ "" ],
                                                    "patching_rect": [ 221.0, 257.0, 77.0, 22.0 ],
                                                    "text": "vexpr $i2-$i1"
                                                }
                                            },
                                            {
                                                "box": {
                                                    "id": "obj-40",
                                                    "maxclass": "newobj",
                                                    "numinlets": 2,
                                                    "numoutlets": 2,
                                                    "outlettype": [ "", "" ],
                                                    "patching_rect": [ 149.0, 214.0, 149.0, 22.0 ],
                                                    "text": "zl.slice 2"
                                                }
                                            },
                                            {
                                                "box": {
                                                    "id": "obj-39",
                                                    "maxclass": "newobj",
                                                    "numinlets": 2,
                                                    "numoutlets": 2,
                                                    "outlettype": [ "", "" ],
                                                    "patching_rect": [ 113.0, 186.0, 55.0, 22.0 ],
                                                    "text": "zl.slice 1"
                                                }
                                            },
                                            {
                                                "box": {
                                                    "id": "obj-38",
                                                    "maxclass": "newobj",
                                                    "numinlets": 2,
                                                    "numoutlets": 2,
                                                    "outlettype": [ "", "" ],
                                                    "patching_rect": [ 113.0, 159.0, 75.0, 22.0 ],
                                                    "text": "route coords"
                                                }
                                            },
                                            {
                                                "box": {
                                                    "id": "obj-37",
                                                    "maxclass": "newobj",
                                                    "numinlets": 1,
                                                    "numoutlets": 1,
                                                    "outlettype": [ "" ],
                                                    "patching_rect": [ 113.0, 103.0, 92.0, 22.0 ],
                                                    "text": "prepend coords"
                                                }
                                            },
                                            {
                                                "box": {
                                                    "id": "obj-36",
                                                    "maxclass": "number",
                                                    "numinlets": 1,
                                                    "numoutlets": 2,
                                                    "outlettype": [ "", "bang" ],
                                                    "parameter_enable": 0,
                                                    "patching_rect": [ 113.0, 60.0, 50.0, 22.0 ]
                                                }
                                            },
                                            {
                                                "box": {
                                                    "id": "obj-35",
                                                    "maxclass": "newobj",
                                                    "numinlets": 1,
                                                    "numoutlets": 1,
                                                    "outlettype": [ "" ],
                                                    "patching_rect": [ 113.0, 9.0, 70.0, 22.0 ],
                                                    "text": "loadmess 1"
                                                }
                                            },
                                            {
                                                "box": {
                                                    "id": "obj-27",
                                                    "maxclass": "newobj",
                                                    "numinlets": 1,
                                                    "numoutlets": 1,
                                                    "outlettype": [ "" ],
                                                    "patching_rect": [ 113.0, 131.0, 64.0, 22.0 ],
                                                    "text": "jit.displays"
                                                }
                                            }
                                        ],
                                        "lines": [
                                            {
                                                "patchline": {
                                                    "destination": [ "obj-44", 0 ],
                                                    "source": [ "obj-1", 0 ]
                                                }
                                            },
                                            {
                                                "patchline": {
                                                    "destination": [ "obj-36", 0 ],
                                                    "source": [ "obj-2", 0 ]
                                                }
                                            },
                                            {
                                                "patchline": {
                                                    "destination": [ "obj-38", 0 ],
                                                    "source": [ "obj-27", 0 ]
                                                }
                                            },
                                            {
                                                "patchline": {
                                                    "destination": [ "obj-36", 0 ],
                                                    "source": [ "obj-35", 0 ]
                                                }
                                            },
                                            {
                                                "patchline": {
                                                    "destination": [ "obj-2", 0 ],
                                                    "order": 0,
                                                    "source": [ "obj-36", 0 ]
                                                }
                                            },
                                            {
                                                "patchline": {
                                                    "destination": [ "obj-37", 0 ],
                                                    "order": 1,
                                                    "source": [ "obj-36", 0 ]
                                                }
                                            },
                                            {
                                                "patchline": {
                                                    "destination": [ "obj-27", 0 ],
                                                    "source": [ "obj-37", 0 ]
                                                }
                                            },
                                            {
                                                "patchline": {
                                                    "destination": [ "obj-39", 0 ],
                                                    "source": [ "obj-38", 0 ]
                                                }
                                            },
                                            {
                                                "patchline": {
                                                    "destination": [ "obj-40", 0 ],
                                                    "source": [ "obj-39", 1 ]
                                                }
                                            },
                                            {
                                                "patchline": {
                                                    "destination": [ "obj-42", 1 ],
                                                    "source": [ "obj-40", 1 ]
                                                }
                                            },
                                            {
                                                "patchline": {
                                                    "destination": [ "obj-42", 0 ],
                                                    "order": 0,
                                                    "source": [ "obj-40", 0 ]
                                                }
                                            },
                                            {
                                                "patchline": {
                                                    "destination": [ "obj-43", 0 ],
                                                    "order": 1,
                                                    "source": [ "obj-40", 0 ]
                                                }
                                            },
                                            {
                                                "patchline": {
                                                    "destination": [ "obj-43", 2 ],
                                                    "source": [ "obj-42", 0 ]
                                                }
                                            },
                                            {
                                                "patchline": {
                                                    "destination": [ "obj-44", 1 ],
                                                    "source": [ "obj-43", 0 ]
                                                }
                                            },
                                            {
                                                "patchline": {
                                                    "destination": [ "obj-46", 0 ],
                                                    "source": [ "obj-44", 0 ]
                                                }
                                            },
                                            {
                                                "patchline": {
                                                    "destination": [ "obj-49", 0 ],
                                                    "source": [ "obj-46", 0 ]
                                                }
                                            }
                                        ]
                                    },
                                    "patching_rect": [ 62.5, 131.0, 126.0, 22.0 ],
                                    "text": "p \"2nd screen coords\""
                                }
                            },
                            {
                                "box": {
                                    "comment": "",
                                    "id": "obj-60",
                                    "index": 1,
                                    "maxclass": "inlet",
                                    "numinlets": 0,
                                    "numoutlets": 1,
                                    "outlettype": [ "int" ],
                                    "patching_rect": [ 50.0, 40.0, 30.0, 30.0 ]
                                }
                            },
                            {
                                "box": {
                                    "comment": "",
                                    "id": "obj-61",
                                    "index": 1,
                                    "maxclass": "outlet",
                                    "numinlets": 1,
                                    "numoutlets": 0,
                                    "patching_rect": [ 50.25, 242.0, 30.0, 30.0 ]
                                }
                            }
                        ],
                        "lines": [
                            {
                                "patchline": {
                                    "destination": [ "obj-61", 0 ],
                                    "source": [ "obj-50", 0 ]
                                }
                            },
                            {
                                "patchline": {
                                    "destination": [ "obj-50", 0 ],
                                    "source": [ "obj-52", 1 ]
                                }
                            },
                            {
                                "patchline": {
                                    "destination": [ "obj-59", 0 ],
                                    "source": [ "obj-52", 0 ]
                                }
                            },
                            {
                                "patchline": {
                                    "destination": [ "obj-61", 0 ],
                                    "source": [ "obj-59", 0 ]
                                }
                            },
                            {
                                "patchline": {
                                    "destination": [ "obj-52", 0 ],
                                    "source": [ "obj-60", 0 ]
                                }
                            }
                        ]
                    },
                    "patching_rect": [ 735.0, 275.0, 70.0, 22.0 ],
                    "text": "p fullscreen"
                }
            },
            {
                "box": {
                    "id": "obj-57",
                    "maxclass": "toggle",
                    "numinlets": 1,
                    "numoutlets": 1,
                    "outlettype": [ "int" ],
                    "parameter_enable": 0,
                    "patching_rect": [ 735.0, 244.0, 24.0, 24.0 ],
                    "presentation": 1,
                    "presentation_rect": [ 32.0, 121.0, 24.0, 24.0 ]
                }
            },
            {
                "box": {
                    "comment": "",
                    "id": "obj-25",
                    "index": 0,
                    "maxclass": "outlet",
                    "numinlets": 1,
                    "numoutlets": 0,
                    "patching_rect": [ 108.0, 180.0, 30.0, 30.0 ]
                }
            },
            {
                "box": {
                    "id": "obj-14",
                    "maxclass": "newobj",
                    "numinlets": 1,
                    "numoutlets": 1,
                    "outlettype": [ "" ],
                    "patching_rect": [ 107.0, 136.0, 114.0, 22.0 ],
                    "presentation": 1,
                    "presentation_rect": [ 57.0, 61.0, 114.0, 22.0 ],
                    "text": "sw /TBO/render/ON"
                }
            },
            {
                "box": {
                    "id": "obj-9",
                    "maxclass": "newobj",
                    "numinlets": 1,
                    "numoutlets": 1,
                    "outlettype": [ "" ],
                    "patching_rect": [ 735.0, 212.0, 147.0, 22.0 ],
                    "presentation": 1,
                    "presentation_rect": [ 62.0, 122.0, 147.0, 22.0 ],
                    "text": "sw /TBO/render/fullscreen"
                }
            },
            {
                "box": {
                    "id": "obj-17",
                    "maxclass": "newobj",
                    "numinlets": 2,
                    "numoutlets": 1,
                    "outlettype": [ "" ],
                    "patching_rect": [ 553.0, 238.0, 47.0, 22.0 ],
                    "text": "qlim 20"
                }
            },
            {
                "box": {
                    "id": "obj-16",
                    "maxclass": "button",
                    "numinlets": 1,
                    "numoutlets": 1,
                    "outlettype": [ "bang" ],
                    "parameter_enable": 0,
                    "patching_rect": [ 553.0, 269.0, 24.0, 24.0 ]
                }
            },
            {
                "box": {
                    "id": "obj-13",
                    "maxclass": "newobj",
                    "numinlets": 0,
                    "numoutlets": 1,
                    "outlettype": [ "" ],
                    "patching_rect": [ 553.0, 207.0, 150.0, 22.0 ],
                    "text": "r ---BrainViz/render/update"
                }
            },
            {
                "box": {
                    "id": "obj-12",
                    "maxclass": "button",
                    "numinlets": 1,
                    "numoutlets": 1,
                    "outlettype": [ "bang" ],
                    "parameter_enable": 0,
                    "patching_rect": [ 220.0, 206.0, 24.0, 24.0 ]
                }
            },
            {
                "box": {
                    "attr": "rotatexyz",
                    "fontface": 0,
                    "fontname": "Arial",
                    "fontsize": 13.0,
                    "id": "obj-5",
                    "lock": 1,
                    "maxclass": "attrui",
                    "numinlets": 1,
                    "numoutlets": 1,
                    "outlettype": [ "" ],
                    "parameter_enable": 0,
                    "patching_rect": [ 432.0, 651.0, 248.0, 23.0 ],
                    "text_width": 99.0
                }
            },
            {
                "box": {
                    "attr": "enable",
                    "fontface": 0,
                    "fontname": "Arial",
                    "fontsize": 13.0,
                    "id": "obj-15",
                    "maxclass": "attrui",
                    "numinlets": 1,
                    "numoutlets": 1,
                    "outlettype": [ "" ],
                    "parameter_enable": 0,
                    "patching_rect": [ 449.0, 550.0, 153.0, 23.0 ]
                }
            },
            {
                "box": {
                    "attr": "specular",
                    "fontface": 0,
                    "fontname": "Arial",
                    "fontsize": 13.0,
                    "id": "obj-26",
                    "lock": 1,
                    "maxclass": "attrui",
                    "numinlets": 1,
                    "numoutlets": 1,
                    "outlettype": [ "" ],
                    "parameter_enable": 0,
                    "patching_rect": [ 189.0, 601.0, 150.0, 23.0 ]
                }
            },
            {
                "box": {
                    "attr": "diffuse",
                    "fontface": 0,
                    "fontname": "Arial",
                    "fontsize": 13.0,
                    "id": "obj-28",
                    "lock": 1,
                    "maxclass": "attrui",
                    "numinlets": 1,
                    "numoutlets": 1,
                    "outlettype": [ "" ],
                    "parameter_enable": 0,
                    "patching_rect": [ 189.0, 576.0, 150.0, 23.0 ]
                }
            },
            {
                "box": {
                    "attr": "ambient",
                    "fontface": 0,
                    "fontname": "Arial",
                    "fontsize": 13.0,
                    "id": "obj-30",
                    "lock": 1,
                    "maxclass": "attrui",
                    "numinlets": 1,
                    "numoutlets": 1,
                    "outlettype": [ "" ],
                    "parameter_enable": 0,
                    "patching_rect": [ 189.0, 551.0, 150.0, 23.0 ]
                }
            },
            {
                "box": {
                    "fontname": "Arial",
                    "fontsize": 13.0,
                    "id": "obj-31",
                    "maxclass": "newobj",
                    "numinlets": 1,
                    "numoutlets": 1,
                    "outlettype": [ "" ],
                    "patching_rect": [ 189.0, 704.0, 536.0, 23.0 ],
                    "text": "jit.gl.light ---BrainViz @type point @rotatexyz 0 0 0 @position 0 0 2 @ambient 0.5 0.5 0.5 1."
                }
            },
            {
                "box": {
                    "attr": "type",
                    "fontface": 0,
                    "fontname": "Arial",
                    "fontsize": 13.0,
                    "id": "obj-32",
                    "lock": 1,
                    "maxclass": "attrui",
                    "numinlets": 1,
                    "numoutlets": 1,
                    "outlettype": [ "" ],
                    "parameter_enable": 0,
                    "patching_rect": [ 189.0, 626.0, 202.0, 23.0 ]
                }
            },
            {
                "box": {
                    "attr": "position",
                    "fontface": 0,
                    "fontname": "Arial",
                    "fontsize": 13.0,
                    "id": "obj-33",
                    "lock": 1,
                    "maxclass": "attrui",
                    "numinlets": 1,
                    "numoutlets": 1,
                    "outlettype": [ "" ],
                    "parameter_enable": 0,
                    "patching_rect": [ 189.0, 651.0, 248.0, 23.0 ]
                }
            },
            {
                "box": {
                    "attr": "axes",
                    "fontface": 0,
                    "fontname": "Arial",
                    "fontsize": 13.0,
                    "id": "obj-34",
                    "maxclass": "attrui",
                    "numinlets": 1,
                    "numoutlets": 1,
                    "outlettype": [ "" ],
                    "parameter_enable": 0,
                    "patching_rect": [ 449.0, 576.0, 153.0, 23.0 ]
                }
            },
            {
                "box": {
                    "attr": "sync",
                    "id": "obj-3",
                    "maxclass": "attrui",
                    "numinlets": 1,
                    "numoutlets": 1,
                    "outlettype": [ "" ],
                    "parameter_enable": 0,
                    "patching_rect": [ 379.0, 317.0, 79.0, 22.0 ],
                    "text_width": 48.0
                }
            },
            {
                "box": {
                    "id": "obj-7",
                    "maxclass": "newobj",
                    "numinlets": 1,
                    "numoutlets": 0,
                    "patching_rect": [ 146.0, 288.0, 96.0, 22.0 ],
                    "text": "s ---BrainViz.ON"
                }
            },
            {
                "box": {
                    "id": "obj-21",
                    "maxclass": "newobj",
                    "numinlets": 1,
                    "numoutlets": 1,
                    "outlettype": [ "" ],
                    "patching_rect": [ 172.0, 317.0, 89.0, 22.0 ],
                    "text": "prepend visible"
                }
            },
            {
                "box": {
                    "id": "obj-11",
                    "maxclass": "newobj",
                    "numinlets": 1,
                    "numoutlets": 4,
                    "outlettype": [ "bang", "int", "int", "int" ],
                    "patching_rect": [ 146.0, 228.0, 45.0, 22.0 ],
                    "text": "t b i i i"
                }
            },
            {
                "box": {
                    "id": "obj-29",
                    "maxclass": "newobj",
                    "numinlets": 1,
                    "numoutlets": 2,
                    "outlettype": [ "", "" ],
                    "patcher": {
                        "fileversion": 1,
                        "appversion": {
                            "major": 9,
                            "minor": 1,
                            "revision": 4,
                            "architecture": "x64",
                            "modernui": 1
                        },
                        "classnamespace": "box",
                        "rect": [ 59.0, 106.0, 640.0, 480.0 ],
                        "boxes": [
                            {
                                "box": {
                                    "id": "obj-17",
                                    "maxclass": "newobj",
                                    "numinlets": 1,
                                    "numoutlets": 1,
                                    "outlettype": [ "" ],
                                    "patching_rect": [ 213.0, 276.0, 54.0, 22.0 ],
                                    "text": "deferlow"
                                }
                            },
                            {
                                "box": {
                                    "id": "obj-16",
                                    "linecount": 2,
                                    "maxclass": "message",
                                    "numinlets": 2,
                                    "numoutlets": 1,
                                    "outlettype": [ "" ],
                                    "patching_rect": [ 50.0, 287.0, 50.0, 35.0 ],
                                    "text": "423 317"
                                }
                            },
                            {
                                "box": {
                                    "id": "obj-15",
                                    "linecount": 2,
                                    "maxclass": "message",
                                    "numinlets": 2,
                                    "numoutlets": 1,
                                    "outlettype": [ "" ],
                                    "patching_rect": [ 122.0, 287.0, 50.0, 35.0 ],
                                    "text": "423 317"
                                }
                            },
                            {
                                "box": {
                                    "id": "obj-13",
                                    "maxclass": "button",
                                    "numinlets": 1,
                                    "numoutlets": 1,
                                    "outlettype": [ "bang" ],
                                    "parameter_enable": 0,
                                    "patching_rect": [ 56.0, 225.0, 24.0, 24.0 ]
                                }
                            },
                            {
                                "box": {
                                    "id": "obj-11",
                                    "maxclass": "newobj",
                                    "numinlets": 2,
                                    "numoutlets": 2,
                                    "outlettype": [ "", "" ],
                                    "patching_rect": [ 117.0, 198.0, 60.0, 22.0 ],
                                    "text": "zl.change"
                                }
                            },
                            {
                                "box": {
                                    "id": "obj-9",
                                    "maxclass": "newobj",
                                    "numinlets": 1,
                                    "numoutlets": 1,
                                    "outlettype": [ "" ],
                                    "patching_rect": [ 193.0, 235.0, 77.0, 22.0 ],
                                    "text": "prepend size"
                                }
                            },
                            {
                                "box": {
                                    "id": "obj-7",
                                    "maxclass": "newobj",
                                    "numinlets": 2,
                                    "numoutlets": 1,
                                    "outlettype": [ "" ],
                                    "patching_rect": [ 96.0, 168.0, 81.0, 22.0 ],
                                    "text": "pack 640 480"
                                }
                            },
                            {
                                "box": {
                                    "id": "obj-6",
                                    "maxclass": "newobj",
                                    "numinlets": 2,
                                    "numoutlets": 1,
                                    "outlettype": [ "float" ],
                                    "patching_rect": [ 158.0, 137.0, 40.0, 22.0 ],
                                    "text": "* 0.75"
                                }
                            },
                            {
                                "box": {
                                    "id": "obj-4",
                                    "maxclass": "newobj",
                                    "numinlets": 1,
                                    "numoutlets": 2,
                                    "outlettype": [ "int", "int" ],
                                    "patching_rect": [ 96.0, 100.0, 94.0, 22.0 ],
                                    "text": "unpack 640 480"
                                }
                            },
                            {
                                "box": {
                                    "comment": "",
                                    "id": "obj-26",
                                    "index": 1,
                                    "maxclass": "inlet",
                                    "numinlets": 0,
                                    "numoutlets": 1,
                                    "outlettype": [ "" ],
                                    "patching_rect": [ 96.0, 40.0, 30.0, 30.0 ]
                                }
                            },
                            {
                                "box": {
                                    "comment": "",
                                    "id": "obj-27",
                                    "index": 1,
                                    "maxclass": "outlet",
                                    "numinlets": 1,
                                    "numoutlets": 0,
                                    "patching_rect": [ 96.0, 382.0, 30.0, 30.0 ]
                                }
                            },
                            {
                                "box": {
                                    "comment": "",
                                    "id": "obj-28",
                                    "index": 2,
                                    "maxclass": "outlet",
                                    "numinlets": 1,
                                    "numoutlets": 0,
                                    "patching_rect": [ 213.0, 382.0, 30.0, 30.0 ]
                                }
                            }
                        ],
                        "lines": [
                            {
                                "patchline": {
                                    "destination": [ "obj-15", 1 ],
                                    "order": 1,
                                    "source": [ "obj-11", 0 ]
                                }
                            },
                            {
                                "patchline": {
                                    "destination": [ "obj-9", 0 ],
                                    "order": 0,
                                    "source": [ "obj-11", 0 ]
                                }
                            },
                            {
                                "patchline": {
                                    "destination": [ "obj-28", 0 ],
                                    "source": [ "obj-17", 0 ]
                                }
                            },
                            {
                                "patchline": {
                                    "destination": [ "obj-4", 0 ],
                                    "source": [ "obj-26", 0 ]
                                }
                            },
                            {
                                "patchline": {
                                    "destination": [ "obj-6", 0 ],
                                    "order": 0,
                                    "source": [ "obj-4", 0 ]
                                }
                            },
                            {
                                "patchline": {
                                    "destination": [ "obj-7", 0 ],
                                    "order": 1,
                                    "source": [ "obj-4", 0 ]
                                }
                            },
                            {
                                "patchline": {
                                    "destination": [ "obj-7", 1 ],
                                    "source": [ "obj-6", 0 ]
                                }
                            },
                            {
                                "patchline": {
                                    "destination": [ "obj-11", 0 ],
                                    "order": 0,
                                    "source": [ "obj-7", 0 ]
                                }
                            },
                            {
                                "patchline": {
                                    "destination": [ "obj-13", 0 ],
                                    "order": 3,
                                    "source": [ "obj-7", 0 ]
                                }
                            },
                            {
                                "patchline": {
                                    "destination": [ "obj-16", 1 ],
                                    "order": 2,
                                    "source": [ "obj-7", 0 ]
                                }
                            },
                            {
                                "patchline": {
                                    "destination": [ "obj-27", 0 ],
                                    "order": 1,
                                    "source": [ "obj-7", 0 ]
                                }
                            },
                            {
                                "patchline": {
                                    "destination": [ "obj-17", 0 ],
                                    "source": [ "obj-9", 0 ]
                                }
                            }
                        ],
                        "patchlinecolor": [ 0.309803921568627, 0.309803921568627, 0.309803921568627, 1.0 ],
                        "bgcolor": [ 0.647058823529412, 0.647058823529412, 0.647058823529412, 1.0 ],
                        "editing_bgcolor": [ 0.647058823529412, 0.647058823529412, 0.647058823529412, 1.0 ]
                    },
                    "patching_rect": [ 46.0, 335.0, 91.0, 22.0 ],
                    "saved_object_attributes": {
                        "editing_bgcolor": [ 0.647058823529412, 0.647058823529412, 0.647058823529412, 1.0 ],
                        "locked_bgcolor": [ 0.647058823529412, 0.647058823529412, 0.647058823529412, 1.0 ],
                        "patchlinecolor": [ 0.309803921568627, 0.309803921568627, 0.309803921568627, 1.0 ]
                    },
                    "text": "p force-aspect?"
                }
            },
            {
                "box": {
                    "id": "obj-8",
                    "maxclass": "newobj",
                    "numinlets": 2,
                    "numoutlets": 1,
                    "outlettype": [ "" ],
                    "patching_rect": [ 28.0, 292.0, 47.0, 22.0 ],
                    "text": "qlim 50"
                }
            },
            {
                "box": {
                    "fontface": 0,
                    "fontname": "Arial",
                    "fontsize": 12.0,
                    "id": "obj-2",
                    "maxclass": "jit.fpsgui",
                    "numinlets": 1,
                    "numoutlets": 2,
                    "outlettype": [ "", "" ],
                    "patching_rect": [ 298.0, 409.0, 80.0, 35.0 ]
                }
            },
            {
                "box": {
                    "id": "obj-10",
                    "maxclass": "newobj",
                    "numinlets": 0,
                    "numoutlets": 1,
                    "outlettype": [ "" ],
                    "patcher": {
                        "fileversion": 1,
                        "appversion": {
                            "major": 9,
                            "minor": 1,
                            "revision": 4,
                            "architecture": "x64",
                            "modernui": 1
                        },
                        "classnamespace": "box",
                        "rect": [ 0.0, 0.0, 640.0, 480.0 ],
                        "boxes": [
                            {
                                "box": {
                                    "id": "obj-26",
                                    "maxclass": "newobj",
                                    "numinlets": 1,
                                    "numoutlets": 1,
                                    "outlettype": [ "" ],
                                    "patching_rect": [ 50.0, 156.0, 54.0, 22.0 ],
                                    "text": "deferlow"
                                }
                            },
                            {
                                "box": {
                                    "id": "obj-16",
                                    "maxclass": "newobj",
                                    "numinlets": 2,
                                    "numoutlets": 2,
                                    "outlettype": [ "bang", "" ],
                                    "patching_rect": [ 50.0, 129.0, 41.0, 22.0 ],
                                    "text": "sel 27"
                                }
                            },
                            {
                                "box": {
                                    "id": "obj-12",
                                    "maxclass": "newobj",
                                    "numinlets": 0,
                                    "numoutlets": 4,
                                    "outlettype": [ "int", "int", "int", "int" ],
                                    "patching_rect": [ 50.0, 100.0, 50.5, 22.0 ],
                                    "text": "key"
                                }
                            },
                            {
                                "box": {
                                    "comment": "",
                                    "id": "obj-9",
                                    "index": 1,
                                    "maxclass": "outlet",
                                    "numinlets": 1,
                                    "numoutlets": 0,
                                    "patching_rect": [ 50.0, 238.0, 30.0, 30.0 ]
                                }
                            }
                        ],
                        "lines": [
                            {
                                "patchline": {
                                    "destination": [ "obj-16", 0 ],
                                    "source": [ "obj-12", 0 ]
                                }
                            },
                            {
                                "patchline": {
                                    "destination": [ "obj-26", 0 ],
                                    "source": [ "obj-16", 0 ]
                                }
                            },
                            {
                                "patchline": {
                                    "destination": [ "obj-9", 0 ],
                                    "source": [ "obj-26", 0 ]
                                }
                            }
                        ],
                        "patchlinecolor": [ 0.309803921568627, 0.309803921568627, 0.309803921568627, 1.0 ],
                        "bgcolor": [ 0.647058823529412, 0.647058823529412, 0.647058823529412, 1.0 ],
                        "editing_bgcolor": [ 0.647058823529412, 0.647058823529412, 0.647058823529412, 1.0 ]
                    },
                    "patching_rect": [ 28.0, 173.0, 37.0, 22.0 ],
                    "saved_object_attributes": {
                        "editing_bgcolor": [ 0.647058823529412, 0.647058823529412, 0.647058823529412, 1.0 ],
                        "locked_bgcolor": [ 0.647058823529412, 0.647058823529412, 0.647058823529412, 1.0 ],
                        "patchlinecolor": [ 0.309803921568627, 0.309803921568627, 0.309803921568627, 1.0 ]
                    },
                    "text": "p esc"
                }
            },
            {
                "box": {
                    "id": "obj-18",
                    "maxclass": "button",
                    "numinlets": 1,
                    "numoutlets": 1,
                    "outlettype": [ "bang" ],
                    "parameter_enable": 0,
                    "patching_rect": [ 28.0, 199.0, 24.0, 24.0 ]
                }
            },
            {
                "box": {
                    "id": "obj-19",
                    "maxclass": "newobj",
                    "numinlets": 1,
                    "numoutlets": 0,
                    "patching_rect": [ 630.0, 409.0, 138.0, 22.0 ],
                    "text": "bo.jit.window.processing"
                }
            },
            {
                "box": {
                    "id": "obj-54",
                    "maxclass": "newobj",
                    "numinlets": 1,
                    "numoutlets": 0,
                    "patching_rect": [ 395.0, 409.0, 74.0, 22.0 ],
                    "text": "s ---world.ck"
                }
            },
            {
                "box": {
                    "id": "obj-24",
                    "maxclass": "newobj",
                    "numinlets": 1,
                    "numoutlets": 0,
                    "patching_rect": [ 28.0, 371.0, 91.0, 22.0 ],
                    "text": "s ---windowsize"
                }
            },
            {
                "box": {
                    "id": "obj-56",
                    "maxclass": "newobj",
                    "numinlets": 1,
                    "numoutlets": 3,
                    "outlettype": [ "", "", "" ],
                    "patching_rect": [ 28.0, 232.0, 67.0, 22.0 ],
                    "text": "getattr size"
                }
            },
            {
                "box": {
                    "id": "obj-90",
                    "maxclass": "newobj",
                    "numinlets": 1,
                    "numoutlets": 3,
                    "outlettype": [ "jit_matrix", "bang", "" ],
                    "patching_rect": [ 159.0, 371.0, 490.0, 22.0 ],
                    "text": "jit.world ---BrainViz @fps 0.1 @erase_color 0 0 0 1 @visible 0 @sync 0 @esc_fullscreen 0"
                }
            },
            {
                "box": {
                    "comment": "",
                    "id": "obj-55",
                    "index": 0,
                    "maxclass": "inlet",
                    "numinlets": 0,
                    "numoutlets": 1,
                    "outlettype": [ "" ],
                    "patching_rect": [ 107.0, 81.0, 30.0, 30.0 ]
                }
            },
            {
                "box": {
                    "attr": "fsaa",
                    "id": "obj-1",
                    "maxclass": "attrui",
                    "numinlets": 1,
                    "numoutlets": 1,
                    "outlettype": [ "" ],
                    "parameter_enable": 0,
                    "patching_rect": [ 278.0, 317.0, 79.0, 22.0 ],
                    "text_width": 48.0
                }
            },
            {
                "box": {
                    "attr": "fps",
                    "id": "obj-4",
                    "maxclass": "attrui",
                    "numinlets": 1,
                    "numoutlets": 1,
                    "outlettype": [ "" ],
                    "parameter_enable": 0,
                    "patching_rect": [ 282.0, 271.0, 150.0, 22.0 ]
                }
            },
            {
                "box": {
                    "attr": "enable",
                    "id": "obj-6",
                    "maxclass": "attrui",
                    "numinlets": 1,
                    "numoutlets": 1,
                    "outlettype": [ "" ],
                    "parameter_enable": 0,
                    "patching_rect": [ 282.0, 173.0, 150.0, 22.0 ]
                }
            },
            {
                "box": {
                    "attr": "erase_color",
                    "id": "obj-20",
                    "maxclass": "attrui",
                    "numinlets": 1,
                    "numoutlets": 1,
                    "outlettype": [ "" ],
                    "parameter_enable": 0,
                    "patching_rect": [ 461.0, 341.0, 150.0, 22.0 ]
                }
            }
        ],
        "lines": [
            {
                "patchline": {
                    "destination": [ "obj-90", 0 ],
                    "source": [ "obj-1", 0 ]
                }
            },
            {
                "patchline": {
                    "destination": [ "obj-18", 0 ],
                    "source": [ "obj-10", 0 ]
                }
            },
            {
                "patchline": {
                    "destination": [ "obj-17", 0 ],
                    "source": [ "obj-11", 0 ]
                }
            },
            {
                "patchline": {
                    "destination": [ "obj-21", 0 ],
                    "source": [ "obj-11", 3 ]
                }
            },
            {
                "patchline": {
                    "destination": [ "obj-7", 0 ],
                    "source": [ "obj-11", 1 ]
                }
            },
            {
                "patchline": {
                    "destination": [ "obj-90", 0 ],
                    "source": [ "obj-11", 2 ]
                }
            },
            {
                "patchline": {
                    "destination": [ "obj-90", 0 ],
                    "source": [ "obj-12", 0 ]
                }
            },
            {
                "patchline": {
                    "destination": [ "obj-17", 0 ],
                    "source": [ "obj-13", 0 ]
                }
            },
            {
                "patchline": {
                    "destination": [ "obj-25", 0 ],
                    "order": 0,
                    "source": [ "obj-14", 0 ]
                }
            },
            {
                "patchline": {
                    "destination": [ "obj-81", 0 ],
                    "order": 1,
                    "source": [ "obj-14", 0 ]
                }
            },
            {
                "patchline": {
                    "destination": [ "obj-31", 0 ],
                    "source": [ "obj-15", 0 ]
                }
            },
            {
                "patchline": {
                    "destination": [ "obj-90", 0 ],
                    "source": [ "obj-16", 0 ]
                }
            },
            {
                "patchline": {
                    "destination": [ "obj-16", 0 ],
                    "source": [ "obj-17", 0 ]
                }
            },
            {
                "patchline": {
                    "destination": [ "obj-56", 0 ],
                    "source": [ "obj-18", 0 ]
                }
            },
            {
                "patchline": {
                    "destination": [ "obj-90", 0 ],
                    "source": [ "obj-20", 0 ]
                }
            },
            {
                "patchline": {
                    "destination": [ "obj-90", 0 ],
                    "source": [ "obj-21", 0 ]
                }
            },
            {
                "patchline": {
                    "destination": [ "obj-31", 0 ],
                    "source": [ "obj-26", 0 ]
                }
            },
            {
                "patchline": {
                    "destination": [ "obj-31", 0 ],
                    "source": [ "obj-28", 0 ]
                }
            },
            {
                "patchline": {
                    "destination": [ "obj-24", 0 ],
                    "source": [ "obj-29", 0 ]
                }
            },
            {
                "patchline": {
                    "destination": [ "obj-90", 0 ],
                    "source": [ "obj-29", 1 ]
                }
            },
            {
                "patchline": {
                    "destination": [ "obj-90", 0 ],
                    "source": [ "obj-3", 0 ]
                }
            },
            {
                "patchline": {
                    "destination": [ "obj-31", 0 ],
                    "source": [ "obj-30", 0 ]
                }
            },
            {
                "patchline": {
                    "destination": [ "obj-31", 0 ],
                    "source": [ "obj-32", 0 ]
                }
            },
            {
                "patchline": {
                    "destination": [ "obj-31", 0 ],
                    "source": [ "obj-33", 0 ]
                }
            },
            {
                "patchline": {
                    "destination": [ "obj-31", 0 ],
                    "source": [ "obj-34", 0 ]
                }
            },
            {
                "patchline": {
                    "destination": [ "obj-90", 0 ],
                    "source": [ "obj-4", 0 ]
                }
            },
            {
                "patchline": {
                    "destination": [ "obj-31", 0 ],
                    "source": [ "obj-5", 0 ]
                }
            },
            {
                "patchline": {
                    "destination": [ "obj-11", 0 ],
                    "order": 0,
                    "source": [ "obj-55", 0 ]
                }
            },
            {
                "patchline": {
                    "destination": [ "obj-14", 0 ],
                    "order": 1,
                    "source": [ "obj-55", 0 ]
                }
            },
            {
                "patchline": {
                    "destination": [ "obj-8", 0 ],
                    "source": [ "obj-56", 0 ]
                }
            },
            {
                "patchline": {
                    "destination": [ "obj-90", 0 ],
                    "source": [ "obj-56", 1 ]
                }
            },
            {
                "patchline": {
                    "destination": [ "obj-62", 0 ],
                    "order": 0,
                    "source": [ "obj-57", 0 ]
                }
            },
            {
                "patchline": {
                    "destination": [ "obj-9", 0 ],
                    "order": 1,
                    "source": [ "obj-57", 0 ]
                }
            },
            {
                "patchline": {
                    "destination": [ "obj-90", 0 ],
                    "source": [ "obj-6", 0 ]
                }
            },
            {
                "patchline": {
                    "destination": [ "obj-90", 0 ],
                    "source": [ "obj-62", 0 ]
                }
            },
            {
                "patchline": {
                    "destination": [ "obj-79", 0 ],
                    "source": [ "obj-67", 0 ]
                }
            },
            {
                "patchline": {
                    "destination": [ "obj-67", 0 ],
                    "source": [ "obj-79", 0 ]
                }
            },
            {
                "patchline": {
                    "destination": [ "obj-24", 0 ],
                    "source": [ "obj-8", 0 ]
                }
            },
            {
                "patchline": {
                    "destination": [ "obj-14", 0 ],
                    "source": [ "obj-81", 0 ]
                }
            },
            {
                "patchline": {
                    "destination": [ "obj-57", 0 ],
                    "source": [ "obj-9", 0 ]
                }
            },
            {
                "patchline": {
                    "destination": [ "obj-19", 0 ],
                    "source": [ "obj-90", 2 ]
                }
            },
            {
                "patchline": {
                    "destination": [ "obj-2", 0 ],
                    "order": 1,
                    "source": [ "obj-90", 1 ]
                }
            },
            {
                "patchline": {
                    "destination": [ "obj-54", 0 ],
                    "order": 0,
                    "source": [ "obj-90", 1 ]
                }
            }
        ],
        "autosave": 0
    }
}