{
    "patcher": {
        "fileversion": 1,
        "appversion": {
            "major": 9,
            "minor": 2,
            "revision": 0,
            "architecture": "x64",
            "modernui": 1
        },
        "classnamespace": "box",
        "rect": [ 550.0, -956.0, 950.0, 864.0 ],
        "boxes": [
            {
                "box": {
                    "id": "obj-61",
                    "maxclass": "newobj",
                    "numinlets": 2,
                    "numoutlets": 0,
                    "patcher": {
                        "fileversion": 1,
                        "appversion": {
                            "major": 9,
                            "minor": 2,
                            "revision": 0,
                            "architecture": "x64",
                            "modernui": 1
                        },
                        "classnamespace": "box",
                        "rect": [ 59.0, 119.0, 733.0, 512.0 ],
                        "boxes": [
                            {
                                "box": {
                                    "id": "obj-54",
                                    "maxclass": "newobj",
                                    "numinlets": 1,
                                    "numoutlets": 4,
                                    "outlettype": [ "", "", "", "" ],
                                    "patching_rect": [ 500.0, 275.0, 53.0, 22.0 ],
                                    "saved_object_attributes": {
                                        "embed": 0,
                                        "precision": 6
                                    },
                                    "text": "coll"
                                }
                            },
                            {
                                "box": {
                                    "id": "obj-53",
                                    "linecount": 2,
                                    "maxclass": "newobj",
                                    "numinlets": 1,
                                    "numoutlets": 1,
                                    "outlettype": [ "" ],
                                    "patching_rect": [ 558.0, 206.0, 56.0, 35.0 ],
                                    "text": "prepend set"
                                }
                            },
                            {
                                "box": {
                                    "id": "obj-52",
                                    "maxclass": "newobj",
                                    "numinlets": 1,
                                    "numoutlets": 1,
                                    "outlettype": [ "" ],
                                    "patching_rect": [ 489.0, 241.0, 53.0, 22.0 ],
                                    "text": "prepend"
                                }
                            },
                            {
                                "box": {
                                    "id": "obj-51",
                                    "maxclass": "comment",
                                    "numinlets": 1,
                                    "numoutlets": 0,
                                    "patching_rect": [ 548.0, 159.0, 150.0, 20.0 ],
                                    "text": "remove empty chars"
                                }
                            },
                            {
                                "box": {
                                    "id": "obj-45",
                                    "maxclass": "newobj",
                                    "numinlets": 2,
                                    "numoutlets": 2,
                                    "outlettype": [ "", "" ],
                                    "patching_rect": [ 489.0, 158.0, 53.0, 22.0 ],
                                    "text": "zl.filter 0"
                                }
                            },
                            {
                                "box": {
                                    "id": "obj-44",
                                    "maxclass": "newobj",
                                    "numinlets": 3,
                                    "numoutlets": 1,
                                    "outlettype": [ "int" ],
                                    "patching_rect": [ 489.0, 197.0, 40.0, 22.0 ],
                                    "text": "itoa"
                                }
                            },
                            {
                                "box": {
                                    "id": "obj-42",
                                    "maxclass": "newobj",
                                    "numinlets": 2,
                                    "numoutlets": 2,
                                    "outlettype": [ "", "" ],
                                    "patching_rect": [ 489.0, 126.0, 75.0, 22.0 ],
                                    "text": "zl.group 128"
                                }
                            },
                            {
                                "box": {
                                    "id": "obj-39",
                                    "maxclass": "newobj",
                                    "numinlets": 1,
                                    "numoutlets": 0,
                                    "patching_rect": [ 437.0, 320.0, 127.0, 22.0 ],
                                    "text": "print"
                                }
                            },
                            {
                                "box": {
                                    "id": "obj-32",
                                    "maxclass": "newobj",
                                    "numinlets": 1,
                                    "numoutlets": 3,
                                    "outlettype": [ "", "", "" ],
                                    "patching_rect": [ 489.0, 93.0, 127.0, 22.0 ],
                                    "text": "jit.iter"
                                }
                            },
                            {
                                "box": {
                                    "comment": "",
                                    "id": "obj-24",
                                    "index": 2,
                                    "maxclass": "inlet",
                                    "numinlets": 0,
                                    "numoutlets": 1,
                                    "outlettype": [ "" ],
                                    "patching_rect": [ 489.0, 33.0, 30.0, 30.0 ]
                                }
                            },
                            {
                                "box": {
                                    "id": "obj-23",
                                    "maxclass": "newobj",
                                    "numinlets": 1,
                                    "numoutlets": 4,
                                    "outlettype": [ "", "", "", "" ],
                                    "patching_rect": [ 253.0, 102.0, 55.0, 22.0 ],
                                    "saved_object_attributes": {
                                        "embed": 0,
                                        "precision": 6
                                    },
                                    "text": "coll atlas"
                                }
                            },
                            {
                                "box": {
                                    "id": "obj-22",
                                    "maxclass": "newobj",
                                    "numinlets": 3,
                                    "numoutlets": 1,
                                    "outlettype": [ "" ],
                                    "patching_rect": [ 224.0, 255.0, 100.0, 22.0 ],
                                    "text": "pak offset 0 0"
                                }
                            },
                            {
                                "box": {
                                    "id": "obj-21",
                                    "maxclass": "newobj",
                                    "numinlets": 1,
                                    "numoutlets": 1,
                                    "outlettype": [ "" ],
                                    "patching_rect": [ 329.0, 299.0, 72.0, 22.0 ],
                                    "text": "prepend set"
                                }
                            },
                            {
                                "box": {
                                    "id": "obj-18",
                                    "maxclass": "newobj",
                                    "numinlets": 2,
                                    "numoutlets": 3,
                                    "outlettype": [ "bang", "bang", "int" ],
                                    "patching_rect": [ 91.0, 201.0, 257.0, 22.0 ],
                                    "text": "uzi 0 0"
                                }
                            },
                            {
                                "box": {
                                    "id": "obj-17",
                                    "maxclass": "newobj",
                                    "numinlets": 2,
                                    "numoutlets": 2,
                                    "outlettype": [ "", "" ],
                                    "patching_rect": [ 91.0, 168.0, 47.0, 22.0 ],
                                    "text": "zl.nth 2"
                                }
                            },
                            {
                                "box": {
                                    "id": "obj-13",
                                    "maxclass": "newobj",
                                    "numinlets": 2,
                                    "numoutlets": 2,
                                    "outlettype": [ "", "" ],
                                    "patching_rect": [ 91.0, 233.0, 100.0, 22.0 ],
                                    "text": "zl.reg"
                                }
                            },
                            {
                                "box": {
                                    "id": "obj-12",
                                    "maxclass": "newobj",
                                    "numinlets": 1,
                                    "numoutlets": 3,
                                    "outlettype": [ "", "", "clear" ],
                                    "patching_rect": [ 91.0, 69.0, 181.0, 22.0 ],
                                    "text": "t l l clear"
                                }
                            },
                            {
                                "box": {
                                    "id": "obj-11",
                                    "maxclass": "newobj",
                                    "numinlets": 2,
                                    "numoutlets": 2,
                                    "outlettype": [ "", "" ],
                                    "patching_rect": [ 91.0, 135.0, 59.0, 22.0 ],
                                    "text": "route dim"
                                }
                            },
                            {
                                "box": {
                                    "id": "obj-10",
                                    "maxclass": "newobj",
                                    "numinlets": 1,
                                    "numoutlets": 1,
                                    "outlettype": [ "" ],
                                    "patching_rect": [ 91.0, 102.0, 73.0, 22.0 ],
                                    "text": "jit.matrixinfo"
                                }
                            },
                            {
                                "box": {
                                    "id": "obj-6",
                                    "maxclass": "newobj",
                                    "numinlets": 1,
                                    "numoutlets": 1,
                                    "outlettype": [ "" ],
                                    "patching_rect": [ 91.0, 430.0, 53.0, 22.0 ],
                                    "text": "prepend"
                                }
                            },
                            {
                                "box": {
                                    "id": "obj-7",
                                    "maxclass": "newobj",
                                    "numinlets": 3,
                                    "numoutlets": 1,
                                    "outlettype": [ "int" ],
                                    "patching_rect": [ 91.0, 398.0, 40.0, 22.0 ],
                                    "text": "itoa"
                                }
                            },
                            {
                                "box": {
                                    "id": "obj-8",
                                    "maxclass": "newobj",
                                    "numinlets": 1,
                                    "numoutlets": 4,
                                    "outlettype": [ "", "", "", "" ],
                                    "patching_rect": [ 91.0, 463.0, 55.0, 22.0 ],
                                    "saved_object_attributes": {
                                        "embed": 0,
                                        "precision": 6
                                    },
                                    "text": "coll atlas"
                                }
                            },
                            {
                                "box": {
                                    "id": "obj-5",
                                    "maxclass": "newobj",
                                    "numinlets": 2,
                                    "numoutlets": 2,
                                    "outlettype": [ "", "" ],
                                    "patching_rect": [ 91.0, 365.0, 53.0, 22.0 ],
                                    "text": "zl.filter 0"
                                }
                            },
                            {
                                "box": {
                                    "id": "obj-4",
                                    "maxclass": "newobj",
                                    "numinlets": 1,
                                    "numoutlets": 2,
                                    "outlettype": [ "", "" ],
                                    "patching_rect": [ 91.0, 332.0, 127.0, 22.0 ],
                                    "text": "jit.spill @listlength 128"
                                }
                            },
                            {
                                "box": {
                                    "id": "obj-1",
                                    "maxclass": "newobj",
                                    "numinlets": 1,
                                    "numoutlets": 2,
                                    "outlettype": [ "jit_matrix", "" ],
                                    "patching_rect": [ 91.0, 299.0, 205.0, 22.0 ],
                                    "text": "jit.submatrix @dim 128 1 @offset 0 0"
                                }
                            },
                            {
                                "box": {
                                    "comment": "",
                                    "id": "obj-55",
                                    "index": 1,
                                    "maxclass": "inlet",
                                    "numinlets": 0,
                                    "numoutlets": 1,
                                    "outlettype": [ "jit_matrix" ],
                                    "patching_rect": [ 91.0, 20.0, 30.0, 30.0 ]
                                }
                            }
                        ],
                        "lines": [
                            {
                                "patchline": {
                                    "destination": [ "obj-4", 0 ],
                                    "source": [ "obj-1", 0 ]
                                }
                            },
                            {
                                "patchline": {
                                    "destination": [ "obj-11", 0 ],
                                    "source": [ "obj-10", 0 ]
                                }
                            },
                            {
                                "patchline": {
                                    "destination": [ "obj-17", 0 ],
                                    "source": [ "obj-11", 0 ]
                                }
                            },
                            {
                                "patchline": {
                                    "destination": [ "obj-10", 0 ],
                                    "source": [ "obj-12", 0 ]
                                }
                            },
                            {
                                "patchline": {
                                    "destination": [ "obj-13", 1 ],
                                    "source": [ "obj-12", 1 ]
                                }
                            },
                            {
                                "patchline": {
                                    "destination": [ "obj-23", 0 ],
                                    "source": [ "obj-12", 2 ]
                                }
                            },
                            {
                                "patchline": {
                                    "destination": [ "obj-1", 0 ],
                                    "source": [ "obj-13", 0 ]
                                }
                            },
                            {
                                "patchline": {
                                    "destination": [ "obj-18", 0 ],
                                    "source": [ "obj-17", 0 ]
                                }
                            },
                            {
                                "patchline": {
                                    "destination": [ "obj-13", 0 ],
                                    "source": [ "obj-18", 0 ]
                                }
                            },
                            {
                                "patchline": {
                                    "destination": [ "obj-21", 0 ],
                                    "order": 0,
                                    "source": [ "obj-18", 2 ]
                                }
                            },
                            {
                                "patchline": {
                                    "destination": [ "obj-22", 2 ],
                                    "order": 1,
                                    "source": [ "obj-18", 2 ]
                                }
                            },
                            {
                                "patchline": {
                                    "destination": [ "obj-6", 0 ],
                                    "midpoints": [ 338.5, 425.4296875, 100.5, 425.4296875 ],
                                    "source": [ "obj-21", 0 ]
                                }
                            },
                            {
                                "patchline": {
                                    "destination": [ "obj-1", 0 ],
                                    "source": [ "obj-22", 0 ]
                                }
                            },
                            {
                                "patchline": {
                                    "destination": [ "obj-32", 0 ],
                                    "source": [ "obj-24", 0 ]
                                }
                            },
                            {
                                "patchline": {
                                    "destination": [ "obj-42", 0 ],
                                    "source": [ "obj-32", 0 ]
                                }
                            },
                            {
                                "patchline": {
                                    "destination": [ "obj-53", 0 ],
                                    "source": [ "obj-32", 1 ]
                                }
                            },
                            {
                                "patchline": {
                                    "destination": [ "obj-5", 0 ],
                                    "source": [ "obj-4", 0 ]
                                }
                            },
                            {
                                "patchline": {
                                    "destination": [ "obj-45", 0 ],
                                    "source": [ "obj-42", 0 ]
                                }
                            },
                            {
                                "patchline": {
                                    "destination": [ "obj-52", 0 ],
                                    "source": [ "obj-44", 0 ]
                                }
                            },
                            {
                                "patchline": {
                                    "destination": [ "obj-44", 0 ],
                                    "source": [ "obj-45", 0 ]
                                }
                            },
                            {
                                "patchline": {
                                    "destination": [ "obj-7", 0 ],
                                    "source": [ "obj-5", 0 ]
                                }
                            },
                            {
                                "patchline": {
                                    "destination": [ "obj-39", 0 ],
                                    "order": 1,
                                    "source": [ "obj-52", 0 ]
                                }
                            },
                            {
                                "patchline": {
                                    "destination": [ "obj-54", 0 ],
                                    "order": 0,
                                    "source": [ "obj-52", 0 ]
                                }
                            },
                            {
                                "patchline": {
                                    "destination": [ "obj-52", 0 ],
                                    "source": [ "obj-53", 0 ]
                                }
                            },
                            {
                                "patchline": {
                                    "destination": [ "obj-12", 0 ],
                                    "source": [ "obj-55", 0 ]
                                }
                            },
                            {
                                "patchline": {
                                    "destination": [ "obj-8", 0 ],
                                    "source": [ "obj-6", 0 ]
                                }
                            },
                            {
                                "patchline": {
                                    "destination": [ "obj-6", 0 ],
                                    "source": [ "obj-7", 0 ]
                                }
                            }
                        ]
                    },
                    "patching_rect": [ 282.0, 559.0, 81.0, 22.0 ],
                    "text": "p fill-atlas coll"
                }
            },
            {
                "box": {
                    "id": "obj-59",
                    "maxclass": "newobj",
                    "numinlets": 1,
                    "numoutlets": 4,
                    "outlettype": [ "", "", "", "" ],
                    "patching_rect": [ 374.0, 559.0, 55.0, 22.0 ],
                    "saved_object_attributes": {
                        "embed": 0,
                        "precision": 6
                    },
                    "text": "coll atlas"
                }
            },
            {
                "box": {
                    "id": "obj-23",
                    "maxclass": "button",
                    "numinlets": 1,
                    "numoutlets": 1,
                    "outlettype": [ "bang" ],
                    "parameter_enable": 0,
                    "patching_rect": [ 252.0, 487.0, 24.0, 24.0 ]
                }
            },
            {
                "box": {
                    "fontface": 0,
                    "fontname": "Arial",
                    "fontsize": 13.0,
                    "id": "obj-24",
                    "maxclass": "jit.fpsgui",
                    "mode": 3,
                    "numinlets": 1,
                    "numoutlets": 2,
                    "outlettype": [ "", "" ],
                    "patching_rect": [ 446.0, 519.0, 117.0, 36.0 ]
                }
            },
            {
                "box": {
                    "fontface": 0,
                    "fontname": "Arial",
                    "fontsize": 13.0,
                    "id": "obj-25",
                    "maxclass": "jit.fpsgui",
                    "mode": 2,
                    "numinlets": 1,
                    "numoutlets": 2,
                    "outlettype": [ "", "" ],
                    "patching_rect": [ 363.0, 519.0, 80.0, 36.0 ]
                }
            },
            {
                "box": {
                    "fontface": 0,
                    "fontname": "Arial",
                    "fontsize": 13.0,
                    "id": "obj-26",
                    "maxclass": "jit.fpsgui",
                    "mode": 4,
                    "numinlets": 1,
                    "numoutlets": 2,
                    "outlettype": [ "", "" ],
                    "patching_rect": [ 282.0, 519.0, 80.0, 36.0 ]
                }
            },
            {
                "box": {
                    "id": "obj-27",
                    "maxclass": "newobj",
                    "numinlets": 1,
                    "numoutlets": 2,
                    "outlettype": [ "jit_matrix", "" ],
                    "patching_rect": [ 282.0, 484.0, 216.0, 22.0 ],
                    "text": "jit.matrix atlas 1 char 1 1 @adapt 1"
                }
            },
            {
                "box": {
                    "id": "obj-22",
                    "maxclass": "button",
                    "numinlets": 1,
                    "numoutlets": 1,
                    "outlettype": [ "bang" ],
                    "parameter_enable": 0,
                    "patching_rect": [ 560.5, 124.0, 24.0, 24.0 ]
                }
            },
            {
                "box": {
                    "id": "obj-18",
                    "maxclass": "newobj",
                    "numinlets": 2,
                    "numoutlets": 2,
                    "outlettype": [ "", "" ],
                    "patching_rect": [ 560.5, 94.0, 143.0, 22.0 ],
                    "text": "route /TBO/areYouReady"
                }
            },
            {
                "box": {
                    "id": "obj-17",
                    "maxclass": "newobj",
                    "numinlets": 1,
                    "numoutlets": 0,
                    "patching_rect": [ 598.0, 67.0, 165.0, 22.0 ],
                    "text": "print UDPreceived @popup 1"
                }
            },
            {
                "box": {
                    "id": "obj-13",
                    "maxclass": "newobj",
                    "numinlets": 1,
                    "numoutlets": 1,
                    "outlettype": [ "" ],
                    "patching_rect": [ 560.5, 35.0, 100.0, 22.0 ],
                    "text": "udpreceive 8000"
                }
            },
            {
                "box": {
                    "id": "obj-16",
                    "maxclass": "message",
                    "numinlets": 2,
                    "numoutlets": 1,
                    "outlettype": [ "" ],
                    "patching_rect": [ 408.0, 67.0, 83.0, 22.0 ],
                    "text": "/TBO/isReady"
                }
            },
            {
                "box": {
                    "id": "obj-11",
                    "maxclass": "newobj",
                    "numinlets": 1,
                    "numoutlets": 1,
                    "outlettype": [ "bang" ],
                    "patching_rect": [ 408.0, 35.0, 58.0, 22.0 ],
                    "text": "loadbang"
                }
            },
            {
                "box": {
                    "id": "obj-8",
                    "maxclass": "newobj",
                    "numinlets": 1,
                    "numoutlets": 0,
                    "patching_rect": [ 408.0, 119.0, 138.0, 22.0 ],
                    "text": "udpsend 127.0.0.1 9000"
                }
            },
            {
                "box": {
                    "id": "obj-10",
                    "maxclass": "button",
                    "numinlets": 1,
                    "numoutlets": 1,
                    "outlettype": [ "bang" ],
                    "parameter_enable": 0,
                    "patching_rect": [ 55.0, 487.0, 24.0, 24.0 ]
                }
            },
            {
                "box": {
                    "fontface": 0,
                    "fontname": "Arial",
                    "fontsize": 13.0,
                    "id": "obj-76",
                    "maxclass": "jit.fpsgui",
                    "mode": 3,
                    "numinlets": 1,
                    "numoutlets": 2,
                    "outlettype": [ "", "" ],
                    "patching_rect": [ 245.0, 804.0, 117.0, 36.0 ]
                }
            },
            {
                "box": {
                    "fontface": 0,
                    "fontname": "Arial",
                    "fontsize": 13.0,
                    "id": "obj-77",
                    "maxclass": "jit.fpsgui",
                    "mode": 2,
                    "numinlets": 1,
                    "numoutlets": 2,
                    "outlettype": [ "", "" ],
                    "patching_rect": [ 162.0, 804.0, 80.0, 36.0 ]
                }
            },
            {
                "box": {
                    "fontface": 0,
                    "fontname": "Arial",
                    "fontsize": 13.0,
                    "id": "obj-78",
                    "maxclass": "jit.fpsgui",
                    "mode": 4,
                    "numinlets": 1,
                    "numoutlets": 2,
                    "outlettype": [ "", "" ],
                    "patching_rect": [ 81.0, 804.0, 80.0, 36.0 ]
                }
            },
            {
                "box": {
                    "id": "obj-79",
                    "maxclass": "newobj",
                    "numinlets": 1,
                    "numoutlets": 2,
                    "outlettype": [ "jit_matrix", "" ],
                    "patching_rect": [ 81.0, 769.0, 225.0, 22.0 ],
                    "text": "jit.matrix dataMatrix 1 char 1 1 @adapt 1"
                }
            },
            {
                "box": {
                    "id": "obj-75",
                    "maxclass": "newobj",
                    "numinlets": 1,
                    "numoutlets": 2,
                    "outlettype": [ "", "" ],
                    "patcher": {
                        "fileversion": 1,
                        "appversion": {
                            "major": 9,
                            "minor": 2,
                            "revision": 0,
                            "architecture": "x64",
                            "modernui": 1
                        },
                        "classnamespace": "box",
                        "rect": [ 59.0, 119.0, 375.0, 431.0 ],
                        "boxes": [
                            {
                                "box": {
                                    "id": "obj-3",
                                    "linecount": 5,
                                    "maxclass": "comment",
                                    "numinlets": 1,
                                    "numoutlets": 0,
                                    "patching_rect": [ 104.0, 23.0, 205.0, 74.0 ],
                                    "text": "Matrix router\nIf we receive a 1x1 matrix, we'll consider its value as a routing index, to dispatch the various incoming matrices to their relevant destination."
                                }
                            },
                            {
                                "box": {
                                    "id": "obj-2",
                                    "maxclass": "number",
                                    "numinlets": 1,
                                    "numoutlets": 2,
                                    "outlettype": [ "", "bang" ],
                                    "parameter_enable": 0,
                                    "patching_rect": [ 22.0, 279.0, 50.0, 22.0 ]
                                }
                            },
                            {
                                "box": {
                                    "id": "obj-70",
                                    "maxclass": "newobj",
                                    "numinlets": 1,
                                    "numoutlets": 2,
                                    "outlettype": [ "", "" ],
                                    "patching_rect": [ 22.0, 337.0, 169.0, 22.0 ],
                                    "text": "jit.spill @plane 0 @listlength 1"
                                }
                            },
                            {
                                "box": {
                                    "id": "obj-69",
                                    "maxclass": "newobj",
                                    "numinlets": 1,
                                    "numoutlets": 2,
                                    "outlettype": [ "", "" ],
                                    "patching_rect": [ 61.0, 105.0, 69.0, 22.0 ],
                                    "text": "t l l"
                                }
                            },
                            {
                                "box": {
                                    "id": "obj-68",
                                    "maxclass": "newobj",
                                    "numinlets": 1,
                                    "numoutlets": 1,
                                    "outlettype": [ "int" ],
                                    "patching_rect": [ 154.0, 225.0, 34.0, 22.0 ],
                                    "text": "t 2"
                                }
                            },
                            {
                                "box": {
                                    "id": "obj-67",
                                    "maxclass": "newobj",
                                    "numinlets": 1,
                                    "numoutlets": 1,
                                    "outlettype": [ "int" ],
                                    "patching_rect": [ 111.0, 225.0, 34.0, 22.0 ],
                                    "text": "t 1"
                                }
                            },
                            {
                                "box": {
                                    "id": "obj-66",
                                    "maxclass": "newobj",
                                    "numinlets": 2,
                                    "numoutlets": 2,
                                    "outlettype": [ "", "" ],
                                    "patching_rect": [ 22.0, 313.0, 59.0, 22.0 ],
                                    "text": "gate 2 1"
                                }
                            },
                            {
                                "box": {
                                    "id": "obj-65",
                                    "maxclass": "newobj",
                                    "numinlets": 2,
                                    "numoutlets": 2,
                                    "outlettype": [ "bang", "" ],
                                    "patching_rect": [ 111.0, 197.0, 62.0, 22.0 ],
                                    "text": "sel 1"
                                }
                            },
                            {
                                "box": {
                                    "id": "obj-64",
                                    "maxclass": "newobj",
                                    "numinlets": 2,
                                    "numoutlets": 2,
                                    "outlettype": [ "", "" ],
                                    "patching_rect": [ 111.0, 168.0, 59.0, 22.0 ],
                                    "text": "route dim"
                                }
                            },
                            {
                                "box": {
                                    "id": "obj-63",
                                    "maxclass": "newobj",
                                    "numinlets": 1,
                                    "numoutlets": 1,
                                    "outlettype": [ "" ],
                                    "patching_rect": [ 111.0, 134.0, 73.0, 22.0 ],
                                    "text": "jit.matrixinfo"
                                }
                            },
                            {
                                "box": {
                                    "comment": "",
                                    "id": "obj-72",
                                    "index": 1,
                                    "maxclass": "inlet",
                                    "numinlets": 0,
                                    "numoutlets": 1,
                                    "outlettype": [ "jit_matrix" ],
                                    "patching_rect": [ 61.0, 23.0, 30.0, 30.0 ]
                                }
                            },
                            {
                                "box": {
                                    "comment": "",
                                    "id": "obj-73",
                                    "index": 1,
                                    "maxclass": "outlet",
                                    "numinlets": 1,
                                    "numoutlets": 0,
                                    "patching_rect": [ 22.0, 378.0, 30.0, 30.0 ]
                                }
                            },
                            {
                                "box": {
                                    "comment": "",
                                    "id": "obj-74",
                                    "index": 2,
                                    "maxclass": "outlet",
                                    "numinlets": 1,
                                    "numoutlets": 0,
                                    "patching_rect": [ 62.0, 378.0, 30.0, 30.0 ]
                                }
                            }
                        ],
                        "lines": [
                            {
                                "patchline": {
                                    "destination": [ "obj-66", 0 ],
                                    "source": [ "obj-2", 0 ]
                                }
                            },
                            {
                                "patchline": {
                                    "destination": [ "obj-64", 0 ],
                                    "source": [ "obj-63", 0 ]
                                }
                            },
                            {
                                "patchline": {
                                    "destination": [ "obj-65", 0 ],
                                    "source": [ "obj-64", 0 ]
                                }
                            },
                            {
                                "patchline": {
                                    "destination": [ "obj-67", 0 ],
                                    "source": [ "obj-65", 0 ]
                                }
                            },
                            {
                                "patchline": {
                                    "destination": [ "obj-68", 0 ],
                                    "source": [ "obj-65", 1 ]
                                }
                            },
                            {
                                "patchline": {
                                    "destination": [ "obj-70", 0 ],
                                    "source": [ "obj-66", 0 ]
                                }
                            },
                            {
                                "patchline": {
                                    "destination": [ "obj-74", 0 ],
                                    "source": [ "obj-66", 1 ]
                                }
                            },
                            {
                                "patchline": {
                                    "destination": [ "obj-2", 0 ],
                                    "source": [ "obj-67", 0 ]
                                }
                            },
                            {
                                "patchline": {
                                    "destination": [ "obj-2", 0 ],
                                    "source": [ "obj-68", 0 ]
                                }
                            },
                            {
                                "patchline": {
                                    "destination": [ "obj-63", 0 ],
                                    "source": [ "obj-69", 1 ]
                                }
                            },
                            {
                                "patchline": {
                                    "destination": [ "obj-66", 1 ],
                                    "source": [ "obj-69", 0 ]
                                }
                            },
                            {
                                "patchline": {
                                    "destination": [ "obj-73", 0 ],
                                    "source": [ "obj-70", 0 ]
                                }
                            },
                            {
                                "patchline": {
                                    "destination": [ "obj-69", 0 ],
                                    "source": [ "obj-72", 0 ]
                                }
                            }
                        ]
                    },
                    "patching_rect": [ 81.0, 400.0, 220.0, 22.0 ],
                    "text": "p matrix-router"
                }
            },
            {
                "box": {
                    "id": "obj-62",
                    "maxclass": "button",
                    "numinlets": 1,
                    "numoutlets": 1,
                    "outlettype": [ "bang" ],
                    "parameter_enable": 0,
                    "patching_rect": [ 190.0, 487.0, 24.0, 24.0 ]
                }
            },
            {
                "box": {
                    "id": "obj-60",
                    "maxclass": "button",
                    "numinlets": 1,
                    "numoutlets": 1,
                    "outlettype": [ "bang" ],
                    "parameter_enable": 0,
                    "patching_rect": [ 120.0, 487.0, 24.0, 24.0 ]
                }
            },
            {
                "box": {
                    "id": "obj-58",
                    "maxclass": "number",
                    "numinlets": 1,
                    "numoutlets": 2,
                    "outlettype": [ "", "bang" ],
                    "parameter_enable": 0,
                    "patching_rect": [ 81.0, 429.0, 50.0, 22.0 ]
                }
            },
            {
                "box": {
                    "fontface": 0,
                    "fontname": "Arial",
                    "fontsize": 13.0,
                    "id": "obj-43",
                    "maxclass": "jit.fpsgui",
                    "mode": 3,
                    "numinlets": 1,
                    "numoutlets": 2,
                    "outlettype": [ "", "" ],
                    "patching_rect": [ 312.0, 711.0, 117.0, 36.0 ]
                }
            },
            {
                "box": {
                    "fontface": 0,
                    "fontname": "Arial",
                    "fontsize": 13.0,
                    "id": "obj-47",
                    "maxclass": "jit.fpsgui",
                    "mode": 2,
                    "numinlets": 1,
                    "numoutlets": 2,
                    "outlettype": [ "", "" ],
                    "patching_rect": [ 229.0, 711.0, 80.0, 36.0 ]
                }
            },
            {
                "box": {
                    "fontface": 0,
                    "fontname": "Arial",
                    "fontsize": 13.0,
                    "id": "obj-48",
                    "maxclass": "jit.fpsgui",
                    "mode": 4,
                    "numinlets": 1,
                    "numoutlets": 2,
                    "outlettype": [ "", "" ],
                    "patching_rect": [ 148.0, 711.0, 80.0, 36.0 ]
                }
            },
            {
                "box": {
                    "id": "obj-49",
                    "maxclass": "newobj",
                    "numinlets": 1,
                    "numoutlets": 2,
                    "outlettype": [ "jit_matrix", "" ],
                    "patching_rect": [ 148.0, 676.0, 247.0, 22.0 ],
                    "text": "jit.matrix mappingMatrix 1 long 1 1 @adapt 1"
                }
            },
            {
                "box": {
                    "fontface": 0,
                    "fontname": "Arial",
                    "fontsize": 13.0,
                    "id": "obj-41",
                    "maxclass": "jit.fpsgui",
                    "mode": 3,
                    "numinlets": 1,
                    "numoutlets": 2,
                    "outlettype": [ "", "" ],
                    "patching_rect": [ 379.0, 631.0, 117.0, 36.0 ]
                }
            },
            {
                "box": {
                    "fontface": 0,
                    "fontname": "Arial",
                    "fontsize": 13.0,
                    "id": "obj-40",
                    "maxclass": "jit.fpsgui",
                    "mode": 2,
                    "numinlets": 1,
                    "numoutlets": 2,
                    "outlettype": [ "", "" ],
                    "patching_rect": [ 296.0, 631.0, 80.0, 36.0 ]
                }
            },
            {
                "box": {
                    "fontface": 0,
                    "fontname": "Arial",
                    "fontsize": 13.0,
                    "id": "obj-38",
                    "maxclass": "jit.fpsgui",
                    "mode": 4,
                    "numinlets": 1,
                    "numoutlets": 2,
                    "outlettype": [ "", "" ],
                    "patching_rect": [ 215.0, 631.0, 80.0, 36.0 ]
                }
            },
            {
                "box": {
                    "id": "obj-37",
                    "maxclass": "newobj",
                    "numinlets": 1,
                    "numoutlets": 2,
                    "outlettype": [ "jit_matrix", "" ],
                    "patching_rect": [ 215.0, 596.0, 216.0, 22.0 ],
                    "text": "jit.matrix 3Dpos 3 float32 1 1 @adapt 1"
                }
            },
            {
                "box": {
                    "id": "obj-15",
                    "maxclass": "newobj",
                    "numinlets": 2,
                    "numoutlets": 4,
                    "outlettype": [ "", "", "", "" ],
                    "patching_rect": [ 81.0, 458.0, 220.0, 22.0 ],
                    "text": "gate 4 1"
                }
            },
            {
                "box": {
                    "id": "obj-34",
                    "maxclass": "newobj",
                    "numinlets": 1,
                    "numoutlets": 1,
                    "outlettype": [ "" ],
                    "patcher": {
                        "fileversion": 1,
                        "appversion": {
                            "major": 9,
                            "minor": 2,
                            "revision": 0,
                            "architecture": "x64",
                            "modernui": 1
                        },
                        "classnamespace": "box",
                        "rect": [ 59.0, 119.0, 1000.0, 755.0 ],
                        "boxes": [
                            {
                                "box": {
                                    "comment": "",
                                    "id": "obj-1",
                                    "index": 1,
                                    "maxclass": "outlet",
                                    "numinlets": 1,
                                    "numoutlets": 0,
                                    "patching_rect": [ 61.0, 287.0, 30.0, 30.0 ]
                                }
                            },
                            {
                                "box": {
                                    "id": "obj-32",
                                    "maxclass": "newobj",
                                    "numinlets": 1,
                                    "numoutlets": 2,
                                    "outlettype": [ "", "" ],
                                    "patching_rect": [ 50.0, 100.0, 29.5, 22.0 ],
                                    "text": "t l l"
                                }
                            },
                            {
                                "box": {
                                    "id": "obj-31",
                                    "maxclass": "newobj",
                                    "numinlets": 2,
                                    "numoutlets": 1,
                                    "outlettype": [ "" ],
                                    "patching_rect": [ 60.5, 253.0, 52.0, 22.0 ],
                                    "text": "gate 1 0"
                                }
                            },
                            {
                                "box": {
                                    "id": "obj-30",
                                    "maxclass": "newobj",
                                    "numinlets": 2,
                                    "numoutlets": 1,
                                    "outlettype": [ "int" ],
                                    "patching_rect": [ 60.5, 220.0, 37.0, 22.0 ],
                                    "text": "< 3"
                                }
                            },
                            {
                                "box": {
                                    "id": "obj-29",
                                    "maxclass": "newobj",
                                    "numinlets": 2,
                                    "numoutlets": 2,
                                    "outlettype": [ "", "" ],
                                    "patching_rect": [ 60.5, 192.0, 37.0, 22.0 ],
                                    "text": "zl.len"
                                }
                            },
                            {
                                "box": {
                                    "id": "obj-26",
                                    "maxclass": "newobj",
                                    "numinlets": 2,
                                    "numoutlets": 2,
                                    "outlettype": [ "", "" ],
                                    "patching_rect": [ 60.5, 164.0, 59.0, 22.0 ],
                                    "text": "route dim"
                                }
                            },
                            {
                                "box": {
                                    "id": "obj-22",
                                    "maxclass": "newobj",
                                    "numinlets": 1,
                                    "numoutlets": 1,
                                    "outlettype": [ "" ],
                                    "patching_rect": [ 60.5, 134.5, 73.0, 22.0 ],
                                    "text": "jit.matrixinfo"
                                }
                            },
                            {
                                "box": {
                                    "comment": "",
                                    "id": "obj-33",
                                    "index": 1,
                                    "maxclass": "inlet",
                                    "numinlets": 0,
                                    "numoutlets": 1,
                                    "outlettype": [ "jit_matrix" ],
                                    "patching_rect": [ 50.0, 40.0, 30.0, 30.0 ]
                                }
                            }
                        ],
                        "lines": [
                            {
                                "patchline": {
                                    "destination": [ "obj-26", 0 ],
                                    "source": [ "obj-22", 0 ]
                                }
                            },
                            {
                                "patchline": {
                                    "destination": [ "obj-29", 0 ],
                                    "source": [ "obj-26", 0 ]
                                }
                            },
                            {
                                "patchline": {
                                    "destination": [ "obj-30", 0 ],
                                    "source": [ "obj-29", 0 ]
                                }
                            },
                            {
                                "patchline": {
                                    "destination": [ "obj-31", 0 ],
                                    "source": [ "obj-30", 0 ]
                                }
                            },
                            {
                                "patchline": {
                                    "destination": [ "obj-1", 0 ],
                                    "source": [ "obj-31", 0 ]
                                }
                            },
                            {
                                "patchline": {
                                    "destination": [ "obj-22", 0 ],
                                    "source": [ "obj-32", 1 ]
                                }
                            },
                            {
                                "patchline": {
                                    "destination": [ "obj-31", 1 ],
                                    "source": [ "obj-32", 0 ]
                                }
                            },
                            {
                                "patchline": {
                                    "destination": [ "obj-32", 0 ],
                                    "source": [ "obj-33", 0 ]
                                }
                            }
                        ]
                    },
                    "patching_rect": [ 498.0, 213.0, 48.0, 22.0 ],
                    "text": "p <=2D"
                }
            },
            {
                "box": {
                    "fontface": 0,
                    "fontname": "Arial",
                    "fontsize": 13.0,
                    "id": "obj-20",
                    "maxclass": "jit.fpsgui",
                    "mode": 3,
                    "numinlets": 1,
                    "numoutlets": 2,
                    "outlettype": [ "", "" ],
                    "patching_rect": [ 263.0, 217.0, 163.0, 36.0 ]
                }
            },
            {
                "box": {
                    "id": "obj-19",
                    "maxclass": "button",
                    "numinlets": 1,
                    "numoutlets": 1,
                    "outlettype": [ "bang" ],
                    "parameter_enable": 0,
                    "patching_rect": [ 40.0, 217.0, 24.0, 24.0 ]
                }
            },
            {
                "box": {
                    "id": "obj-12",
                    "maxclass": "number",
                    "numinlets": 1,
                    "numoutlets": 2,
                    "outlettype": [ "", "bang" ],
                    "parameter_enable": 0,
                    "patching_rect": [ 554.0, 185.0, 50.0, 22.0 ]
                }
            },
            {
                "box": {
                    "id": "obj-9",
                    "maxclass": "message",
                    "numinlets": 2,
                    "numoutlets": 1,
                    "outlettype": [ "" ],
                    "patching_rect": [ 554.0, 213.0, 55.0, 22.0 ],
                    "text": "plane $1"
                }
            },
            {
                "box": {
                    "fontface": 0,
                    "fontname": "Arial",
                    "fontsize": 13.0,
                    "id": "obj-4",
                    "maxclass": "jit.fpsgui",
                    "mode": 2,
                    "numinlets": 1,
                    "numoutlets": 2,
                    "outlettype": [ "", "" ],
                    "patching_rect": [ 178.0, 217.0, 80.0, 36.0 ]
                }
            },
            {
                "box": {
                    "cols": 128,
                    "fontface": 0,
                    "fontname": "Arial",
                    "fontsize": 12.0,
                    "id": "obj-2",
                    "maxclass": "jit.cellblock",
                    "numinlets": 2,
                    "numoutlets": 4,
                    "outlettype": [ "list", "", "", "" ],
                    "patching_rect": [ 498.0, 252.0, 290.0, 98.0 ],
                    "rows": 182
                }
            },
            {
                "box": {
                    "depthbuffer": 1,
                    "doublebuffer": 1,
                    "fsaa": 0,
                    "id": "obj-7",
                    "maxclass": "jit.pwindow",
                    "numinlets": 1,
                    "numoutlets": 2,
                    "outlettype": [ "jit_matrix", "" ],
                    "patching_rect": [ 118.5, 258.0, 199.0, 124.0 ],
                    "stereo": 0,
                    "sync": 1
                }
            },
            {
                "box": {
                    "fontface": 0,
                    "fontname": "Arial",
                    "fontsize": 13.0,
                    "id": "obj-6",
                    "maxclass": "jit.fpsgui",
                    "mode": 4,
                    "numinlets": 1,
                    "numoutlets": 2,
                    "outlettype": [ "", "" ],
                    "patching_rect": [ 92.0, 217.0, 80.0, 36.0 ]
                }
            },
            {
                "box": {
                    "attr": "connected",
                    "fontface": 0,
                    "fontname": "Arial",
                    "fontsize": 13.0,
                    "id": "obj-14",
                    "maxclass": "attrui",
                    "numinlets": 1,
                    "numoutlets": 1,
                    "outlettype": [ "" ],
                    "parameter_enable": 0,
                    "patching_rect": [ 106.0, 133.0, 116.0, 23.0 ],
                    "text_width": 81.0
                }
            },
            {
                "box": {
                    "attr": "port",
                    "fontface": 0,
                    "fontname": "Arial",
                    "fontsize": 13.0,
                    "id": "obj-3",
                    "maxclass": "attrui",
                    "numinlets": 1,
                    "numoutlets": 1,
                    "outlettype": [ "" ],
                    "parameter_enable": 0,
                    "patching_rect": [ 92.0, 98.0, 130.0, 23.0 ],
                    "text_width": 48.0
                }
            },
            {
                "box": {
                    "attr": "ip",
                    "fontface": 0,
                    "fontname": "Arial",
                    "fontsize": 13.0,
                    "id": "obj-1",
                    "maxclass": "attrui",
                    "numinlets": 1,
                    "numoutlets": 1,
                    "outlettype": [ "" ],
                    "parameter_enable": 0,
                    "patching_rect": [ 77.0, 63.0, 145.0, 23.0 ],
                    "text_width": 41.0
                }
            },
            {
                "box": {
                    "fontname": "Arial",
                    "fontsize": 13.0,
                    "id": "obj-5",
                    "maxclass": "newobj",
                    "numinlets": 1,
                    "numoutlets": 3,
                    "outlettype": [ "jit_matrix", "", "" ],
                    "patching_rect": [ 77.0, 171.0, 139.0, 23.0 ],
                    "text": "jit.net.recv @port 8087"
                }
            }
        ],
        "lines": [
            {
                "patchline": {
                    "destination": [ "obj-5", 0 ],
                    "source": [ "obj-1", 0 ]
                }
            },
            {
                "patchline": {
                    "destination": [ "obj-16", 0 ],
                    "source": [ "obj-11", 0 ]
                }
            },
            {
                "patchline": {
                    "destination": [ "obj-9", 0 ],
                    "source": [ "obj-12", 0 ]
                }
            },
            {
                "patchline": {
                    "destination": [ "obj-17", 0 ],
                    "order": 0,
                    "source": [ "obj-13", 0 ]
                }
            },
            {
                "patchline": {
                    "destination": [ "obj-18", 0 ],
                    "order": 1,
                    "source": [ "obj-13", 0 ]
                }
            },
            {
                "patchline": {
                    "destination": [ "obj-5", 0 ],
                    "source": [ "obj-14", 0 ]
                }
            },
            {
                "patchline": {
                    "destination": [ "obj-10", 0 ],
                    "order": 1,
                    "source": [ "obj-15", 0 ]
                }
            },
            {
                "patchline": {
                    "destination": [ "obj-23", 0 ],
                    "order": 1,
                    "source": [ "obj-15", 3 ]
                }
            },
            {
                "patchline": {
                    "destination": [ "obj-27", 0 ],
                    "order": 0,
                    "source": [ "obj-15", 3 ]
                }
            },
            {
                "patchline": {
                    "destination": [ "obj-37", 0 ],
                    "order": 0,
                    "source": [ "obj-15", 2 ]
                }
            },
            {
                "patchline": {
                    "destination": [ "obj-49", 0 ],
                    "order": 0,
                    "source": [ "obj-15", 1 ]
                }
            },
            {
                "patchline": {
                    "destination": [ "obj-60", 0 ],
                    "order": 1,
                    "source": [ "obj-15", 1 ]
                }
            },
            {
                "patchline": {
                    "destination": [ "obj-62", 0 ],
                    "order": 1,
                    "source": [ "obj-15", 2 ]
                }
            },
            {
                "patchline": {
                    "destination": [ "obj-79", 0 ],
                    "order": 0,
                    "source": [ "obj-15", 0 ]
                }
            },
            {
                "patchline": {
                    "destination": [ "obj-8", 0 ],
                    "source": [ "obj-16", 0 ]
                }
            },
            {
                "patchline": {
                    "destination": [ "obj-22", 0 ],
                    "source": [ "obj-18", 0 ]
                }
            },
            {
                "patchline": {
                    "destination": [ "obj-16", 0 ],
                    "source": [ "obj-22", 0 ]
                }
            },
            {
                "patchline": {
                    "destination": [ "obj-24", 0 ],
                    "order": 0,
                    "source": [ "obj-27", 0 ]
                }
            },
            {
                "patchline": {
                    "destination": [ "obj-25", 0 ],
                    "order": 1,
                    "source": [ "obj-27", 0 ]
                }
            },
            {
                "patchline": {
                    "destination": [ "obj-26", 0 ],
                    "order": 3,
                    "source": [ "obj-27", 0 ]
                }
            },
            {
                "patchline": {
                    "destination": [ "obj-61", 0 ],
                    "order": 2,
                    "source": [ "obj-27", 0 ]
                }
            },
            {
                "patchline": {
                    "destination": [ "obj-5", 0 ],
                    "source": [ "obj-3", 0 ]
                }
            },
            {
                "patchline": {
                    "destination": [ "obj-2", 0 ],
                    "source": [ "obj-34", 0 ]
                }
            },
            {
                "patchline": {
                    "destination": [ "obj-38", 0 ],
                    "order": 2,
                    "source": [ "obj-37", 0 ]
                }
            },
            {
                "patchline": {
                    "destination": [ "obj-40", 0 ],
                    "order": 1,
                    "source": [ "obj-37", 0 ]
                }
            },
            {
                "patchline": {
                    "destination": [ "obj-41", 0 ],
                    "order": 0,
                    "source": [ "obj-37", 0 ]
                }
            },
            {
                "patchline": {
                    "destination": [ "obj-43", 0 ],
                    "order": 0,
                    "source": [ "obj-49", 0 ]
                }
            },
            {
                "patchline": {
                    "destination": [ "obj-47", 0 ],
                    "order": 1,
                    "source": [ "obj-49", 0 ]
                }
            },
            {
                "patchline": {
                    "destination": [ "obj-48", 0 ],
                    "order": 2,
                    "source": [ "obj-49", 0 ]
                }
            },
            {
                "patchline": {
                    "destination": [ "obj-19", 0 ],
                    "order": 6,
                    "source": [ "obj-5", 0 ]
                }
            },
            {
                "patchline": {
                    "destination": [ "obj-20", 0 ],
                    "order": 1,
                    "source": [ "obj-5", 0 ]
                }
            },
            {
                "patchline": {
                    "destination": [ "obj-34", 0 ],
                    "order": 0,
                    "source": [ "obj-5", 0 ]
                }
            },
            {
                "patchline": {
                    "destination": [ "obj-4", 0 ],
                    "midpoints": [ 86.5, 200.5, 187.5, 200.5 ],
                    "order": 2,
                    "source": [ "obj-5", 0 ]
                }
            },
            {
                "patchline": {
                    "destination": [ "obj-6", 0 ],
                    "order": 4,
                    "source": [ "obj-5", 0 ]
                }
            },
            {
                "patchline": {
                    "destination": [ "obj-7", 0 ],
                    "order": 3,
                    "source": [ "obj-5", 0 ]
                }
            },
            {
                "patchline": {
                    "destination": [ "obj-75", 0 ],
                    "order": 5,
                    "source": [ "obj-5", 0 ]
                }
            },
            {
                "patchline": {
                    "destination": [ "obj-15", 0 ],
                    "source": [ "obj-58", 0 ]
                }
            },
            {
                "patchline": {
                    "destination": [ "obj-15", 1 ],
                    "source": [ "obj-75", 1 ]
                }
            },
            {
                "patchline": {
                    "destination": [ "obj-58", 0 ],
                    "source": [ "obj-75", 0 ]
                }
            },
            {
                "patchline": {
                    "destination": [ "obj-76", 0 ],
                    "order": 0,
                    "source": [ "obj-79", 0 ]
                }
            },
            {
                "patchline": {
                    "destination": [ "obj-77", 0 ],
                    "order": 1,
                    "source": [ "obj-79", 0 ]
                }
            },
            {
                "patchline": {
                    "destination": [ "obj-78", 0 ],
                    "order": 2,
                    "source": [ "obj-79", 0 ]
                }
            },
            {
                "patchline": {
                    "destination": [ "obj-2", 0 ],
                    "source": [ "obj-9", 0 ]
                }
            }
        ],
        "autosave": 0
    }
}