{
    "patcher": {
        "fileversion": 1,
        "appversion": {
            "major": 9,
            "minor": 2,
            "revision": 0,
            "architecture": "x64",
            "modernui": 1
        },
        "classnamespace": "box",
        "rect": [ 685.0, 259.0, 793.0, 689.0 ],
        "boxes": [
            {
                "box": {
                    "id": "obj-23",
                    "maxclass": "newobj",
                    "numinlets": 1,
                    "numoutlets": 0,
                    "patching_rect": [ 505.0, 329.0, 152.0, 22.0 ],
                    "text": "s ---BrainViz/render/update"
                }
            },
            {
                "box": {
                    "id": "obj-22",
                    "maxclass": "button",
                    "numinlets": 1,
                    "numoutlets": 1,
                    "outlettype": [ "bang" ],
                    "parameter_enable": 0,
                    "patching_rect": [ 505.0, 300.0, 24.0, 24.0 ]
                }
            },
            {
                "box": {
                    "id": "obj-17",
                    "maxclass": "newobj",
                    "numinlets": 2,
                    "numoutlets": 1,
                    "outlettype": [ "" ],
                    "patching_rect": [ 569.0, 118.0, 47.0, 22.0 ],
                    "text": "qlim 20"
                }
            },
            {
                "box": {
                    "id": "obj-16",
                    "maxclass": "button",
                    "numinlets": 1,
                    "numoutlets": 1,
                    "outlettype": [ "bang" ],
                    "parameter_enable": 0,
                    "patching_rect": [ 569.0, 149.0, 24.0, 24.0 ]
                }
            },
            {
                "box": {
                    "id": "obj-13",
                    "maxclass": "newobj",
                    "numinlets": 0,
                    "numoutlets": 1,
                    "outlettype": [ "" ],
                    "patching_rect": [ 569.0, 87.0, 150.0, 22.0 ],
                    "text": "r ---BrainViz/render/update"
                }
            },
            {
                "box": {
                    "id": "obj-12",
                    "maxclass": "button",
                    "numinlets": 1,
                    "numoutlets": 1,
                    "outlettype": [ "bang" ],
                    "parameter_enable": 0,
                    "patching_rect": [ 236.0, 86.0, 24.0, 24.0 ]
                }
            },
            {
                "box": {
                    "attr": "rotatexyz",
                    "fontface": 0,
                    "fontname": "Arial",
                    "fontsize": 13.0,
                    "id": "obj-5",
                    "lock": 1,
                    "maxclass": "attrui",
                    "numinlets": 1,
                    "numoutlets": 1,
                    "outlettype": [ "" ],
                    "parameter_enable": 0,
                    "patching_rect": [ 448.0, 531.0, 248.0, 23.0 ],
                    "text_width": 99.0
                }
            },
            {
                "box": {
                    "attr": "enable",
                    "fontface": 0,
                    "fontname": "Arial",
                    "fontsize": 13.0,
                    "id": "obj-15",
                    "maxclass": "attrui",
                    "numinlets": 1,
                    "numoutlets": 1,
                    "outlettype": [ "" ],
                    "parameter_enable": 0,
                    "patching_rect": [ 465.0, 430.0, 153.0, 23.0 ]
                }
            },
            {
                "box": {
                    "attr": "specular",
                    "fontface": 0,
                    "fontname": "Arial",
                    "fontsize": 13.0,
                    "id": "obj-26",
                    "lock": 1,
                    "maxclass": "attrui",
                    "numinlets": 1,
                    "numoutlets": 1,
                    "outlettype": [ "" ],
                    "parameter_enable": 0,
                    "patching_rect": [ 205.0, 481.0, 150.0, 23.0 ]
                }
            },
            {
                "box": {
                    "attr": "diffuse",
                    "fontface": 0,
                    "fontname": "Arial",
                    "fontsize": 13.0,
                    "id": "obj-28",
                    "lock": 1,
                    "maxclass": "attrui",
                    "numinlets": 1,
                    "numoutlets": 1,
                    "outlettype": [ "" ],
                    "parameter_enable": 0,
                    "patching_rect": [ 205.0, 456.0, 150.0, 23.0 ]
                }
            },
            {
                "box": {
                    "attr": "ambient",
                    "fontface": 0,
                    "fontname": "Arial",
                    "fontsize": 13.0,
                    "id": "obj-30",
                    "lock": 1,
                    "maxclass": "attrui",
                    "numinlets": 1,
                    "numoutlets": 1,
                    "outlettype": [ "" ],
                    "parameter_enable": 0,
                    "patching_rect": [ 205.0, 431.0, 150.0, 23.0 ]
                }
            },
            {
                "box": {
                    "fontname": "Arial",
                    "fontsize": 13.0,
                    "id": "obj-31",
                    "maxclass": "newobj",
                    "numinlets": 1,
                    "numoutlets": 1,
                    "outlettype": [ "" ],
                    "patching_rect": [ 205.0, 584.0, 536.0, 23.0 ],
                    "text": "jit.gl.light ---BrainViz @type point @rotatexyz 0 0 0 @position 0 0 2 @ambient 0.5 0.5 0.5 1."
                }
            },
            {
                "box": {
                    "attr": "type",
                    "fontface": 0,
                    "fontname": "Arial",
                    "fontsize": 13.0,
                    "id": "obj-32",
                    "lock": 1,
                    "maxclass": "attrui",
                    "numinlets": 1,
                    "numoutlets": 1,
                    "outlettype": [ "" ],
                    "parameter_enable": 0,
                    "patching_rect": [ 205.0, 506.0, 202.0, 23.0 ]
                }
            },
            {
                "box": {
                    "attr": "position",
                    "fontface": 0,
                    "fontname": "Arial",
                    "fontsize": 13.0,
                    "id": "obj-33",
                    "lock": 1,
                    "maxclass": "attrui",
                    "numinlets": 1,
                    "numoutlets": 1,
                    "outlettype": [ "" ],
                    "parameter_enable": 0,
                    "patching_rect": [ 205.0, 531.0, 248.0, 23.0 ]
                }
            },
            {
                "box": {
                    "attr": "axes",
                    "fontface": 0,
                    "fontname": "Arial",
                    "fontsize": 13.0,
                    "id": "obj-34",
                    "maxclass": "attrui",
                    "numinlets": 1,
                    "numoutlets": 1,
                    "outlettype": [ "" ],
                    "parameter_enable": 0,
                    "patching_rect": [ 465.0, 456.0, 153.0, 23.0 ]
                }
            },
            {
                "box": {
                    "attr": "sync",
                    "id": "obj-3",
                    "maxclass": "attrui",
                    "numinlets": 1,
                    "numoutlets": 1,
                    "outlettype": [ "" ],
                    "parameter_enable": 0,
                    "patching_rect": [ 395.0, 197.0, 79.0, 22.0 ],
                    "text_width": 48.0
                }
            },
            {
                "box": {
                    "id": "obj-7",
                    "maxclass": "newobj",
                    "numinlets": 1,
                    "numoutlets": 0,
                    "patching_rect": [ 162.0, 168.0, 96.0, 22.0 ],
                    "text": "s ---BrainViz.ON"
                }
            },
            {
                "box": {
                    "id": "obj-21",
                    "maxclass": "newobj",
                    "numinlets": 1,
                    "numoutlets": 1,
                    "outlettype": [ "" ],
                    "patching_rect": [ 188.0, 197.0, 89.0, 22.0 ],
                    "text": "prepend visible"
                }
            },
            {
                "box": {
                    "id": "obj-11",
                    "maxclass": "newobj",
                    "numinlets": 1,
                    "numoutlets": 4,
                    "outlettype": [ "bang", "int", "int", "int" ],
                    "patching_rect": [ 162.0, 108.0, 45.0, 22.0 ],
                    "text": "t b i i i"
                }
            },
            {
                "box": {
                    "id": "obj-29",
                    "maxclass": "newobj",
                    "numinlets": 1,
                    "numoutlets": 2,
                    "outlettype": [ "", "" ],
                    "patcher": {
                        "fileversion": 1,
                        "appversion": {
                            "major": 9,
                            "minor": 2,
                            "revision": 0,
                            "architecture": "x64",
                            "modernui": 1
                        },
                        "classnamespace": "box",
                        "rect": [ 59.0, 106.0, 640.0, 480.0 ],
                        "boxes": [
                            {
                                "box": {
                                    "id": "obj-17",
                                    "maxclass": "newobj",
                                    "numinlets": 1,
                                    "numoutlets": 1,
                                    "outlettype": [ "" ],
                                    "patching_rect": [ 213.0, 276.0, 54.0, 22.0 ],
                                    "text": "deferlow"
                                }
                            },
                            {
                                "box": {
                                    "id": "obj-16",
                                    "linecount": 2,
                                    "maxclass": "message",
                                    "numinlets": 2,
                                    "numoutlets": 1,
                                    "outlettype": [ "" ],
                                    "patching_rect": [ 50.0, 287.0, 50.0, 35.0 ],
                                    "text": "423 317"
                                }
                            },
                            {
                                "box": {
                                    "id": "obj-15",
                                    "linecount": 2,
                                    "maxclass": "message",
                                    "numinlets": 2,
                                    "numoutlets": 1,
                                    "outlettype": [ "" ],
                                    "patching_rect": [ 122.0, 287.0, 50.0, 35.0 ],
                                    "text": "423 317"
                                }
                            },
                            {
                                "box": {
                                    "id": "obj-13",
                                    "maxclass": "button",
                                    "numinlets": 1,
                                    "numoutlets": 1,
                                    "outlettype": [ "bang" ],
                                    "parameter_enable": 0,
                                    "patching_rect": [ 56.0, 225.0, 24.0, 24.0 ]
                                }
                            },
                            {
                                "box": {
                                    "id": "obj-11",
                                    "maxclass": "newobj",
                                    "numinlets": 2,
                                    "numoutlets": 2,
                                    "outlettype": [ "", "" ],
                                    "patching_rect": [ 117.0, 198.0, 60.0, 22.0 ],
                                    "text": "zl.change"
                                }
                            },
                            {
                                "box": {
                                    "id": "obj-9",
                                    "maxclass": "newobj",
                                    "numinlets": 1,
                                    "numoutlets": 1,
                                    "outlettype": [ "" ],
                                    "patching_rect": [ 193.0, 235.0, 77.0, 22.0 ],
                                    "text": "prepend size"
                                }
                            },
                            {
                                "box": {
                                    "id": "obj-7",
                                    "maxclass": "newobj",
                                    "numinlets": 2,
                                    "numoutlets": 1,
                                    "outlettype": [ "" ],
                                    "patching_rect": [ 96.0, 168.0, 81.0, 22.0 ],
                                    "text": "pack 640 480"
                                }
                            },
                            {
                                "box": {
                                    "id": "obj-6",
                                    "maxclass": "newobj",
                                    "numinlets": 2,
                                    "numoutlets": 1,
                                    "outlettype": [ "float" ],
                                    "patching_rect": [ 158.0, 137.0, 40.0, 22.0 ],
                                    "text": "* 0.75"
                                }
                            },
                            {
                                "box": {
                                    "id": "obj-4",
                                    "maxclass": "newobj",
                                    "numinlets": 1,
                                    "numoutlets": 2,
                                    "outlettype": [ "int", "int" ],
                                    "patching_rect": [ 96.0, 100.0, 94.0, 22.0 ],
                                    "text": "unpack 640 480"
                                }
                            },
                            {
                                "box": {
                                    "comment": "",
                                    "id": "obj-26",
                                    "index": 1,
                                    "maxclass": "inlet",
                                    "numinlets": 0,
                                    "numoutlets": 1,
                                    "outlettype": [ "" ],
                                    "patching_rect": [ 96.0, 40.0, 30.0, 30.0 ]
                                }
                            },
                            {
                                "box": {
                                    "comment": "",
                                    "id": "obj-27",
                                    "index": 1,
                                    "maxclass": "outlet",
                                    "numinlets": 1,
                                    "numoutlets": 0,
                                    "patching_rect": [ 96.0, 382.0, 30.0, 30.0 ]
                                }
                            },
                            {
                                "box": {
                                    "comment": "",
                                    "id": "obj-28",
                                    "index": 2,
                                    "maxclass": "outlet",
                                    "numinlets": 1,
                                    "numoutlets": 0,
                                    "patching_rect": [ 213.0, 382.0, 30.0, 30.0 ]
                                }
                            }
                        ],
                        "lines": [
                            {
                                "patchline": {
                                    "destination": [ "obj-15", 1 ],
                                    "order": 1,
                                    "source": [ "obj-11", 0 ]
                                }
                            },
                            {
                                "patchline": {
                                    "destination": [ "obj-9", 0 ],
                                    "order": 0,
                                    "source": [ "obj-11", 0 ]
                                }
                            },
                            {
                                "patchline": {
                                    "destination": [ "obj-28", 0 ],
                                    "source": [ "obj-17", 0 ]
                                }
                            },
                            {
                                "patchline": {
                                    "destination": [ "obj-4", 0 ],
                                    "source": [ "obj-26", 0 ]
                                }
                            },
                            {
                                "patchline": {
                                    "destination": [ "obj-6", 0 ],
                                    "order": 0,
                                    "source": [ "obj-4", 0 ]
                                }
                            },
                            {
                                "patchline": {
                                    "destination": [ "obj-7", 0 ],
                                    "order": 1,
                                    "source": [ "obj-4", 0 ]
                                }
                            },
                            {
                                "patchline": {
                                    "destination": [ "obj-7", 1 ],
                                    "source": [ "obj-6", 0 ]
                                }
                            },
                            {
                                "patchline": {
                                    "destination": [ "obj-11", 0 ],
                                    "order": 0,
                                    "source": [ "obj-7", 0 ]
                                }
                            },
                            {
                                "patchline": {
                                    "destination": [ "obj-13", 0 ],
                                    "order": 3,
                                    "source": [ "obj-7", 0 ]
                                }
                            },
                            {
                                "patchline": {
                                    "destination": [ "obj-16", 1 ],
                                    "order": 2,
                                    "source": [ "obj-7", 0 ]
                                }
                            },
                            {
                                "patchline": {
                                    "destination": [ "obj-27", 0 ],
                                    "order": 1,
                                    "source": [ "obj-7", 0 ]
                                }
                            },
                            {
                                "patchline": {
                                    "destination": [ "obj-17", 0 ],
                                    "source": [ "obj-9", 0 ]
                                }
                            }
                        ],
                        "patchlinecolor": [ 0.309803921568627, 0.309803921568627, 0.309803921568627, 1.0 ],
                        "bgcolor": [ 0.647058823529412, 0.647058823529412, 0.647058823529412, 1.0 ],
                        "editing_bgcolor": [ 0.647058823529412, 0.647058823529412, 0.647058823529412, 1.0 ]
                    },
                    "patching_rect": [ 62.0, 215.0, 91.0, 22.0 ],
                    "saved_object_attributes": {
                        "editing_bgcolor": [ 0.647058823529412, 0.647058823529412, 0.647058823529412, 1.0 ],
                        "locked_bgcolor": [ 0.647058823529412, 0.647058823529412, 0.647058823529412, 1.0 ],
                        "patchlinecolor": [ 0.309803921568627, 0.309803921568627, 0.309803921568627, 1.0 ]
                    },
                    "text": "p force-aspect?"
                }
            },
            {
                "box": {
                    "id": "obj-8",
                    "maxclass": "newobj",
                    "numinlets": 2,
                    "numoutlets": 1,
                    "outlettype": [ "" ],
                    "patching_rect": [ 44.0, 172.0, 47.0, 22.0 ],
                    "text": "qlim 50"
                }
            },
            {
                "box": {
                    "fontface": 0,
                    "fontname": "Arial",
                    "fontsize": 12.0,
                    "id": "obj-2",
                    "maxclass": "jit.fpsgui",
                    "numinlets": 1,
                    "numoutlets": 2,
                    "outlettype": [ "", "" ],
                    "patching_rect": [ 261.0, 289.0, 80.0, 35.0 ]
                }
            },
            {
                "box": {
                    "id": "obj-10",
                    "maxclass": "newobj",
                    "numinlets": 0,
                    "numoutlets": 1,
                    "outlettype": [ "" ],
                    "patcher": {
                        "fileversion": 1,
                        "appversion": {
                            "major": 9,
                            "minor": 2,
                            "revision": 0,
                            "architecture": "x64",
                            "modernui": 1
                        },
                        "classnamespace": "box",
                        "rect": [ 0.0, 0.0, 640.0, 480.0 ],
                        "boxes": [
                            {
                                "box": {
                                    "id": "obj-26",
                                    "maxclass": "newobj",
                                    "numinlets": 1,
                                    "numoutlets": 1,
                                    "outlettype": [ "" ],
                                    "patching_rect": [ 50.0, 156.0, 54.0, 22.0 ],
                                    "text": "deferlow"
                                }
                            },
                            {
                                "box": {
                                    "id": "obj-16",
                                    "maxclass": "newobj",
                                    "numinlets": 2,
                                    "numoutlets": 2,
                                    "outlettype": [ "bang", "" ],
                                    "patching_rect": [ 50.0, 129.0, 41.0, 22.0 ],
                                    "text": "sel 27"
                                }
                            },
                            {
                                "box": {
                                    "id": "obj-12",
                                    "maxclass": "newobj",
                                    "numinlets": 0,
                                    "numoutlets": 4,
                                    "outlettype": [ "int", "int", "int", "int" ],
                                    "patching_rect": [ 50.0, 100.0, 50.5, 22.0 ],
                                    "text": "key"
                                }
                            },
                            {
                                "box": {
                                    "comment": "",
                                    "id": "obj-9",
                                    "index": 1,
                                    "maxclass": "outlet",
                                    "numinlets": 1,
                                    "numoutlets": 0,
                                    "patching_rect": [ 50.0, 238.0, 30.0, 30.0 ]
                                }
                            }
                        ],
                        "lines": [
                            {
                                "patchline": {
                                    "destination": [ "obj-16", 0 ],
                                    "source": [ "obj-12", 0 ]
                                }
                            },
                            {
                                "patchline": {
                                    "destination": [ "obj-26", 0 ],
                                    "source": [ "obj-16", 0 ]
                                }
                            },
                            {
                                "patchline": {
                                    "destination": [ "obj-9", 0 ],
                                    "source": [ "obj-26", 0 ]
                                }
                            }
                        ],
                        "patchlinecolor": [ 0.309803921568627, 0.309803921568627, 0.309803921568627, 1.0 ],
                        "bgcolor": [ 0.647058823529412, 0.647058823529412, 0.647058823529412, 1.0 ],
                        "editing_bgcolor": [ 0.647058823529412, 0.647058823529412, 0.647058823529412, 1.0 ]
                    },
                    "patching_rect": [ 44.0, 53.0, 37.0, 22.0 ],
                    "saved_object_attributes": {
                        "editing_bgcolor": [ 0.647058823529412, 0.647058823529412, 0.647058823529412, 1.0 ],
                        "locked_bgcolor": [ 0.647058823529412, 0.647058823529412, 0.647058823529412, 1.0 ],
                        "patchlinecolor": [ 0.309803921568627, 0.309803921568627, 0.309803921568627, 1.0 ]
                    },
                    "text": "p esc"
                }
            },
            {
                "box": {
                    "id": "obj-18",
                    "maxclass": "button",
                    "numinlets": 1,
                    "numoutlets": 1,
                    "outlettype": [ "bang" ],
                    "parameter_enable": 0,
                    "patching_rect": [ 44.0, 79.0, 24.0, 24.0 ]
                }
            },
            {
                "box": {
                    "id": "obj-19",
                    "maxclass": "newobj",
                    "numinlets": 1,
                    "numoutlets": 0,
                    "patching_rect": [ 544.0, 289.0, 138.0, 22.0 ],
                    "text": "bo.jit.window.processing"
                }
            },
            {
                "box": {
                    "id": "obj-54",
                    "maxclass": "newobj",
                    "numinlets": 1,
                    "numoutlets": 0,
                    "patching_rect": [ 357.5, 289.0, 74.0, 22.0 ],
                    "text": "s ---world.ck"
                }
            },
            {
                "box": {
                    "id": "obj-24",
                    "maxclass": "newobj",
                    "numinlets": 1,
                    "numoutlets": 0,
                    "patching_rect": [ 44.0, 251.0, 91.0, 22.0 ],
                    "text": "s ---windowsize"
                }
            },
            {
                "box": {
                    "id": "obj-56",
                    "maxclass": "newobj",
                    "numinlets": 1,
                    "numoutlets": 3,
                    "outlettype": [ "", "", "" ],
                    "patching_rect": [ 44.0, 112.0, 67.0, 22.0 ],
                    "text": "getattr size"
                }
            },
            {
                "box": {
                    "id": "obj-90",
                    "maxclass": "newobj",
                    "numinlets": 1,
                    "numoutlets": 3,
                    "outlettype": [ "jit_matrix", "bang", "" ],
                    "patching_rect": [ 175.0, 251.0, 388.0, 22.0 ],
                    "text": "jit.world ---BrainViz @fps 0.1 @erase_color 0 0 0 1 @visible 0 @sync 0"
                }
            },
            {
                "box": {
                    "comment": "",
                    "id": "obj-55",
                    "index": 1,
                    "maxclass": "inlet",
                    "numinlets": 0,
                    "numoutlets": 1,
                    "outlettype": [ "" ],
                    "patching_rect": [ 162.0, 68.0, 30.0, 30.0 ]
                }
            },
            {
                "box": {
                    "attr": "fsaa",
                    "id": "obj-1",
                    "maxclass": "attrui",
                    "numinlets": 1,
                    "numoutlets": 1,
                    "outlettype": [ "" ],
                    "parameter_enable": 0,
                    "patching_rect": [ 294.0, 197.0, 79.0, 22.0 ],
                    "text_width": 48.0
                }
            },
            {
                "box": {
                    "attr": "fps",
                    "id": "obj-4",
                    "maxclass": "attrui",
                    "numinlets": 1,
                    "numoutlets": 1,
                    "outlettype": [ "" ],
                    "parameter_enable": 0,
                    "patching_rect": [ 298.0, 151.0, 150.0, 22.0 ]
                }
            },
            {
                "box": {
                    "attr": "enable",
                    "id": "obj-6",
                    "maxclass": "attrui",
                    "numinlets": 1,
                    "numoutlets": 1,
                    "outlettype": [ "" ],
                    "parameter_enable": 0,
                    "patching_rect": [ 298.0, 53.0, 150.0, 22.0 ]
                }
            },
            {
                "box": {
                    "attr": "erase_color",
                    "id": "obj-20",
                    "maxclass": "attrui",
                    "numinlets": 1,
                    "numoutlets": 1,
                    "outlettype": [ "" ],
                    "parameter_enable": 0,
                    "patching_rect": [ 477.0, 221.0, 150.0, 22.0 ]
                }
            }
        ],
        "lines": [
            {
                "patchline": {
                    "destination": [ "obj-90", 0 ],
                    "source": [ "obj-1", 0 ]
                }
            },
            {
                "patchline": {
                    "destination": [ "obj-18", 0 ],
                    "source": [ "obj-10", 0 ]
                }
            },
            {
                "patchline": {
                    "destination": [ "obj-17", 0 ],
                    "source": [ "obj-11", 0 ]
                }
            },
            {
                "patchline": {
                    "destination": [ "obj-21", 0 ],
                    "source": [ "obj-11", 3 ]
                }
            },
            {
                "patchline": {
                    "destination": [ "obj-7", 0 ],
                    "source": [ "obj-11", 1 ]
                }
            },
            {
                "patchline": {
                    "destination": [ "obj-90", 0 ],
                    "source": [ "obj-11", 2 ]
                }
            },
            {
                "patchline": {
                    "destination": [ "obj-90", 0 ],
                    "source": [ "obj-12", 0 ]
                }
            },
            {
                "patchline": {
                    "destination": [ "obj-17", 0 ],
                    "source": [ "obj-13", 0 ]
                }
            },
            {
                "patchline": {
                    "destination": [ "obj-31", 0 ],
                    "source": [ "obj-15", 0 ]
                }
            },
            {
                "patchline": {
                    "destination": [ "obj-90", 0 ],
                    "source": [ "obj-16", 0 ]
                }
            },
            {
                "patchline": {
                    "destination": [ "obj-16", 0 ],
                    "source": [ "obj-17", 0 ]
                }
            },
            {
                "patchline": {
                    "destination": [ "obj-56", 0 ],
                    "source": [ "obj-18", 0 ]
                }
            },
            {
                "patchline": {
                    "destination": [ "obj-90", 0 ],
                    "source": [ "obj-20", 0 ]
                }
            },
            {
                "patchline": {
                    "destination": [ "obj-90", 0 ],
                    "source": [ "obj-21", 0 ]
                }
            },
            {
                "patchline": {
                    "destination": [ "obj-23", 0 ],
                    "source": [ "obj-22", 0 ]
                }
            },
            {
                "patchline": {
                    "destination": [ "obj-31", 0 ],
                    "source": [ "obj-26", 0 ]
                }
            },
            {
                "patchline": {
                    "destination": [ "obj-31", 0 ],
                    "source": [ "obj-28", 0 ]
                }
            },
            {
                "patchline": {
                    "destination": [ "obj-24", 0 ],
                    "source": [ "obj-29", 0 ]
                }
            },
            {
                "patchline": {
                    "destination": [ "obj-90", 0 ],
                    "source": [ "obj-29", 1 ]
                }
            },
            {
                "patchline": {
                    "destination": [ "obj-90", 0 ],
                    "source": [ "obj-3", 0 ]
                }
            },
            {
                "patchline": {
                    "destination": [ "obj-31", 0 ],
                    "source": [ "obj-30", 0 ]
                }
            },
            {
                "patchline": {
                    "destination": [ "obj-31", 0 ],
                    "source": [ "obj-32", 0 ]
                }
            },
            {
                "patchline": {
                    "destination": [ "obj-31", 0 ],
                    "source": [ "obj-33", 0 ]
                }
            },
            {
                "patchline": {
                    "destination": [ "obj-31", 0 ],
                    "source": [ "obj-34", 0 ]
                }
            },
            {
                "patchline": {
                    "destination": [ "obj-90", 0 ],
                    "source": [ "obj-4", 0 ]
                }
            },
            {
                "patchline": {
                    "destination": [ "obj-31", 0 ],
                    "source": [ "obj-5", 0 ]
                }
            },
            {
                "patchline": {
                    "destination": [ "obj-11", 0 ],
                    "source": [ "obj-55", 0 ]
                }
            },
            {
                "patchline": {
                    "destination": [ "obj-8", 0 ],
                    "source": [ "obj-56", 0 ]
                }
            },
            {
                "patchline": {
                    "destination": [ "obj-90", 0 ],
                    "source": [ "obj-56", 1 ]
                }
            },
            {
                "patchline": {
                    "destination": [ "obj-90", 0 ],
                    "source": [ "obj-6", 0 ]
                }
            },
            {
                "patchline": {
                    "destination": [ "obj-24", 0 ],
                    "source": [ "obj-8", 0 ]
                }
            },
            {
                "patchline": {
                    "destination": [ "obj-19", 0 ],
                    "order": 0,
                    "source": [ "obj-90", 2 ]
                }
            },
            {
                "patchline": {
                    "destination": [ "obj-2", 0 ],
                    "order": 1,
                    "source": [ "obj-90", 1 ]
                }
            },
            {
                "patchline": {
                    "destination": [ "obj-22", 0 ],
                    "order": 1,
                    "source": [ "obj-90", 2 ]
                }
            },
            {
                "patchline": {
                    "destination": [ "obj-54", 0 ],
                    "order": 0,
                    "source": [ "obj-90", 1 ]
                }
            }
        ],
        "patchlinecolor": [ 0.309803921568627, 0.309803921568627, 0.309803921568627, 1.0 ],
        "bgcolor": [ 0.647058823529412, 0.647058823529412, 0.647058823529412, 1.0 ],
        "editing_bgcolor": [ 0.647058823529412, 0.647058823529412, 0.647058823529412, 1.0 ]
    }
}