{
    "patcher": {
        "fileversion": 1,
        "appversion": {
            "major": 9,
            "minor": 2,
            "revision": 0,
            "architecture": "x64",
            "modernui": 1
        },
        "classnamespace": "box",
        "rect": [ -6.0, 156.0, 966.0, 766.0 ],
        "bglocked": 1,
        "boxes": [
            {
                "box": {
                    "id": "obj-44",
                    "maxclass": "message",
                    "numinlets": 2,
                    "numoutlets": 1,
                    "outlettype": [ "" ],
                    "patching_rect": [ 518.0, 441.0, 283.0, 22.0 ],
                    "text": "/TBO/channelRack/channel.*/pressure-range 40 70"
                }
            },
            {
                "box": {
                    "id": "obj-14",
                    "maxclass": "message",
                    "numinlets": 2,
                    "numoutlets": 1,
                    "outlettype": [ "" ],
                    "patching_rect": [ 518.0, 418.0, 283.0, 22.0 ],
                    "presentation_linecount": 2,
                    "text": "/TBO/channelRack/channel.1/velocity-range 80 100"
                }
            },
            {
                "box": {
                    "id": "obj-41",
                    "maxclass": "comment",
                    "numinlets": 1,
                    "numoutlets": 0,
                    "patching_rect": [ 523.0, 553.0, 79.0, 20.0 ],
                    "text": "MIDI-settings"
                }
            },
            {
                "box": {
                    "id": "obj-36",
                    "maxclass": "number",
                    "numinlets": 1,
                    "numoutlets": 2,
                    "outlettype": [ "", "bang" ],
                    "parameter_enable": 0,
                    "patching_rect": [ 466.0, 649.0, 50.0, 22.0 ]
                }
            },
            {
                "box": {
                    "id": "obj-39",
                    "maxclass": "message",
                    "numinlets": 2,
                    "numoutlets": 1,
                    "outlettype": [ "" ],
                    "patching_rect": [ 518.0, 651.0, 337.0, 22.0 ],
                    "text": "/TBO/channelRack/channel.1/MIDIsettings/output_channel $1"
                }
            },
            {
                "box": {
                    "id": "obj-35",
                    "maxclass": "message",
                    "numinlets": 2,
                    "numoutlets": 1,
                    "outlettype": [ "" ],
                    "patching_rect": [ 518.0, 625.0, 379.0, 22.0 ],
                    "text": "/TBO/channelRack/channel.1/MIDIsettings/output_device \"No Output\""
                }
            },
            {
                "box": {
                    "id": "obj-34",
                    "maxclass": "number",
                    "numinlets": 1,
                    "numoutlets": 2,
                    "outlettype": [ "", "bang" ],
                    "parameter_enable": 0,
                    "patching_rect": [ 466.0, 599.0, 50.0, 22.0 ]
                }
            },
            {
                "box": {
                    "id": "obj-31",
                    "maxclass": "message",
                    "numinlets": 2,
                    "numoutlets": 1,
                    "outlettype": [ "" ],
                    "patching_rect": [ 518.0, 601.0, 329.0, 22.0 ],
                    "text": "/TBO/channelRack/channel.1/MIDIsettings/input_channel $1"
                }
            },
            {
                "box": {
                    "id": "obj-29",
                    "maxclass": "message",
                    "numinlets": 2,
                    "numoutlets": 1,
                    "outlettype": [ "" ],
                    "patching_rect": [ 518.0, 575.0, 376.0, 22.0 ],
                    "text": "/TBO/channelRack/channel.1/MIDIsettings/input_device \"No Input\""
                }
            },
            {
                "box": {
                    "id": "obj-17",
                    "maxclass": "toggle",
                    "numinlets": 1,
                    "numoutlets": 1,
                    "outlettype": [ "int" ],
                    "parameter_enable": 0,
                    "patching_rect": [ 241.0, 347.0, 24.0, 24.0 ]
                }
            },
            {
                "box": {
                    "id": "obj-21",
                    "maxclass": "message",
                    "numinlets": 2,
                    "numoutlets": 1,
                    "outlettype": [ "" ],
                    "patching_rect": [ 270.0, 347.0, 186.0, 22.0 ],
                    "text": "/TBO/render/frameIndex/show $1"
                }
            },
            {
                "box": {
                    "id": "obj-85",
                    "maxclass": "toggle",
                    "numinlets": 1,
                    "numoutlets": 1,
                    "outlettype": [ "int" ],
                    "parameter_enable": 0,
                    "patching_rect": [ 489.0, 228.5, 24.0, 24.0 ]
                }
            },
            {
                "box": {
                    "id": "obj-86",
                    "maxclass": "message",
                    "numinlets": 2,
                    "numoutlets": 1,
                    "outlettype": [ "" ],
                    "patching_rect": [ 518.0, 228.5, 274.0, 22.0 ],
                    "text": "/TBO/channelRack/channel.1/timeline/show $1 $1"
                }
            },
            {
                "box": {
                    "id": "obj-84",
                    "maxclass": "number",
                    "numinlets": 1,
                    "numoutlets": 2,
                    "outlettype": [ "", "bang" ],
                    "parameter_enable": 0,
                    "patching_rect": [ 215.0, 496.0, 50.0, 22.0 ]
                }
            },
            {
                "box": {
                    "id": "obj-82",
                    "maxclass": "message",
                    "numinlets": 2,
                    "numoutlets": 1,
                    "outlettype": [ "" ],
                    "patching_rect": [ 270.0, 496.0, 166.0, 22.0 ],
                    "text": "/TBO/timeline/dispaymode $1"
                }
            },
            {
                "box": {
                    "id": "obj-79",
                    "maxclass": "toggle",
                    "numinlets": 1,
                    "numoutlets": 1,
                    "outlettype": [ "int" ],
                    "parameter_enable": 0,
                    "patching_rect": [ 241.0, 313.0, 24.0, 24.0 ]
                }
            },
            {
                "box": {
                    "id": "obj-80",
                    "maxclass": "message",
                    "numinlets": 2,
                    "numoutlets": 1,
                    "outlettype": [ "" ],
                    "patching_rect": [ 270.0, 313.0, 169.0, 22.0 ],
                    "text": "/TBO/render/neurons/show $1"
                }
            },
            {
                "box": {
                    "id": "obj-77",
                    "maxclass": "toggle",
                    "numinlets": 1,
                    "numoutlets": 1,
                    "outlettype": [ "int" ],
                    "parameter_enable": 0,
                    "patching_rect": [ 241.0, 281.0, 24.0, 24.0 ]
                }
            },
            {
                "box": {
                    "id": "obj-78",
                    "maxclass": "message",
                    "numinlets": 2,
                    "numoutlets": 1,
                    "outlettype": [ "" ],
                    "patching_rect": [ 270.0, 281.0, 167.0, 22.0 ],
                    "text": "/TBO/render/clusters/show $1"
                }
            },
            {
                "box": {
                    "id": "obj-74",
                    "maxclass": "toggle",
                    "numinlets": 1,
                    "numoutlets": 1,
                    "outlettype": [ "int" ],
                    "parameter_enable": 0,
                    "patching_rect": [ 241.0, 249.0, 24.0, 24.0 ]
                }
            },
            {
                "box": {
                    "id": "obj-75",
                    "maxclass": "message",
                    "numinlets": 2,
                    "numoutlets": 1,
                    "outlettype": [ "" ],
                    "patching_rect": [ 270.0, 249.0, 161.0, 22.0 ],
                    "text": "/TBO/render/labels/show $1"
                }
            },
            {
                "box": {
                    "id": "obj-72",
                    "maxclass": "comment",
                    "numinlets": 1,
                    "numoutlets": 0,
                    "patching_rect": [ 531.0, 107.0, 97.0, 20.0 ],
                    "text": "RACK"
                }
            },
            {
                "box": {
                    "id": "obj-71",
                    "maxclass": "toggle",
                    "numinlets": 1,
                    "numoutlets": 1,
                    "outlettype": [ "int" ],
                    "parameter_enable": 0,
                    "patching_rect": [ 489.0, 517.0, 24.0, 24.0 ]
                }
            },
            {
                "box": {
                    "id": "obj-70",
                    "maxclass": "toggle",
                    "numinlets": 1,
                    "numoutlets": 1,
                    "outlettype": [ "int" ],
                    "parameter_enable": 0,
                    "patching_rect": [ 489.0, 491.0, 24.0, 24.0 ]
                }
            },
            {
                "box": {
                    "id": "obj-69",
                    "maxclass": "message",
                    "numinlets": 2,
                    "numoutlets": 1,
                    "outlettype": [ "" ],
                    "patching_rect": [ 518.0, 518.0, 250.0, 22.0 ],
                    "text": "/TBO/channelRack/channel.1/monophonic $1"
                }
            },
            {
                "box": {
                    "id": "obj-68",
                    "maxclass": "message",
                    "numinlets": 2,
                    "numoutlets": 1,
                    "outlettype": [ "" ],
                    "patching_rect": [ 518.0, 492.0, 217.0, 22.0 ],
                    "text": "/TBO/channelRack/channel.1/legato $1"
                }
            },
            {
                "box": {
                    "id": "obj-67",
                    "maxclass": "toggle",
                    "numinlets": 1,
                    "numoutlets": 1,
                    "outlettype": [ "int" ],
                    "parameter_enable": 0,
                    "patching_rect": [ 489.0, 463.0, 24.0, 24.0 ]
                }
            },
            {
                "box": {
                    "id": "obj-66",
                    "maxclass": "message",
                    "numinlets": 2,
                    "numoutlets": 1,
                    "outlettype": [ "" ],
                    "patching_rect": [ 518.0, 465.0, 207.0, 22.0 ],
                    "text": "/TBO/channelRack/channel.1/hold $1"
                }
            },
            {
                "box": {
                    "id": "obj-64",
                    "maxclass": "number",
                    "numinlets": 1,
                    "numoutlets": 2,
                    "outlettype": [ "", "bang" ],
                    "parameter_enable": 0,
                    "patching_rect": [ 463.0, 379.0, 50.0, 22.0 ]
                }
            },
            {
                "box": {
                    "id": "obj-62",
                    "maxclass": "message",
                    "numinlets": 2,
                    "numoutlets": 1,
                    "outlettype": [ "" ],
                    "patching_rect": [ 518.0, 379.0, 273.0, 22.0 ],
                    "text": "/TBO/channelRack/channel.1/subcluster-count $1"
                }
            },
            {
                "box": {
                    "id": "obj-61",
                    "maxclass": "message",
                    "numinlets": 2,
                    "numoutlets": 1,
                    "outlettype": [ "" ],
                    "patching_rect": [ 518.0, 355.0, 369.0, 22.0 ],
                    "text": "/TBO/channelRack/channel.1/subcluster-method \"auto: sort-activity\""
                }
            },
            {
                "box": {
                    "id": "obj-58",
                    "maxclass": "message",
                    "numinlets": 2,
                    "numoutlets": 1,
                    "outlettype": [ "" ],
                    "patching_rect": [ 518.0, 330.0, 340.0, 22.0 ],
                    "text": "/TBO/channelRack/channel.1/subcluster-method \"auto: divide\""
                }
            },
            {
                "box": {
                    "id": "obj-54",
                    "maxclass": "message",
                    "numinlets": 2,
                    "numoutlets": 1,
                    "outlettype": [ "" ],
                    "patching_rect": [ 518.0, 306.0, 455.0, 22.0 ],
                    "text": "/TBO/channelRack/channel.1/clustername \"15 Diencephalon - Habenula [size: 149]\""
                }
            },
            {
                "box": {
                    "id": "obj-53",
                    "maxclass": "message",
                    "numinlets": 2,
                    "numoutlets": 1,
                    "outlettype": [ "" ],
                    "patching_rect": [ 518.0, 281.0, 302.0, 22.0 ],
                    "text": "/TBO/channelRack/channel.1/clustername \"No Cluster\""
                }
            },
            {
                "box": {
                    "bubble": 1,
                    "id": "obj-51",
                    "linecount": 2,
                    "maxclass": "comment",
                    "numinlets": 1,
                    "numoutlets": 0,
                    "patching_rect": [ 728.0, 163.0, 168.0, 37.0 ],
                    "text": "use wildcard for MVC-enabled parameters"
                }
            },
            {
                "box": {
                    "id": "obj-49",
                    "maxclass": "toggle",
                    "numinlets": 1,
                    "numoutlets": 1,
                    "outlettype": [ "int" ],
                    "parameter_enable": 0,
                    "patching_rect": [ 489.0, 172.0, 24.0, 24.0 ]
                }
            },
            {
                "box": {
                    "id": "obj-47",
                    "maxclass": "message",
                    "numinlets": 2,
                    "numoutlets": 1,
                    "outlettype": [ "" ],
                    "patching_rect": [ 518.0, 172.0, 208.0, 22.0 ],
                    "text": "/TBO/channelRack/channel.*/ON $1"
                }
            },
            {
                "box": {
                    "id": "obj-45",
                    "maxclass": "newobj",
                    "numinlets": 1,
                    "numoutlets": 1,
                    "outlettype": [ "" ],
                    "patching_rect": [ 518.0, 685.0, 19.0, 22.0 ],
                    "text": "t l"
                }
            },
            {
                "box": {
                    "id": "obj-42",
                    "maxclass": "toggle",
                    "numinlets": 1,
                    "numoutlets": 1,
                    "outlettype": [ "int" ],
                    "parameter_enable": 0,
                    "patching_rect": [ 489.0, 140.0, 24.0, 24.0 ]
                }
            },
            {
                "box": {
                    "id": "obj-43",
                    "maxclass": "message",
                    "numinlets": 2,
                    "numoutlets": 1,
                    "outlettype": [ "" ],
                    "patching_rect": [ 518.0, 140.0, 208.0, 22.0 ],
                    "text": "/TBO/channelRack/channel.1/ON $1"
                }
            },
            {
                "box": {
                    "id": "obj-40",
                    "maxclass": "comment",
                    "numinlets": 1,
                    "numoutlets": 0,
                    "patching_rect": [ 270.0, 424.0, 97.0, 20.0 ],
                    "text": "MAIN TIMELINE"
                }
            },
            {
                "box": {
                    "id": "obj-37",
                    "maxclass": "toggle",
                    "numinlets": 1,
                    "numoutlets": 1,
                    "outlettype": [ "int" ],
                    "parameter_enable": 0,
                    "patching_rect": [ 241.0, 457.0, 24.0, 24.0 ]
                }
            },
            {
                "box": {
                    "id": "obj-38",
                    "maxclass": "message",
                    "numinlets": 2,
                    "numoutlets": 1,
                    "outlettype": [ "" ],
                    "patching_rect": [ 270.0, 457.0, 129.0, 22.0 ],
                    "text": "/TBO/timeline/show $1"
                }
            },
            {
                "box": {
                    "id": "obj-32",
                    "maxclass": "number",
                    "minimum": 0,
                    "numinlets": 1,
                    "numoutlets": 2,
                    "outlettype": [ "", "bang" ],
                    "parameter_enable": 0,
                    "patching_rect": [ 215.0, 201.0, 50.0, 22.0 ]
                }
            },
            {
                "box": {
                    "id": "obj-30",
                    "maxclass": "message",
                    "numinlets": 2,
                    "numoutlets": 1,
                    "outlettype": [ "" ],
                    "patching_rect": [ 270.0, 201.0, 150.0, 22.0 ],
                    "text": "/TBO/render/FSmonitor $1"
                }
            },
            {
                "box": {
                    "id": "obj-27",
                    "maxclass": "toggle",
                    "numinlets": 1,
                    "numoutlets": 1,
                    "outlettype": [ "int" ],
                    "parameter_enable": 0,
                    "patching_rect": [ 241.0, 172.0, 24.0, 24.0 ]
                }
            },
            {
                "box": {
                    "id": "obj-28",
                    "maxclass": "message",
                    "numinlets": 2,
                    "numoutlets": 1,
                    "outlettype": [ "" ],
                    "patching_rect": [ 270.0, 172.0, 146.0, 22.0 ],
                    "text": "/TBO/render/fullscreen $1"
                }
            },
            {
                "box": {
                    "id": "obj-26",
                    "maxclass": "newobj",
                    "numinlets": 1,
                    "numoutlets": 1,
                    "outlettype": [ "" ],
                    "patching_rect": [ 270.0, 685.0, 19.0, 22.0 ],
                    "text": "t l"
                }
            },
            {
                "box": {
                    "id": "obj-24",
                    "maxclass": "toggle",
                    "numinlets": 1,
                    "numoutlets": 1,
                    "outlettype": [ "int" ],
                    "parameter_enable": 0,
                    "patching_rect": [ 241.0, 140.0, 24.0, 24.0 ]
                }
            },
            {
                "box": {
                    "id": "obj-25",
                    "maxclass": "message",
                    "numinlets": 2,
                    "numoutlets": 1,
                    "outlettype": [ "" ],
                    "patching_rect": [ 270.0, 140.0, 129.0, 22.0 ],
                    "text": "/TBO/render/ON $1"
                }
            },
            {
                "box": {
                    "id": "obj-23",
                    "maxclass": "comment",
                    "numinlets": 1,
                    "numoutlets": 0,
                    "patching_rect": [ 260.0, 107.0, 82.0, 20.0 ],
                    "text": "DATA-VIZ"
                }
            },
            {
                "box": {
                    "id": "obj-22",
                    "maxclass": "comment",
                    "numinlets": 1,
                    "numoutlets": 0,
                    "patching_rect": [ 64.0, 107.0, 82.0, 20.0 ],
                    "text": "TRANSPORT"
                }
            },
            {
                "box": {
                    "id": "obj-20",
                    "maxclass": "message",
                    "numinlets": 2,
                    "numoutlets": 1,
                    "outlettype": [ "" ],
                    "patching_rect": [ 63.0, 289.1666666666667, 138.0, 22.0 ],
                    "text": "/TBO/transport/frame $1"
                }
            },
            {
                "box": {
                    "id": "obj-10",
                    "maxclass": "comment",
                    "numinlets": 1,
                    "numoutlets": 0,
                    "patching_rect": [ 20.0, 57.0, 343.0, 20.0 ],
                    "text": "Remote-control The Brain Orchestra with theseOSC messages"
                }
            },
            {
                "box": {
                    "fontsize": 24.0,
                    "id": "obj-134",
                    "maxclass": "comment",
                    "numinlets": 1,
                    "numoutlets": 0,
                    "patching_rect": [ 57.0, 15.0, 333.0, 33.0 ],
                    "text": "OpenSoundControl (OSC) API"
                }
            },
            {
                "box": {
                    "comment": "",
                    "id": "obj-2",
                    "index": 1,
                    "maxclass": "inlet",
                    "numinlets": 0,
                    "numoutlets": 1,
                    "outlettype": [ "" ],
                    "patching_rect": [ 19.0, 16.0, 30.0, 30.0 ]
                }
            },
            {
                "box": {
                    "id": "obj-18",
                    "maxclass": "number",
                    "maximum": 4,
                    "minimum": 0,
                    "numinlets": 1,
                    "numoutlets": 2,
                    "outlettype": [ "", "bang" ],
                    "parameter_enable": 0,
                    "patching_rect": [ 11.0, 319.0, 50.0, 22.0 ]
                }
            },
            {
                "box": {
                    "id": "obj-19",
                    "maxclass": "message",
                    "numinlets": 2,
                    "numoutlets": 1,
                    "outlettype": [ "" ],
                    "patching_rect": [ 63.0, 319.0, 147.0, 22.0 ],
                    "text": "/TBO/transport/division $1"
                }
            },
            {
                "box": {
                    "id": "obj-16",
                    "maxclass": "number",
                    "numinlets": 1,
                    "numoutlets": 2,
                    "outlettype": [ "", "bang" ],
                    "parameter_enable": 0,
                    "patching_rect": [ 11.0, 290.0, 50.0, 22.0 ]
                }
            },
            {
                "box": {
                    "id": "obj-15",
                    "maxclass": "number",
                    "numinlets": 1,
                    "numoutlets": 2,
                    "outlettype": [ "", "bang" ],
                    "parameter_enable": 0,
                    "patching_rect": [ 11.0, 260.0, 50.0, 22.0 ]
                }
            },
            {
                "box": {
                    "id": "obj-13",
                    "maxclass": "message",
                    "numinlets": 2,
                    "numoutlets": 1,
                    "outlettype": [ "" ],
                    "patching_rect": [ 63.0, 259.33333333333337, 141.0, 22.0 ],
                    "text": "/TBO/transport/tempo $1"
                }
            },
            {
                "box": {
                    "id": "obj-12",
                    "maxclass": "newobj",
                    "numinlets": 1,
                    "numoutlets": 1,
                    "outlettype": [ "" ],
                    "patching_rect": [ 87.0, 677.0, 77.0, 22.0 ],
                    "text": "prepend port"
                }
            },
            {
                "box": {
                    "id": "obj-11",
                    "maxclass": "number",
                    "numinlets": 1,
                    "numoutlets": 2,
                    "outlettype": [ "", "bang" ],
                    "parameter_enable": 0,
                    "patching_rect": [ 87.0, 646.0, 50.0, 22.0 ]
                }
            },
            {
                "box": {
                    "id": "obj-9",
                    "maxclass": "newobj",
                    "numinlets": 0,
                    "numoutlets": 1,
                    "outlettype": [ "" ],
                    "patching_rect": [ 87.0, 617.0, 155.0, 22.0 ],
                    "text": "r /TBO/network/UDP/in/port"
                }
            },
            {
                "box": {
                    "id": "obj-8",
                    "maxclass": "message",
                    "numinlets": 2,
                    "numoutlets": 1,
                    "outlettype": [ "" ],
                    "patching_rect": [ 63.0, 229.50000000000003, 113.0, 22.0 ],
                    "text": "/TBO/transport/rew"
                }
            },
            {
                "box": {
                    "id": "obj-7",
                    "maxclass": "message",
                    "numinlets": 2,
                    "numoutlets": 1,
                    "outlettype": [ "" ],
                    "patching_rect": [ 64.0, 199.66666666666669, 113.0, 22.0 ],
                    "text": "/TBO/transport/rec"
                }
            },
            {
                "box": {
                    "id": "obj-6",
                    "maxclass": "message",
                    "numinlets": 2,
                    "numoutlets": 1,
                    "outlettype": [ "" ],
                    "patching_rect": [ 64.0, 169.83333333333334, 113.0, 22.0 ],
                    "text": "/TBO/transport/stop"
                }
            },
            {
                "box": {
                    "id": "obj-5",
                    "maxclass": "toggle",
                    "numinlets": 1,
                    "numoutlets": 1,
                    "outlettype": [ "int" ],
                    "parameter_enable": 0,
                    "patching_rect": [ 35.0, 140.0, 24.0, 24.0 ]
                }
            },
            {
                "box": {
                    "id": "obj-3",
                    "maxclass": "message",
                    "numinlets": 2,
                    "numoutlets": 1,
                    "outlettype": [ "" ],
                    "patching_rect": [ 64.0, 140.0, 129.0, 22.0 ],
                    "text": "/TBO/transport/play $1"
                }
            },
            {
                "box": {
                    "id": "obj-1",
                    "maxclass": "newobj",
                    "numinlets": 1,
                    "numoutlets": 0,
                    "patching_rect": [ 63.0, 735.0, 138.0, 22.0 ],
                    "text": "udpsend 127.0.0.1 8000"
                }
            }
        ],
        "lines": [
            {
                "patchline": {
                    "destination": [ "obj-12", 0 ],
                    "source": [ "obj-11", 0 ]
                }
            },
            {
                "patchline": {
                    "destination": [ "obj-1", 0 ],
                    "midpoints": [ 96.5, 715.53515625, 72.5, 715.53515625 ],
                    "source": [ "obj-12", 0 ]
                }
            },
            {
                "patchline": {
                    "destination": [ "obj-1", 0 ],
                    "source": [ "obj-13", 0 ]
                }
            },
            {
                "patchline": {
                    "destination": [ "obj-45", 0 ],
                    "source": [ "obj-14", 0 ]
                }
            },
            {
                "patchline": {
                    "destination": [ "obj-13", 0 ],
                    "source": [ "obj-15", 0 ]
                }
            },
            {
                "patchline": {
                    "destination": [ "obj-20", 0 ],
                    "source": [ "obj-16", 0 ]
                }
            },
            {
                "patchline": {
                    "destination": [ "obj-21", 0 ],
                    "source": [ "obj-17", 0 ]
                }
            },
            {
                "patchline": {
                    "destination": [ "obj-19", 0 ],
                    "source": [ "obj-18", 0 ]
                }
            },
            {
                "patchline": {
                    "destination": [ "obj-1", 0 ],
                    "source": [ "obj-19", 0 ]
                }
            },
            {
                "patchline": {
                    "destination": [ "obj-1", 0 ],
                    "source": [ "obj-20", 0 ]
                }
            },
            {
                "patchline": {
                    "destination": [ "obj-26", 0 ],
                    "source": [ "obj-21", 0 ]
                }
            },
            {
                "patchline": {
                    "destination": [ "obj-25", 0 ],
                    "source": [ "obj-24", 0 ]
                }
            },
            {
                "patchline": {
                    "destination": [ "obj-26", 0 ],
                    "source": [ "obj-25", 0 ]
                }
            },
            {
                "patchline": {
                    "destination": [ "obj-1", 0 ],
                    "midpoints": [ 279.5, 720.0, 72.5, 720.0 ],
                    "source": [ "obj-26", 0 ]
                }
            },
            {
                "patchline": {
                    "destination": [ "obj-28", 0 ],
                    "source": [ "obj-27", 0 ]
                }
            },
            {
                "patchline": {
                    "destination": [ "obj-26", 0 ],
                    "source": [ "obj-28", 0 ]
                }
            },
            {
                "patchline": {
                    "destination": [ "obj-45", 0 ],
                    "source": [ "obj-29", 0 ]
                }
            },
            {
                "patchline": {
                    "destination": [ "obj-1", 0 ],
                    "source": [ "obj-3", 0 ]
                }
            },
            {
                "patchline": {
                    "destination": [ "obj-26", 0 ],
                    "source": [ "obj-30", 0 ]
                }
            },
            {
                "patchline": {
                    "destination": [ "obj-45", 0 ],
                    "source": [ "obj-31", 0 ]
                }
            },
            {
                "patchline": {
                    "destination": [ "obj-30", 0 ],
                    "source": [ "obj-32", 0 ]
                }
            },
            {
                "patchline": {
                    "destination": [ "obj-31", 0 ],
                    "source": [ "obj-34", 0 ]
                }
            },
            {
                "patchline": {
                    "destination": [ "obj-45", 0 ],
                    "source": [ "obj-35", 0 ]
                }
            },
            {
                "patchline": {
                    "destination": [ "obj-39", 0 ],
                    "source": [ "obj-36", 0 ]
                }
            },
            {
                "patchline": {
                    "destination": [ "obj-38", 0 ],
                    "source": [ "obj-37", 0 ]
                }
            },
            {
                "patchline": {
                    "destination": [ "obj-26", 0 ],
                    "source": [ "obj-38", 0 ]
                }
            },
            {
                "patchline": {
                    "destination": [ "obj-45", 0 ],
                    "source": [ "obj-39", 0 ]
                }
            },
            {
                "patchline": {
                    "destination": [ "obj-43", 0 ],
                    "source": [ "obj-42", 0 ]
                }
            },
            {
                "patchline": {
                    "destination": [ "obj-45", 0 ],
                    "source": [ "obj-43", 0 ]
                }
            },
            {
                "patchline": {
                    "destination": [ "obj-45", 0 ],
                    "source": [ "obj-44", 0 ]
                }
            },
            {
                "patchline": {
                    "destination": [ "obj-1", 0 ],
                    "midpoints": [ 527.5, 728.1953125, 72.5, 728.1953125 ],
                    "source": [ "obj-45", 0 ]
                }
            },
            {
                "patchline": {
                    "destination": [ "obj-45", 0 ],
                    "source": [ "obj-47", 0 ]
                }
            },
            {
                "patchline": {
                    "destination": [ "obj-47", 0 ],
                    "source": [ "obj-49", 0 ]
                }
            },
            {
                "patchline": {
                    "destination": [ "obj-3", 0 ],
                    "source": [ "obj-5", 0 ]
                }
            },
            {
                "patchline": {
                    "destination": [ "obj-45", 0 ],
                    "source": [ "obj-53", 0 ]
                }
            },
            {
                "patchline": {
                    "destination": [ "obj-45", 0 ],
                    "source": [ "obj-54", 0 ]
                }
            },
            {
                "patchline": {
                    "destination": [ "obj-45", 0 ],
                    "source": [ "obj-58", 0 ]
                }
            },
            {
                "patchline": {
                    "destination": [ "obj-1", 0 ],
                    "source": [ "obj-6", 0 ]
                }
            },
            {
                "patchline": {
                    "destination": [ "obj-45", 0 ],
                    "source": [ "obj-61", 0 ]
                }
            },
            {
                "patchline": {
                    "destination": [ "obj-45", 0 ],
                    "source": [ "obj-62", 0 ]
                }
            },
            {
                "patchline": {
                    "destination": [ "obj-62", 0 ],
                    "source": [ "obj-64", 0 ]
                }
            },
            {
                "patchline": {
                    "destination": [ "obj-45", 0 ],
                    "source": [ "obj-66", 0 ]
                }
            },
            {
                "patchline": {
                    "destination": [ "obj-66", 0 ],
                    "source": [ "obj-67", 0 ]
                }
            },
            {
                "patchline": {
                    "destination": [ "obj-45", 0 ],
                    "source": [ "obj-68", 0 ]
                }
            },
            {
                "patchline": {
                    "destination": [ "obj-45", 0 ],
                    "source": [ "obj-69", 0 ]
                }
            },
            {
                "patchline": {
                    "destination": [ "obj-1", 0 ],
                    "source": [ "obj-7", 0 ]
                }
            },
            {
                "patchline": {
                    "destination": [ "obj-68", 0 ],
                    "source": [ "obj-70", 0 ]
                }
            },
            {
                "patchline": {
                    "destination": [ "obj-69", 0 ],
                    "source": [ "obj-71", 0 ]
                }
            },
            {
                "patchline": {
                    "destination": [ "obj-75", 0 ],
                    "source": [ "obj-74", 0 ]
                }
            },
            {
                "patchline": {
                    "destination": [ "obj-26", 0 ],
                    "source": [ "obj-75", 0 ]
                }
            },
            {
                "patchline": {
                    "destination": [ "obj-78", 0 ],
                    "source": [ "obj-77", 0 ]
                }
            },
            {
                "patchline": {
                    "destination": [ "obj-26", 0 ],
                    "source": [ "obj-78", 0 ]
                }
            },
            {
                "patchline": {
                    "destination": [ "obj-80", 0 ],
                    "source": [ "obj-79", 0 ]
                }
            },
            {
                "patchline": {
                    "destination": [ "obj-1", 0 ],
                    "source": [ "obj-8", 0 ]
                }
            },
            {
                "patchline": {
                    "destination": [ "obj-26", 0 ],
                    "source": [ "obj-80", 0 ]
                }
            },
            {
                "patchline": {
                    "destination": [ "obj-26", 0 ],
                    "source": [ "obj-82", 0 ]
                }
            },
            {
                "patchline": {
                    "destination": [ "obj-82", 0 ],
                    "source": [ "obj-84", 0 ]
                }
            },
            {
                "patchline": {
                    "destination": [ "obj-86", 0 ],
                    "source": [ "obj-85", 0 ]
                }
            },
            {
                "patchline": {
                    "destination": [ "obj-45", 0 ],
                    "source": [ "obj-86", 0 ]
                }
            },
            {
                "patchline": {
                    "destination": [ "obj-11", 0 ],
                    "source": [ "obj-9", 0 ]
                }
            }
        ]
    }
}