{
    "patcher": {
        "fileversion": 1,
        "appversion": {
            "major": 9,
            "minor": 2,
            "revision": 0,
            "architecture": "x64",
            "modernui": 1
        },
        "classnamespace": "box",
        "rect": [ 58.0, 119.0, 495.0, 526.0 ],
        "openinpresentation": 1,
        "lefttoolbarpinned": 2,
        "toptoolbarpinned": 2,
        "righttoolbarpinned": 2,
        "bottomtoolbarpinned": 2,
        "toolbars_unpinned_last_save": 15,
        "boxes": [
            {
                "box": {
                    "id": "obj-2",
                    "maxclass": "comment",
                    "numinlets": 1,
                    "numoutlets": 0,
                    "patching_rect": [ 64.0, 241.0, 394.0, 20.0 ],
                    "presentation": 1,
                    "presentation_rect": [ 86.0, 204.0, 394.0, 20.0 ],
                    "text": "Full screen monitor (0 = main screen, 1+ = other monitors)"
                }
            },
            {
                "box": {
                    "hidden": 1,
                    "id": "obj-8",
                    "maxclass": "newobj",
                    "numinlets": 1,
                    "numoutlets": 1,
                    "outlettype": [ "" ],
                    "patching_rect": [ 65.5, 307.0, 211.0, 22.0 ],
                    "text": "prepend store /TBO/render/FSmonitor"
                }
            },
            {
                "box": {
                    "id": "obj-9",
                    "maxclass": "number",
                    "minimum": 0,
                    "numinlets": 1,
                    "numoutlets": 2,
                    "outlettype": [ "", "bang" ],
                    "parameter_enable": 0,
                    "patching_rect": [ 65.5, 270.0, 50.0, 22.0 ],
                    "presentation": 1,
                    "presentation_rect": [ 24.0, 203.0, 50.0, 22.0 ]
                }
            },
            {
                "box": {
                    "id": "obj-11",
                    "maxclass": "newobj",
                    "numinlets": 1,
                    "numoutlets": 1,
                    "outlettype": [ "" ],
                    "patching_rect": [ 122.5, 270.0, 151.0, 22.0 ],
                    "text": "sw /TBO/render/FSmonitor"
                }
            },
            {
                "box": {
                    "comment": "",
                    "id": "obj-36",
                    "index": 1,
                    "maxclass": "inlet",
                    "numinlets": 0,
                    "numoutlets": 1,
                    "outlettype": [ "" ],
                    "patching_rect": [ 20.0, 58.0, 30.0, 30.0 ]
                }
            },
            {
                "box": {
                    "id": "obj-35",
                    "maxclass": "live.line",
                    "numinlets": 1,
                    "numoutlets": 0,
                    "patching_rect": [ 63.0, 106.0, 378.0, 10.0 ],
                    "presentation": 1,
                    "presentation_rect": [ 24.0, 128.0, 456.0, 5.0 ]
                }
            },
            {
                "box": {
                    "fontsize": 14.0,
                    "id": "obj-34",
                    "maxclass": "newobj",
                    "numinlets": 1,
                    "numoutlets": 0,
                    "patcher": {
                        "fileversion": 1,
                        "appversion": {
                            "major": 9,
                            "minor": 2,
                            "revision": 0,
                            "architecture": "x64",
                            "modernui": 1
                        },
                        "classnamespace": "box",
                        "rect": [ 59.0, 119.0, 566.0, 524.0 ],
                        "boxes": [
                            {
                                "box": {
                                    "comment": "",
                                    "id": "obj-4",
                                    "index": 1,
                                    "maxclass": "inlet",
                                    "numinlets": 0,
                                    "numoutlets": 1,
                                    "outlettype": [ "" ],
                                    "patching_rect": [ 48.0, 13.0, 30.0, 30.0 ]
                                }
                            },
                            {
                                "box": {
                                    "id": "obj-3",
                                    "maxclass": "newobj",
                                    "numinlets": 1,
                                    "numoutlets": 1,
                                    "outlettype": [ "dump" ],
                                    "patching_rect": [ 214.0, 159.0, 45.0, 22.0 ],
                                    "text": "t dump"
                                }
                            },
                            {
                                "box": {
                                    "id": "obj-29",
                                    "maxclass": "newobj",
                                    "numinlets": 1,
                                    "numoutlets": 1,
                                    "outlettype": [ "dump" ],
                                    "patching_rect": [ 48.0, 57.0, 45.0, 22.0 ],
                                    "text": "t dump"
                                }
                            },
                            {
                                "box": {
                                    "id": "obj-23",
                                    "maxclass": "newobj",
                                    "numinlets": 1,
                                    "numoutlets": 1,
                                    "outlettype": [ "" ],
                                    "patching_rect": [ 101.0, 159.0, 102.0, 22.0 ],
                                    "text": "prepend set store"
                                }
                            },
                            {
                                "box": {
                                    "id": "obj-21",
                                    "linecount": 2,
                                    "maxclass": "newobj",
                                    "numinlets": 2,
                                    "numoutlets": 2,
                                    "outlettype": [ "", "" ],
                                    "patching_rect": [ 101.0, 117.0, 53.0, 35.0 ],
                                    "text": "route symbol"
                                }
                            },
                            {
                                "box": {
                                    "id": "obj-20",
                                    "linecount": 2,
                                    "maxclass": "newobj",
                                    "numinlets": 2,
                                    "numoutlets": 2,
                                    "outlettype": [ "", "" ],
                                    "patching_rect": [ 47.0, 117.0, 53.0, 35.0 ],
                                    "text": "route symbol"
                                }
                            },
                            {
                                "box": {
                                    "id": "obj-18",
                                    "maxclass": "newobj",
                                    "numinlets": 1,
                                    "numoutlets": 1,
                                    "outlettype": [ "" ],
                                    "patching_rect": [ 47.0, 188.0, 53.0, 22.0 ],
                                    "text": "prepend"
                                }
                            },
                            {
                                "box": {
                                    "coll_data": {
                                        "count": 2,
                                        "data": [
                                            {
                                                "key": "/TBO/subcluster-method/k-means/warning-size",
                                                "value": [ 5000 ]
                                            },
                                            {
                                                "key": "/TBO/render/FSmonitor",
                                                "value": [ 0 ]
                                            }
                                        ]
                                    },
                                    "id": "obj-11",
                                    "maxclass": "newobj",
                                    "numinlets": 1,
                                    "numoutlets": 4,
                                    "outlettype": [ "", "", "", "" ],
                                    "patching_rect": [ 47.0, 87.0, 186.0, 22.0 ],
                                    "saved_object_attributes": {
                                        "embed": 1,
                                        "precision": 6
                                    },
                                    "text": "coll tbo.preferences.factory.coll"
                                }
                            },
                            {
                                "box": {
                                    "id": "obj-33",
                                    "maxclass": "newobj",
                                    "numinlets": 1,
                                    "numoutlets": 1,
                                    "outlettype": [ "" ],
                                    "patching_rect": [ 281.0, 158.0, 58.0, 22.0 ],
                                    "text": "deferlow"
                                }
                            },
                            {
                                "box": {
                                    "id": "obj-32",
                                    "maxclass": "newobj",
                                    "numinlets": 1,
                                    "numoutlets": 1,
                                    "outlettype": [ "bang" ],
                                    "patching_rect": [ 281.0, 129.0, 58.0, 22.0 ],
                                    "text": "loadbang"
                                }
                            },
                            {
                                "box": {
                                    "id": "obj-28",
                                    "maxclass": "message",
                                    "numinlets": 2,
                                    "numoutlets": 1,
                                    "outlettype": [ "" ],
                                    "patching_rect": [ 431.0, 188.0, 35.0, 22.0 ],
                                    "text": "clear"
                                }
                            },
                            {
                                "box": {
                                    "id": "obj-27",
                                    "maxclass": "newobj",
                                    "numinlets": 1,
                                    "numoutlets": 1,
                                    "outlettype": [ "" ],
                                    "patching_rect": [ 87.0, 327.0, 82.0, 22.0 ],
                                    "text": "prepend send"
                                }
                            },
                            {
                                "box": {
                                    "id": "obj-26",
                                    "maxclass": "newobj",
                                    "numinlets": 2,
                                    "numoutlets": 2,
                                    "outlettype": [ "", "" ],
                                    "patching_rect": [ 87.0, 302.0, 77.0, 22.0 ],
                                    "text": "route symbol"
                                }
                            },
                            {
                                "box": {
                                    "id": "obj-25",
                                    "maxclass": "newobj",
                                    "numinlets": 1,
                                    "numoutlets": 0,
                                    "patching_rect": [ 47.0, 376.0, 49.0, 22.0 ],
                                    "text": "forward"
                                }
                            },
                            {
                                "box": {
                                    "id": "obj-22",
                                    "maxclass": "newobj",
                                    "numinlets": 1,
                                    "numoutlets": 1,
                                    "outlettype": [ "dump" ],
                                    "patching_rect": [ 124.0, 265.0, 45.0, 22.0 ],
                                    "text": "t dump"
                                }
                            },
                            {
                                "box": {
                                    "id": "obj-17",
                                    "maxclass": "message",
                                    "numinlets": 2,
                                    "numoutlets": 1,
                                    "outlettype": [ "" ],
                                    "patching_rect": [ 471.0, 188.0, 34.0, 22.0 ],
                                    "text": "write"
                                }
                            },
                            {
                                "box": {
                                    "id": "obj-15",
                                    "maxclass": "message",
                                    "numinlets": 2,
                                    "numoutlets": 1,
                                    "outlettype": [ "" ],
                                    "patching_rect": [ 281.0, 188.0, 141.0, 22.0 ],
                                    "text": "read tbo.preferences.coll"
                                }
                            },
                            {
                                "box": {
                                    "id": "obj-13",
                                    "maxclass": "newobj",
                                    "numinlets": 1,
                                    "numoutlets": 4,
                                    "outlettype": [ "", "", "", "" ],
                                    "patching_rect": [ 47.0, 234.0, 135.0, 22.0 ],
                                    "saved_object_attributes": {
                                        "embed": 0,
                                        "precision": 6
                                    },
                                    "text": "coll tbo.preferences.coll"
                                }
                            }
                        ],
                        "lines": [
                            {
                                "patchline": {
                                    "destination": [ "obj-20", 0 ],
                                    "source": [ "obj-11", 0 ]
                                }
                            },
                            {
                                "patchline": {
                                    "destination": [ "obj-21", 0 ],
                                    "source": [ "obj-11", 1 ]
                                }
                            },
                            {
                                "patchline": {
                                    "destination": [ "obj-3", 0 ],
                                    "source": [ "obj-11", 3 ]
                                }
                            },
                            {
                                "patchline": {
                                    "destination": [ "obj-22", 0 ],
                                    "source": [ "obj-13", 2 ]
                                }
                            },
                            {
                                "patchline": {
                                    "destination": [ "obj-25", 0 ],
                                    "source": [ "obj-13", 0 ]
                                }
                            },
                            {
                                "patchline": {
                                    "destination": [ "obj-26", 0 ],
                                    "source": [ "obj-13", 1 ]
                                }
                            },
                            {
                                "patchline": {
                                    "destination": [ "obj-13", 0 ],
                                    "source": [ "obj-15", 0 ]
                                }
                            },
                            {
                                "patchline": {
                                    "destination": [ "obj-13", 0 ],
                                    "source": [ "obj-17", 0 ]
                                }
                            },
                            {
                                "patchline": {
                                    "destination": [ "obj-13", 0 ],
                                    "source": [ "obj-18", 0 ]
                                }
                            },
                            {
                                "patchline": {
                                    "destination": [ "obj-18", 0 ],
                                    "source": [ "obj-20", 1 ]
                                }
                            },
                            {
                                "patchline": {
                                    "destination": [ "obj-18", 0 ],
                                    "source": [ "obj-20", 0 ]
                                }
                            },
                            {
                                "patchline": {
                                    "destination": [ "obj-23", 0 ],
                                    "source": [ "obj-21", 1 ]
                                }
                            },
                            {
                                "patchline": {
                                    "destination": [ "obj-23", 0 ],
                                    "source": [ "obj-21", 0 ]
                                }
                            },
                            {
                                "patchline": {
                                    "destination": [ "obj-13", 0 ],
                                    "midpoints": [ 133.5, 290.0, 200.6875, 290.0, 200.6875, 223.62109375, 56.5, 223.62109375 ],
                                    "source": [ "obj-22", 0 ]
                                }
                            },
                            {
                                "patchline": {
                                    "destination": [ "obj-18", 0 ],
                                    "source": [ "obj-23", 0 ]
                                }
                            },
                            {
                                "patchline": {
                                    "destination": [ "obj-27", 0 ],
                                    "source": [ "obj-26", 0 ]
                                }
                            },
                            {
                                "patchline": {
                                    "destination": [ "obj-25", 0 ],
                                    "source": [ "obj-27", 0 ]
                                }
                            },
                            {
                                "patchline": {
                                    "destination": [ "obj-13", 0 ],
                                    "source": [ "obj-28", 0 ]
                                }
                            },
                            {
                                "patchline": {
                                    "destination": [ "obj-11", 0 ],
                                    "source": [ "obj-29", 0 ]
                                }
                            },
                            {
                                "patchline": {
                                    "destination": [ "obj-13", 0 ],
                                    "source": [ "obj-3", 0 ]
                                }
                            },
                            {
                                "patchline": {
                                    "destination": [ "obj-33", 0 ],
                                    "source": [ "obj-32", 0 ]
                                }
                            },
                            {
                                "patchline": {
                                    "destination": [ "obj-15", 0 ],
                                    "source": [ "obj-33", 0 ]
                                }
                            },
                            {
                                "patchline": {
                                    "destination": [ "obj-29", 0 ],
                                    "source": [ "obj-4", 0 ]
                                }
                            }
                        ]
                    },
                    "patching_rect": [ 513.0, 194.0, 131.0, 24.0 ],
                    "text": "p initial-pref-loading"
                }
            },
            {
                "box": {
                    "id": "obj-24",
                    "maxclass": "textbutton",
                    "numinlets": 1,
                    "numoutlets": 3,
                    "outlettype": [ "", "", "int" ],
                    "parameter_enable": 0,
                    "patching_rect": [ 513.0, 161.0, 158.0, 18.0 ],
                    "presentation": 1,
                    "presentation_rect": [ 325.0, 94.0, 155.0, 22.0 ],
                    "text": "Reset to default settings",
                    "texton": "Reset to default settings"
                }
            },
            {
                "box": {
                    "id": "obj-10",
                    "linecount": 2,
                    "maxclass": "comment",
                    "numinlets": 1,
                    "numoutlets": 0,
                    "patching_rect": [ 65.0, 120.0, 394.0, 33.0 ],
                    "presentation": 1,
                    "presentation_linecount": 2,
                    "presentation_rect": [ 86.0, 145.0, 394.0, 33.0 ],
                    "text": "Maximum complexity before k-means algorithms requests a confirmation\n(complexity = nb of neurons * nb of clusters)"
                }
            },
            {
                "box": {
                    "id": "obj-7",
                    "maxclass": "comment",
                    "numinlets": 1,
                    "numoutlets": 0,
                    "patching_rect": [ 63.0, 77.0, 343.0, 20.0 ],
                    "presentation": 1,
                    "presentation_rect": [ 24.0, 61.0, 343.0, 20.0 ],
                    "text": "(loaded upon loading and saved in the file tbo.preferences.coll)"
                }
            },
            {
                "box": {
                    "fontsize": 24.0,
                    "id": "obj-6",
                    "maxclass": "comment",
                    "numinlets": 1,
                    "numoutlets": 0,
                    "patching_rect": [ 66.0, 50.0, 375.0, 33.0 ],
                    "presentation": 1,
                    "presentation_rect": [ 24.0, 26.0, 375.0, 33.0 ],
                    "text": "The Brain Orchestra - Preferences"
                }
            },
            {
                "box": {
                    "hidden": 1,
                    "id": "obj-16",
                    "maxclass": "newobj",
                    "numinlets": 1,
                    "numoutlets": 2,
                    "outlettype": [ "writeagain", "" ],
                    "patching_rect": [ 66.0, 384.0, 83.0, 22.0 ],
                    "text": "t writeagain l"
                }
            },
            {
                "box": {
                    "hidden": 1,
                    "id": "obj-5",
                    "maxclass": "newobj",
                    "numinlets": 1,
                    "numoutlets": 1,
                    "outlettype": [ "" ],
                    "patching_rect": [ 66.0, 195.0, 336.0, 22.0 ],
                    "text": "prepend store /TBO/subcluster-method/k-means/warning-size"
                }
            },
            {
                "box": {
                    "hidden": 1,
                    "id": "obj-4",
                    "maxclass": "newobj",
                    "numinlets": 1,
                    "numoutlets": 4,
                    "outlettype": [ "", "", "", "" ],
                    "patching_rect": [ 66.0, 416.0, 135.0, 22.0 ],
                    "saved_object_attributes": {
                        "embed": 0,
                        "precision": 6
                    },
                    "text": "coll tbo.preferences.coll"
                }
            },
            {
                "box": {
                    "id": "obj-3",
                    "maxclass": "number",
                    "minimum": 0,
                    "numinlets": 1,
                    "numoutlets": 2,
                    "outlettype": [ "", "bang" ],
                    "parameter_enable": 0,
                    "patching_rect": [ 66.0, 159.0, 50.0, 22.0 ],
                    "presentation": 1,
                    "presentation_rect": [ 24.0, 151.0, 50.0, 22.0 ]
                }
            },
            {
                "box": {
                    "id": "obj-1",
                    "maxclass": "newobj",
                    "numinlets": 1,
                    "numoutlets": 1,
                    "outlettype": [ "" ],
                    "patching_rect": [ 123.0, 159.0, 277.0, 22.0 ],
                    "text": "sw /TBO/subcluster-method/k-means/warning-size"
                }
            }
        ],
        "lines": [
            {
                "patchline": {
                    "destination": [ "obj-3", 0 ],
                    "hidden": 1,
                    "source": [ "obj-1", 0 ]
                }
            },
            {
                "patchline": {
                    "destination": [ "obj-9", 0 ],
                    "hidden": 1,
                    "source": [ "obj-11", 0 ]
                }
            },
            {
                "patchline": {
                    "destination": [ "obj-4", 0 ],
                    "hidden": 1,
                    "source": [ "obj-16", 1 ]
                }
            },
            {
                "patchline": {
                    "destination": [ "obj-4", 0 ],
                    "hidden": 1,
                    "source": [ "obj-16", 0 ]
                }
            },
            {
                "patchline": {
                    "destination": [ "obj-34", 0 ],
                    "source": [ "obj-24", 0 ]
                }
            },
            {
                "patchline": {
                    "destination": [ "obj-1", 0 ],
                    "hidden": 1,
                    "order": 0,
                    "source": [ "obj-3", 0 ]
                }
            },
            {
                "patchline": {
                    "destination": [ "obj-5", 0 ],
                    "hidden": 1,
                    "order": 1,
                    "source": [ "obj-3", 0 ]
                }
            },
            {
                "patchline": {
                    "destination": [ "obj-16", 0 ],
                    "hidden": 1,
                    "source": [ "obj-5", 0 ]
                }
            },
            {
                "patchline": {
                    "destination": [ "obj-16", 0 ],
                    "hidden": 1,
                    "source": [ "obj-8", 0 ]
                }
            },
            {
                "patchline": {
                    "destination": [ "obj-11", 0 ],
                    "hidden": 1,
                    "order": 0,
                    "source": [ "obj-9", 0 ]
                }
            },
            {
                "patchline": {
                    "destination": [ "obj-8", 0 ],
                    "hidden": 1,
                    "order": 1,
                    "source": [ "obj-9", 0 ]
                }
            }
        ]
    }
}