{
    "patcher": {
        "fileversion": 1,
        "appversion": {
            "major": 9,
            "minor": 2,
            "revision": 0,
            "architecture": "x64",
            "modernui": 1
        },
        "classnamespace": "box",
        "rect": [ 62.0, 94.0, 575.0, 371.0 ],
        "openinpresentation": 1,
        "lefttoolbarpinned": 2,
        "toptoolbarpinned": 2,
        "righttoolbarpinned": 2,
        "bottomtoolbarpinned": 2,
        "toolbars_unpinned_last_save": 15,
        "boxes": [
            {
                "box": {
                    "id": "obj-74",
                    "maxclass": "live.line",
                    "numinlets": 1,
                    "numoutlets": 0,
                    "patching_rect": [ 25.0, 249.0, 378.0, 10.0 ],
                    "presentation": 1,
                    "presentation_rect": [ 24.0, 250.0, 456.0, 5.0 ]
                }
            },
            {
                "box": {
                    "id": "obj-70",
                    "maxclass": "newobj",
                    "numinlets": 1,
                    "numoutlets": 1,
                    "outlettype": [ "" ],
                    "patching_rect": [ 66.0, 731.0, 254.0, 22.0 ],
                    "text": "prepend store /TBO/network/UDP/out/address"
                }
            },
            {
                "box": {
                    "hidden": 1,
                    "id": "obj-69",
                    "maxclass": "newobj",
                    "numinlets": 1,
                    "numoutlets": 1,
                    "outlettype": [ "" ],
                    "patching_rect": [ 66.0, 623.0, 223.0, 22.0 ],
                    "text": "prepend store /TBO/network/TCP/in/port"
                }
            },
            {
                "box": {
                    "hidden": 1,
                    "id": "obj-68",
                    "maxclass": "newobj",
                    "numinlets": 1,
                    "numoutlets": 1,
                    "outlettype": [ "" ],
                    "patching_rect": [ 66.0, 539.0, 232.0, 22.0 ],
                    "text": "prepend store /TBO/network/UDP/out/port"
                }
            },
            {
                "box": {
                    "hidden": 1,
                    "id": "obj-67",
                    "maxclass": "newobj",
                    "numinlets": 1,
                    "numoutlets": 1,
                    "outlettype": [ "" ],
                    "patching_rect": [ 66.0, 446.0, 225.0, 22.0 ],
                    "text": "prepend store /TBO/network/UDP/in/port"
                }
            },
            {
                "box": {
                    "fontface": 1,
                    "id": "obj-66",
                    "maxclass": "comment",
                    "numinlets": 1,
                    "numoutlets": 0,
                    "patching_rect": [ 64.0, 360.0, 134.0, 20.0 ],
                    "presentation": 1,
                    "presentation_rect": [ 24.0, 261.0, 134.0, 20.0 ],
                    "text": "NETWORK SETTINGS"
                }
            },
            {
                "box": {
                    "id": "obj-65",
                    "maxclass": "comment",
                    "numinlets": 1,
                    "numoutlets": 0,
                    "patching_rect": [ 297.0, 666.0, 95.0, 20.0 ],
                    "presentation": 1,
                    "presentation_rect": [ 400.0, 293.0, 90.0, 20.0 ],
                    "text": "TCP host port"
                }
            },
            {
                "box": {
                    "id": "obj-64",
                    "maxclass": "comment",
                    "numinlets": 1,
                    "numoutlets": 0,
                    "patching_rect": [ 64.0, 571.0, 95.0, 20.0 ],
                    "presentation": 1,
                    "presentation_rect": [ 271.0, 316.0, 101.0, 20.0 ],
                    "text": "TCP input port"
                }
            },
            {
                "box": {
                    "id": "obj-63",
                    "maxclass": "comment",
                    "numinlets": 1,
                    "numoutlets": 0,
                    "patching_rect": [ 64.0, 479.0, 95.0, 20.0 ],
                    "presentation": 1,
                    "presentation_rect": [ 79.0, 316.0, 101.0, 20.0 ],
                    "text": "UPD output port"
                }
            },
            {
                "box": {
                    "id": "obj-62",
                    "maxclass": "comment",
                    "numinlets": 1,
                    "numoutlets": 0,
                    "patching_rect": [ 64.0, 385.0, 87.0, 20.0 ],
                    "presentation": 1,
                    "presentation_rect": [ 79.0, 292.0, 101.0, 20.0 ],
                    "text": "UPD input port"
                }
            },
            {
                "box": {
                    "id": "obj-61",
                    "maxclass": "newobj",
                    "numinlets": 9,
                    "numoutlets": 5,
                    "outlettype": [ "", "select", "select", "select", "select" ],
                    "patcher": {
                        "fileversion": 1,
                        "appversion": {
                            "major": 9,
                            "minor": 2,
                            "revision": 0,
                            "architecture": "x64",
                            "modernui": 1
                        },
                        "classnamespace": "box",
                        "rect": [ 394.0, 394.0, 507.0, 364.0 ],
                        "boxes": [
                            {
                                "box": {
                                    "comment": "",
                                    "id": "obj-9",
                                    "index": 3,
                                    "maxclass": "inlet",
                                    "numinlets": 0,
                                    "numoutlets": 1,
                                    "outlettype": [ "bang" ],
                                    "patching_rect": [ 164.0, 28.0, 30.0, 30.0 ]
                                }
                            },
                            {
                                "box": {
                                    "comment": "",
                                    "id": "obj-10",
                                    "index": 5,
                                    "maxclass": "inlet",
                                    "numinlets": 0,
                                    "numoutlets": 1,
                                    "outlettype": [ "bang" ],
                                    "patching_rect": [ 235.0, 28.0, 30.0, 30.0 ]
                                }
                            },
                            {
                                "box": {
                                    "comment": "",
                                    "id": "obj-11",
                                    "index": 7,
                                    "maxclass": "inlet",
                                    "numinlets": 0,
                                    "numoutlets": 1,
                                    "outlettype": [ "bang" ],
                                    "patching_rect": [ 305.0, 28.0, 30.0, 30.0 ]
                                }
                            },
                            {
                                "box": {
                                    "comment": "",
                                    "id": "obj-13",
                                    "index": 9,
                                    "maxclass": "inlet",
                                    "numinlets": 0,
                                    "numoutlets": 1,
                                    "outlettype": [ "bang" ],
                                    "patching_rect": [ 376.0, 28.0, 30.0, 30.0 ]
                                }
                            },
                            {
                                "box": {
                                    "id": "obj-8",
                                    "maxclass": "newobj",
                                    "numinlets": 1,
                                    "numoutlets": 1,
                                    "outlettype": [ "select" ],
                                    "patching_rect": [ 376.0, 72.0, 47.0, 22.0 ],
                                    "text": "t select"
                                }
                            },
                            {
                                "box": {
                                    "id": "obj-7",
                                    "maxclass": "newobj",
                                    "numinlets": 1,
                                    "numoutlets": 1,
                                    "outlettype": [ "select" ],
                                    "patching_rect": [ 305.0, 72.0, 47.0, 22.0 ],
                                    "text": "t select"
                                }
                            },
                            {
                                "box": {
                                    "id": "obj-6",
                                    "maxclass": "newobj",
                                    "numinlets": 1,
                                    "numoutlets": 1,
                                    "outlettype": [ "select" ],
                                    "patching_rect": [ 235.0, 72.0, 47.0, 22.0 ],
                                    "text": "t select"
                                }
                            },
                            {
                                "box": {
                                    "id": "obj-73",
                                    "maxclass": "newobj",
                                    "numinlets": 1,
                                    "numoutlets": 1,
                                    "outlettype": [ "select" ],
                                    "patching_rect": [ 164.0, 72.0, 47.0, 22.0 ],
                                    "text": "t select"
                                }
                            },
                            {
                                "box": {
                                    "id": "obj-1",
                                    "maxclass": "newobj",
                                    "numinlets": 1,
                                    "numoutlets": 1,
                                    "outlettype": [ "" ],
                                    "patching_rect": [ 95.0, 221.0, 67.0, 22.0 ],
                                    "text": "mousefilter"
                                }
                            },
                            {
                                "box": {
                                    "fontname": "Arial",
                                    "fontsize": 13.0,
                                    "id": "obj-38",
                                    "maxclass": "newobj",
                                    "numinlets": 2,
                                    "numoutlets": 2,
                                    "outlettype": [ "", "" ],
                                    "patching_rect": [ 67.0, 261.0, 83.0, 23.0 ],
                                    "text": "zl.reg"
                                }
                            },
                            {
                                "box": {
                                    "fontname": "Arial",
                                    "fontsize": 13.0,
                                    "id": "obj-37",
                                    "maxclass": "newobj",
                                    "numinlets": 4,
                                    "numoutlets": 1,
                                    "outlettype": [ "" ],
                                    "patching_rect": [ 131.0, 128.0, 231.0, 23.0 ],
                                    "text": "pak 0 0 0 0"
                                }
                            },
                            {
                                "box": {
                                    "fontname": "Arial",
                                    "fontsize": 13.0,
                                    "id": "obj-27",
                                    "maxclass": "newobj",
                                    "numinlets": 1,
                                    "numoutlets": 4,
                                    "outlettype": [ "int", "int", "int", "int" ],
                                    "patching_rect": [ 164.0, 261.0, 124.0, 23.0 ],
                                    "text": "unpack 0 0 0 0"
                                }
                            },
                            {
                                "box": {
                                    "id": "obj-12",
                                    "maxclass": "newobj",
                                    "numinlets": 1,
                                    "numoutlets": 1,
                                    "outlettype": [ "" ],
                                    "patching_rect": [ 95.0, 168.0, 195.0, 22.0 ],
                                    "text": "sw /TBO/network/UDP/out/address"
                                }
                            },
                            {
                                "box": {
                                    "comment": "",
                                    "id": "obj-50",
                                    "index": 1,
                                    "maxclass": "inlet",
                                    "numinlets": 0,
                                    "numoutlets": 1,
                                    "outlettype": [ "" ],
                                    "patching_rect": [ 67.0, 28.0, 30.0, 30.0 ]
                                }
                            },
                            {
                                "box": {
                                    "comment": "",
                                    "id": "obj-51",
                                    "index": 2,
                                    "maxclass": "inlet",
                                    "numinlets": 0,
                                    "numoutlets": 1,
                                    "outlettype": [ "" ],
                                    "patching_rect": [ 131.0, 28.0, 30.0, 30.0 ]
                                }
                            },
                            {
                                "box": {
                                    "comment": "",
                                    "id": "obj-52",
                                    "index": 4,
                                    "maxclass": "inlet",
                                    "numinlets": 0,
                                    "numoutlets": 1,
                                    "outlettype": [ "" ],
                                    "patching_rect": [ 202.0, 28.0, 30.0, 30.0 ]
                                }
                            },
                            {
                                "box": {
                                    "comment": "",
                                    "id": "obj-53",
                                    "index": 6,
                                    "maxclass": "inlet",
                                    "numinlets": 0,
                                    "numoutlets": 1,
                                    "outlettype": [ "" ],
                                    "patching_rect": [ 272.0, 28.0, 30.0, 30.0 ]
                                }
                            },
                            {
                                "box": {
                                    "comment": "",
                                    "id": "obj-54",
                                    "index": 8,
                                    "maxclass": "inlet",
                                    "numinlets": 0,
                                    "numoutlets": 1,
                                    "outlettype": [ "" ],
                                    "patching_rect": [ 343.0, 28.0, 30.0, 30.0 ]
                                }
                            },
                            {
                                "box": {
                                    "comment": "",
                                    "id": "obj-55",
                                    "index": 1,
                                    "maxclass": "outlet",
                                    "numinlets": 1,
                                    "numoutlets": 0,
                                    "patching_rect": [ 67.0, 299.0, 30.0, 30.0 ]
                                }
                            },
                            {
                                "box": {
                                    "comment": "",
                                    "id": "obj-57",
                                    "index": 2,
                                    "maxclass": "outlet",
                                    "numinlets": 1,
                                    "numoutlets": 0,
                                    "patching_rect": [ 164.0, 299.0, 30.0, 30.0 ]
                                }
                            },
                            {
                                "box": {
                                    "comment": "",
                                    "id": "obj-58",
                                    "index": 3,
                                    "maxclass": "outlet",
                                    "numinlets": 1,
                                    "numoutlets": 0,
                                    "patching_rect": [ 199.0, 299.0, 30.0, 30.0 ]
                                }
                            },
                            {
                                "box": {
                                    "comment": "",
                                    "id": "obj-59",
                                    "index": 4,
                                    "maxclass": "outlet",
                                    "numinlets": 1,
                                    "numoutlets": 0,
                                    "patching_rect": [ 234.0, 299.0, 30.0, 30.0 ]
                                }
                            },
                            {
                                "box": {
                                    "comment": "",
                                    "id": "obj-60",
                                    "index": 5,
                                    "maxclass": "outlet",
                                    "numinlets": 1,
                                    "numoutlets": 0,
                                    "patching_rect": [ 269.0, 299.0, 30.0, 30.0 ]
                                }
                            }
                        ],
                        "lines": [
                            {
                                "patchline": {
                                    "destination": [ "obj-38", 0 ],
                                    "source": [ "obj-1", 0 ]
                                }
                            },
                            {
                                "patchline": {
                                    "destination": [ "obj-6", 0 ],
                                    "source": [ "obj-10", 0 ]
                                }
                            },
                            {
                                "patchline": {
                                    "destination": [ "obj-7", 0 ],
                                    "source": [ "obj-11", 0 ]
                                }
                            },
                            {
                                "patchline": {
                                    "destination": [ "obj-1", 0 ],
                                    "order": 1,
                                    "source": [ "obj-12", 0 ]
                                }
                            },
                            {
                                "patchline": {
                                    "destination": [ "obj-27", 0 ],
                                    "order": 0,
                                    "source": [ "obj-12", 0 ]
                                }
                            },
                            {
                                "patchline": {
                                    "destination": [ "obj-8", 0 ],
                                    "source": [ "obj-13", 0 ]
                                }
                            },
                            {
                                "patchline": {
                                    "destination": [ "obj-57", 0 ],
                                    "source": [ "obj-27", 0 ]
                                }
                            },
                            {
                                "patchline": {
                                    "destination": [ "obj-58", 0 ],
                                    "source": [ "obj-27", 1 ]
                                }
                            },
                            {
                                "patchline": {
                                    "destination": [ "obj-59", 0 ],
                                    "source": [ "obj-27", 2 ]
                                }
                            },
                            {
                                "patchline": {
                                    "destination": [ "obj-60", 0 ],
                                    "source": [ "obj-27", 3 ]
                                }
                            },
                            {
                                "patchline": {
                                    "destination": [ "obj-1", 0 ],
                                    "source": [ "obj-37", 0 ]
                                }
                            },
                            {
                                "patchline": {
                                    "destination": [ "obj-12", 0 ],
                                    "midpoints": [ 76.5, 289.78125, 52.0, 289.78125, 52.0, 153.44921875, 104.5, 153.44921875 ],
                                    "order": 0,
                                    "source": [ "obj-38", 0 ]
                                }
                            },
                            {
                                "patchline": {
                                    "destination": [ "obj-55", 0 ],
                                    "order": 1,
                                    "source": [ "obj-38", 0 ]
                                }
                            },
                            {
                                "patchline": {
                                    "destination": [ "obj-38", 0 ],
                                    "source": [ "obj-50", 0 ]
                                }
                            },
                            {
                                "patchline": {
                                    "destination": [ "obj-37", 0 ],
                                    "source": [ "obj-51", 0 ]
                                }
                            },
                            {
                                "patchline": {
                                    "destination": [ "obj-37", 1 ],
                                    "source": [ "obj-52", 0 ]
                                }
                            },
                            {
                                "patchline": {
                                    "destination": [ "obj-37", 2 ],
                                    "source": [ "obj-53", 0 ]
                                }
                            },
                            {
                                "patchline": {
                                    "destination": [ "obj-37", 3 ],
                                    "source": [ "obj-54", 0 ]
                                }
                            },
                            {
                                "patchline": {
                                    "destination": [ "obj-59", 0 ],
                                    "source": [ "obj-6", 0 ]
                                }
                            },
                            {
                                "patchline": {
                                    "destination": [ "obj-60", 0 ],
                                    "source": [ "obj-7", 0 ]
                                }
                            },
                            {
                                "patchline": {
                                    "destination": [ "obj-58", 0 ],
                                    "source": [ "obj-73", 0 ]
                                }
                            },
                            {
                                "patchline": {
                                    "destination": [ "obj-57", 0 ],
                                    "source": [ "obj-8", 0 ]
                                }
                            },
                            {
                                "patchline": {
                                    "destination": [ "obj-73", 0 ],
                                    "source": [ "obj-9", 0 ]
                                }
                            }
                        ]
                    },
                    "patching_rect": [ 66.0, 698.0, 204.0, 22.0 ],
                    "text": "p"
                }
            },
            {
                "box": {
                    "id": "obj-42",
                    "maxclass": "number",
                    "maximum": 65534,
                    "minimum": 1024,
                    "numinlets": 1,
                    "numoutlets": 2,
                    "outlettype": [ "", "bang" ],
                    "parameter_enable": 0,
                    "patching_rect": [ 66.0, 506.0, 50.0, 22.0 ],
                    "presentation": 1,
                    "presentation_rect": [ 24.0, 316.0, 50.0, 22.0 ]
                }
            },
            {
                "box": {
                    "id": "obj-43",
                    "maxclass": "newobj",
                    "numinlets": 1,
                    "numoutlets": 1,
                    "outlettype": [ "" ],
                    "patching_rect": [ 126.0, 506.0, 173.0, 22.0 ],
                    "text": "sw /TBO/network/UDP/out/port"
                }
            },
            {
                "box": {
                    "fontname": "Arial",
                    "fontsize": 11.595187,
                    "id": "obj-33",
                    "maxclass": "number",
                    "maximum": 255,
                    "minimum": 0,
                    "numinlets": 1,
                    "numoutlets": 2,
                    "outlettype": [ "", "bang" ],
                    "parameter_enable": 0,
                    "patching_rect": [ 227.875, 665.0, 43.0, 21.0 ],
                    "presentation": 1,
                    "presentation_rect": [ 355.0, 292.0, 43.0, 21.0 ]
                }
            },
            {
                "box": {
                    "fontname": "Arial",
                    "fontsize": 11.595187,
                    "id": "obj-32",
                    "maxclass": "number",
                    "maximum": 255,
                    "minimum": 0,
                    "numinlets": 1,
                    "numoutlets": 2,
                    "outlettype": [ "", "bang" ],
                    "parameter_enable": 0,
                    "patching_rect": [ 181.625, 665.0, 43.0, 21.0 ],
                    "presentation": 1,
                    "presentation_rect": [ 309.0, 292.0, 43.0, 21.0 ]
                }
            },
            {
                "box": {
                    "fontname": "Arial",
                    "fontsize": 11.595187,
                    "id": "obj-31",
                    "maxclass": "number",
                    "maximum": 255,
                    "minimum": 0,
                    "numinlets": 1,
                    "numoutlets": 2,
                    "outlettype": [ "", "bang" ],
                    "parameter_enable": 0,
                    "patching_rect": [ 135.375, 665.0, 43.0, 21.0 ],
                    "presentation": 1,
                    "presentation_rect": [ 263.0, 292.0, 43.0, 21.0 ]
                }
            },
            {
                "box": {
                    "fontname": "Arial",
                    "fontsize": 11.595187,
                    "id": "obj-26",
                    "maxclass": "number",
                    "maximum": 255,
                    "minimum": 0,
                    "numinlets": 1,
                    "numoutlets": 2,
                    "outlettype": [ "", "bang" ],
                    "parameter_enable": 0,
                    "patching_rect": [ 89.125, 665.0, 43.0, 21.0 ],
                    "presentation": 1,
                    "presentation_rect": [ 217.0, 292.0, 43.0, 21.0 ]
                }
            },
            {
                "box": {
                    "id": "obj-19",
                    "maxclass": "number",
                    "maximum": 65534,
                    "minimum": 1024,
                    "numinlets": 1,
                    "numoutlets": 2,
                    "outlettype": [ "", "bang" ],
                    "parameter_enable": 0,
                    "patching_rect": [ 66.0, 593.0, 50.0, 22.0 ],
                    "presentation": 1,
                    "presentation_rect": [ 217.0, 316.0, 50.0, 22.0 ]
                }
            },
            {
                "box": {
                    "id": "obj-15",
                    "maxclass": "number",
                    "maximum": 65534,
                    "minimum": 1024,
                    "numinlets": 1,
                    "numoutlets": 2,
                    "outlettype": [ "", "bang" ],
                    "parameter_enable": 0,
                    "patching_rect": [ 66.0, 413.0, 50.0, 22.0 ],
                    "presentation": 1,
                    "presentation_rect": [ 24.0, 291.0, 50.0, 22.0 ]
                }
            },
            {
                "box": {
                    "id": "obj-14",
                    "maxclass": "newobj",
                    "numinlets": 1,
                    "numoutlets": 1,
                    "outlettype": [ "" ],
                    "patching_rect": [ 126.0, 413.0, 173.0, 22.0 ],
                    "text": "sw /TBO/network/UDP/in/port"
                }
            },
            {
                "box": {
                    "id": "obj-29",
                    "maxclass": "newobj",
                    "numinlets": 1,
                    "numoutlets": 1,
                    "outlettype": [ "" ],
                    "patching_rect": [ 116.0, 593.0, 164.0, 22.0 ],
                    "text": "sw /TBO/network/TCP/in/port"
                }
            },
            {
                "box": {
                    "id": "obj-2",
                    "maxclass": "comment",
                    "numinlets": 1,
                    "numoutlets": 0,
                    "patching_rect": [ 64.0, 241.0, 394.0, 20.0 ],
                    "presentation": 1,
                    "presentation_rect": [ 79.0, 204.0, 394.0, 20.0 ],
                    "text": "Full screen monitor (0 = main screen, 1+ = other monitors)"
                }
            },
            {
                "box": {
                    "hidden": 1,
                    "id": "obj-8",
                    "maxclass": "newobj",
                    "numinlets": 1,
                    "numoutlets": 1,
                    "outlettype": [ "" ],
                    "patching_rect": [ 65.5, 307.0, 211.0, 22.0 ],
                    "text": "prepend store /TBO/render/FSmonitor"
                }
            },
            {
                "box": {
                    "id": "obj-9",
                    "maxclass": "number",
                    "minimum": 0,
                    "numinlets": 1,
                    "numoutlets": 2,
                    "outlettype": [ "", "bang" ],
                    "parameter_enable": 0,
                    "patching_rect": [ 65.5, 270.0, 50.0, 22.0 ],
                    "presentation": 1,
                    "presentation_rect": [ 24.0, 203.0, 50.0, 22.0 ]
                }
            },
            {
                "box": {
                    "id": "obj-11",
                    "maxclass": "newobj",
                    "numinlets": 1,
                    "numoutlets": 1,
                    "outlettype": [ "" ],
                    "patching_rect": [ 122.5, 270.0, 151.0, 22.0 ],
                    "text": "sw /TBO/render/FSmonitor"
                }
            },
            {
                "box": {
                    "comment": "",
                    "id": "obj-36",
                    "index": 1,
                    "maxclass": "inlet",
                    "numinlets": 0,
                    "numoutlets": 1,
                    "outlettype": [ "" ],
                    "patching_rect": [ 20.0, 58.0, 30.0, 30.0 ]
                }
            },
            {
                "box": {
                    "id": "obj-35",
                    "maxclass": "live.line",
                    "numinlets": 1,
                    "numoutlets": 0,
                    "patching_rect": [ 63.0, 106.0, 378.0, 10.0 ],
                    "presentation": 1,
                    "presentation_rect": [ 24.0, 128.0, 456.0, 5.0 ]
                }
            },
            {
                "box": {
                    "fontsize": 14.0,
                    "id": "obj-34",
                    "maxclass": "newobj",
                    "numinlets": 1,
                    "numoutlets": 0,
                    "patcher": {
                        "fileversion": 1,
                        "appversion": {
                            "major": 9,
                            "minor": 2,
                            "revision": 0,
                            "architecture": "x64",
                            "modernui": 1
                        },
                        "classnamespace": "box",
                        "rect": [ 59.0, 119.0, 566.0, 524.0 ],
                        "boxes": [
                            {
                                "box": {
                                    "comment": "",
                                    "id": "obj-4",
                                    "index": 1,
                                    "maxclass": "inlet",
                                    "numinlets": 0,
                                    "numoutlets": 1,
                                    "outlettype": [ "" ],
                                    "patching_rect": [ 48.0, 13.0, 30.0, 30.0 ]
                                }
                            },
                            {
                                "box": {
                                    "id": "obj-3",
                                    "maxclass": "newobj",
                                    "numinlets": 1,
                                    "numoutlets": 1,
                                    "outlettype": [ "dump" ],
                                    "patching_rect": [ 214.0, 159.0, 45.0, 22.0 ],
                                    "text": "t dump"
                                }
                            },
                            {
                                "box": {
                                    "id": "obj-29",
                                    "maxclass": "newobj",
                                    "numinlets": 1,
                                    "numoutlets": 1,
                                    "outlettype": [ "dump" ],
                                    "patching_rect": [ 48.0, 57.0, 45.0, 22.0 ],
                                    "text": "t dump"
                                }
                            },
                            {
                                "box": {
                                    "id": "obj-23",
                                    "maxclass": "newobj",
                                    "numinlets": 1,
                                    "numoutlets": 1,
                                    "outlettype": [ "" ],
                                    "patching_rect": [ 101.0, 159.0, 102.0, 22.0 ],
                                    "text": "prepend set store"
                                }
                            },
                            {
                                "box": {
                                    "id": "obj-21",
                                    "linecount": 2,
                                    "maxclass": "newobj",
                                    "numinlets": 2,
                                    "numoutlets": 2,
                                    "outlettype": [ "", "" ],
                                    "patching_rect": [ 101.0, 117.0, 53.0, 35.0 ],
                                    "text": "route symbol"
                                }
                            },
                            {
                                "box": {
                                    "id": "obj-20",
                                    "linecount": 2,
                                    "maxclass": "newobj",
                                    "numinlets": 2,
                                    "numoutlets": 2,
                                    "outlettype": [ "", "" ],
                                    "patching_rect": [ 47.0, 117.0, 53.0, 35.0 ],
                                    "text": "route symbol"
                                }
                            },
                            {
                                "box": {
                                    "id": "obj-18",
                                    "maxclass": "newobj",
                                    "numinlets": 1,
                                    "numoutlets": 1,
                                    "outlettype": [ "" ],
                                    "patching_rect": [ 47.0, 188.0, 53.0, 22.0 ],
                                    "text": "prepend"
                                }
                            },
                            {
                                "box": {
                                    "coll_data": {
                                        "count": 6,
                                        "data": [
                                            {
                                                "key": "/TBO/subcluster-method/k-means/warning-size",
                                                "value": [ 5000 ]
                                            },
                                            {
                                                "key": "/TBO/render/FSmonitor",
                                                "value": [ 0 ]
                                            },
                                            {
                                                "key": "/TBO/network/UDP/in/port",
                                                "value": [ 8000 ]
                                            },
                                            {
                                                "key": "/TBO/network/TCP/in/port",
                                                "value": [ 8087 ]
                                            },
                                            {
                                                "key": "/TBO/network/UDP/out/port",
                                                "value": [ 9000 ]
                                            },
                                            {
                                                "key": "/TBO/network/UDP/out/address",
                                                "value": [ 127, 0, 0, 1 ]
                                            }
                                        ]
                                    },
                                    "id": "obj-11",
                                    "maxclass": "newobj",
                                    "numinlets": 1,
                                    "numoutlets": 4,
                                    "outlettype": [ "", "", "", "" ],
                                    "patching_rect": [ 47.0, 87.0, 186.0, 22.0 ],
                                    "saved_object_attributes": {
                                        "embed": 1,
                                        "precision": 6
                                    },
                                    "text": "coll tbo.preferences.factory.coll"
                                }
                            },
                            {
                                "box": {
                                    "id": "obj-33",
                                    "maxclass": "newobj",
                                    "numinlets": 1,
                                    "numoutlets": 1,
                                    "outlettype": [ "" ],
                                    "patching_rect": [ 281.0, 158.0, 58.0, 22.0 ],
                                    "text": "deferlow"
                                }
                            },
                            {
                                "box": {
                                    "id": "obj-32",
                                    "maxclass": "newobj",
                                    "numinlets": 1,
                                    "numoutlets": 1,
                                    "outlettype": [ "bang" ],
                                    "patching_rect": [ 281.0, 129.0, 58.0, 22.0 ],
                                    "text": "loadbang"
                                }
                            },
                            {
                                "box": {
                                    "id": "obj-28",
                                    "maxclass": "message",
                                    "numinlets": 2,
                                    "numoutlets": 1,
                                    "outlettype": [ "" ],
                                    "patching_rect": [ 431.0, 188.0, 35.0, 22.0 ],
                                    "text": "clear"
                                }
                            },
                            {
                                "box": {
                                    "id": "obj-27",
                                    "maxclass": "newobj",
                                    "numinlets": 1,
                                    "numoutlets": 1,
                                    "outlettype": [ "" ],
                                    "patching_rect": [ 87.0, 327.0, 82.0, 22.0 ],
                                    "text": "prepend send"
                                }
                            },
                            {
                                "box": {
                                    "id": "obj-26",
                                    "maxclass": "newobj",
                                    "numinlets": 2,
                                    "numoutlets": 2,
                                    "outlettype": [ "", "" ],
                                    "patching_rect": [ 87.0, 302.0, 77.0, 22.0 ],
                                    "text": "route symbol"
                                }
                            },
                            {
                                "box": {
                                    "id": "obj-25",
                                    "maxclass": "newobj",
                                    "numinlets": 1,
                                    "numoutlets": 0,
                                    "patching_rect": [ 47.0, 376.0, 49.0, 22.0 ],
                                    "text": "forward"
                                }
                            },
                            {
                                "box": {
                                    "id": "obj-22",
                                    "maxclass": "newobj",
                                    "numinlets": 1,
                                    "numoutlets": 1,
                                    "outlettype": [ "dump" ],
                                    "patching_rect": [ 124.0, 265.0, 45.0, 22.0 ],
                                    "text": "t dump"
                                }
                            },
                            {
                                "box": {
                                    "id": "obj-17",
                                    "maxclass": "message",
                                    "numinlets": 2,
                                    "numoutlets": 1,
                                    "outlettype": [ "" ],
                                    "patching_rect": [ 471.0, 188.0, 34.0, 22.0 ],
                                    "text": "write"
                                }
                            },
                            {
                                "box": {
                                    "id": "obj-15",
                                    "maxclass": "message",
                                    "numinlets": 2,
                                    "numoutlets": 1,
                                    "outlettype": [ "" ],
                                    "patching_rect": [ 281.0, 188.0, 141.0, 22.0 ],
                                    "text": "read tbo.preferences.coll"
                                }
                            },
                            {
                                "box": {
                                    "id": "obj-13",
                                    "maxclass": "newobj",
                                    "numinlets": 1,
                                    "numoutlets": 4,
                                    "outlettype": [ "", "", "", "" ],
                                    "patching_rect": [ 47.0, 234.0, 135.0, 22.0 ],
                                    "saved_object_attributes": {
                                        "embed": 0,
                                        "precision": 6
                                    },
                                    "text": "coll tbo.preferences.coll"
                                }
                            }
                        ],
                        "lines": [
                            {
                                "patchline": {
                                    "destination": [ "obj-20", 0 ],
                                    "source": [ "obj-11", 0 ]
                                }
                            },
                            {
                                "patchline": {
                                    "destination": [ "obj-21", 0 ],
                                    "source": [ "obj-11", 1 ]
                                }
                            },
                            {
                                "patchline": {
                                    "destination": [ "obj-3", 0 ],
                                    "source": [ "obj-11", 3 ]
                                }
                            },
                            {
                                "patchline": {
                                    "destination": [ "obj-22", 0 ],
                                    "source": [ "obj-13", 2 ]
                                }
                            },
                            {
                                "patchline": {
                                    "destination": [ "obj-25", 0 ],
                                    "source": [ "obj-13", 0 ]
                                }
                            },
                            {
                                "patchline": {
                                    "destination": [ "obj-26", 0 ],
                                    "source": [ "obj-13", 1 ]
                                }
                            },
                            {
                                "patchline": {
                                    "destination": [ "obj-13", 0 ],
                                    "source": [ "obj-15", 0 ]
                                }
                            },
                            {
                                "patchline": {
                                    "destination": [ "obj-13", 0 ],
                                    "source": [ "obj-17", 0 ]
                                }
                            },
                            {
                                "patchline": {
                                    "destination": [ "obj-13", 0 ],
                                    "source": [ "obj-18", 0 ]
                                }
                            },
                            {
                                "patchline": {
                                    "destination": [ "obj-18", 0 ],
                                    "source": [ "obj-20", 1 ]
                                }
                            },
                            {
                                "patchline": {
                                    "destination": [ "obj-18", 0 ],
                                    "source": [ "obj-20", 0 ]
                                }
                            },
                            {
                                "patchline": {
                                    "destination": [ "obj-23", 0 ],
                                    "source": [ "obj-21", 1 ]
                                }
                            },
                            {
                                "patchline": {
                                    "destination": [ "obj-23", 0 ],
                                    "source": [ "obj-21", 0 ]
                                }
                            },
                            {
                                "patchline": {
                                    "destination": [ "obj-13", 0 ],
                                    "midpoints": [ 133.5, 290.0, 200.6875, 290.0, 200.6875, 223.62109375, 56.5, 223.62109375 ],
                                    "source": [ "obj-22", 0 ]
                                }
                            },
                            {
                                "patchline": {
                                    "destination": [ "obj-18", 0 ],
                                    "source": [ "obj-23", 0 ]
                                }
                            },
                            {
                                "patchline": {
                                    "destination": [ "obj-27", 0 ],
                                    "source": [ "obj-26", 0 ]
                                }
                            },
                            {
                                "patchline": {
                                    "destination": [ "obj-25", 0 ],
                                    "source": [ "obj-27", 0 ]
                                }
                            },
                            {
                                "patchline": {
                                    "destination": [ "obj-13", 0 ],
                                    "source": [ "obj-28", 0 ]
                                }
                            },
                            {
                                "patchline": {
                                    "destination": [ "obj-11", 0 ],
                                    "source": [ "obj-29", 0 ]
                                }
                            },
                            {
                                "patchline": {
                                    "destination": [ "obj-13", 0 ],
                                    "source": [ "obj-3", 0 ]
                                }
                            },
                            {
                                "patchline": {
                                    "destination": [ "obj-33", 0 ],
                                    "source": [ "obj-32", 0 ]
                                }
                            },
                            {
                                "patchline": {
                                    "destination": [ "obj-15", 0 ],
                                    "source": [ "obj-33", 0 ]
                                }
                            },
                            {
                                "patchline": {
                                    "destination": [ "obj-29", 0 ],
                                    "source": [ "obj-4", 0 ]
                                }
                            }
                        ]
                    },
                    "patching_rect": [ 513.0, 194.0, 131.0, 24.0 ],
                    "text": "p initial-pref-loading"
                }
            },
            {
                "box": {
                    "id": "obj-24",
                    "maxclass": "textbutton",
                    "numinlets": 1,
                    "numoutlets": 3,
                    "outlettype": [ "", "", "int" ],
                    "parameter_enable": 0,
                    "patching_rect": [ 513.0, 161.0, 158.0, 18.0 ],
                    "presentation": 1,
                    "presentation_rect": [ 325.0, 94.0, 155.0, 22.0 ],
                    "text": "Reset to default settings",
                    "texton": "Reset to default settings"
                }
            },
            {
                "box": {
                    "id": "obj-10",
                    "linecount": 2,
                    "maxclass": "comment",
                    "numinlets": 1,
                    "numoutlets": 0,
                    "patching_rect": [ 65.0, 120.0, 394.0, 33.0 ],
                    "presentation": 1,
                    "presentation_linecount": 2,
                    "presentation_rect": [ 79.0, 145.0, 394.0, 33.0 ],
                    "text": "Maximum complexity before k-means algorithms requests a confirmation\n(complexity = nb of neurons * nb of clusters)"
                }
            },
            {
                "box": {
                    "id": "obj-7",
                    "maxclass": "comment",
                    "numinlets": 1,
                    "numoutlets": 0,
                    "patching_rect": [ 63.0, 77.0, 343.0, 20.0 ],
                    "presentation": 1,
                    "presentation_rect": [ 24.0, 61.0, 343.0, 20.0 ],
                    "text": "(loaded upon loading and saved in the file tbo.preferences.coll)"
                }
            },
            {
                "box": {
                    "fontsize": 24.0,
                    "id": "obj-6",
                    "maxclass": "comment",
                    "numinlets": 1,
                    "numoutlets": 0,
                    "patching_rect": [ 66.0, 50.0, 375.0, 33.0 ],
                    "presentation": 1,
                    "presentation_rect": [ 24.0, 26.0, 375.0, 33.0 ],
                    "text": "The Brain Orchestra - Preferences"
                }
            },
            {
                "box": {
                    "hidden": 1,
                    "id": "obj-16",
                    "maxclass": "newobj",
                    "numinlets": 1,
                    "numoutlets": 2,
                    "outlettype": [ "writeagain", "" ],
                    "patching_rect": [ 66.0, 766.0, 83.0, 22.0 ],
                    "text": "t writeagain l"
                }
            },
            {
                "box": {
                    "hidden": 1,
                    "id": "obj-5",
                    "maxclass": "newobj",
                    "numinlets": 1,
                    "numoutlets": 1,
                    "outlettype": [ "" ],
                    "patching_rect": [ 66.0, 195.0, 336.0, 22.0 ],
                    "text": "prepend store /TBO/subcluster-method/k-means/warning-size"
                }
            },
            {
                "box": {
                    "hidden": 1,
                    "id": "obj-4",
                    "maxclass": "newobj",
                    "numinlets": 1,
                    "numoutlets": 4,
                    "outlettype": [ "", "", "", "" ],
                    "patching_rect": [ 66.0, 798.0, 135.0, 22.0 ],
                    "saved_object_attributes": {
                        "embed": 0,
                        "precision": 6
                    },
                    "text": "coll tbo.preferences.coll"
                }
            },
            {
                "box": {
                    "id": "obj-3",
                    "maxclass": "number",
                    "minimum": 0,
                    "numinlets": 1,
                    "numoutlets": 2,
                    "outlettype": [ "", "bang" ],
                    "parameter_enable": 0,
                    "patching_rect": [ 66.0, 159.0, 50.0, 22.0 ],
                    "presentation": 1,
                    "presentation_rect": [ 24.0, 151.0, 50.0, 22.0 ]
                }
            },
            {
                "box": {
                    "id": "obj-1",
                    "maxclass": "newobj",
                    "numinlets": 1,
                    "numoutlets": 1,
                    "outlettype": [ "" ],
                    "patching_rect": [ 123.0, 159.0, 277.0, 22.0 ],
                    "text": "sw /TBO/subcluster-method/k-means/warning-size"
                }
            }
        ],
        "lines": [
            {
                "patchline": {
                    "destination": [ "obj-3", 0 ],
                    "hidden": 1,
                    "source": [ "obj-1", 0 ]
                }
            },
            {
                "patchline": {
                    "destination": [ "obj-9", 0 ],
                    "hidden": 1,
                    "source": [ "obj-11", 0 ]
                }
            },
            {
                "patchline": {
                    "destination": [ "obj-15", 0 ],
                    "source": [ "obj-14", 0 ]
                }
            },
            {
                "patchline": {
                    "destination": [ "obj-14", 0 ],
                    "order": 0,
                    "source": [ "obj-15", 0 ]
                }
            },
            {
                "patchline": {
                    "destination": [ "obj-67", 0 ],
                    "order": 1,
                    "source": [ "obj-15", 0 ]
                }
            },
            {
                "patchline": {
                    "destination": [ "obj-4", 0 ],
                    "hidden": 1,
                    "source": [ "obj-16", 1 ]
                }
            },
            {
                "patchline": {
                    "destination": [ "obj-4", 0 ],
                    "hidden": 1,
                    "source": [ "obj-16", 0 ]
                }
            },
            {
                "patchline": {
                    "destination": [ "obj-29", 0 ],
                    "order": 0,
                    "source": [ "obj-19", 0 ]
                }
            },
            {
                "patchline": {
                    "destination": [ "obj-69", 0 ],
                    "order": 1,
                    "source": [ "obj-19", 0 ]
                }
            },
            {
                "patchline": {
                    "destination": [ "obj-34", 0 ],
                    "source": [ "obj-24", 0 ]
                }
            },
            {
                "patchline": {
                    "destination": [ "obj-61", 2 ],
                    "source": [ "obj-26", 1 ]
                }
            },
            {
                "patchline": {
                    "destination": [ "obj-61", 1 ],
                    "source": [ "obj-26", 0 ]
                }
            },
            {
                "patchline": {
                    "destination": [ "obj-19", 0 ],
                    "source": [ "obj-29", 0 ]
                }
            },
            {
                "patchline": {
                    "destination": [ "obj-1", 0 ],
                    "hidden": 1,
                    "order": 0,
                    "source": [ "obj-3", 0 ]
                }
            },
            {
                "patchline": {
                    "destination": [ "obj-5", 0 ],
                    "hidden": 1,
                    "order": 1,
                    "source": [ "obj-3", 0 ]
                }
            },
            {
                "patchline": {
                    "destination": [ "obj-61", 4 ],
                    "source": [ "obj-31", 1 ]
                }
            },
            {
                "patchline": {
                    "destination": [ "obj-61", 3 ],
                    "source": [ "obj-31", 0 ]
                }
            },
            {
                "patchline": {
                    "destination": [ "obj-61", 6 ],
                    "source": [ "obj-32", 1 ]
                }
            },
            {
                "patchline": {
                    "destination": [ "obj-61", 5 ],
                    "source": [ "obj-32", 0 ]
                }
            },
            {
                "patchline": {
                    "destination": [ "obj-61", 8 ],
                    "source": [ "obj-33", 1 ]
                }
            },
            {
                "patchline": {
                    "destination": [ "obj-61", 7 ],
                    "source": [ "obj-33", 0 ]
                }
            },
            {
                "patchline": {
                    "destination": [ "obj-43", 0 ],
                    "order": 0,
                    "source": [ "obj-42", 0 ]
                }
            },
            {
                "patchline": {
                    "destination": [ "obj-68", 0 ],
                    "order": 1,
                    "source": [ "obj-42", 0 ]
                }
            },
            {
                "patchline": {
                    "destination": [ "obj-42", 0 ],
                    "source": [ "obj-43", 0 ]
                }
            },
            {
                "patchline": {
                    "destination": [ "obj-16", 0 ],
                    "hidden": 1,
                    "source": [ "obj-5", 0 ]
                }
            },
            {
                "patchline": {
                    "destination": [ "obj-26", 0 ],
                    "source": [ "obj-61", 1 ]
                }
            },
            {
                "patchline": {
                    "destination": [ "obj-31", 0 ],
                    "source": [ "obj-61", 2 ]
                }
            },
            {
                "patchline": {
                    "destination": [ "obj-32", 0 ],
                    "source": [ "obj-61", 3 ]
                }
            },
            {
                "patchline": {
                    "destination": [ "obj-33", 0 ],
                    "source": [ "obj-61", 4 ]
                }
            },
            {
                "patchline": {
                    "destination": [ "obj-70", 0 ],
                    "source": [ "obj-61", 0 ]
                }
            },
            {
                "patchline": {
                    "destination": [ "obj-16", 0 ],
                    "source": [ "obj-67", 0 ]
                }
            },
            {
                "patchline": {
                    "destination": [ "obj-16", 0 ],
                    "source": [ "obj-68", 0 ]
                }
            },
            {
                "patchline": {
                    "destination": [ "obj-16", 0 ],
                    "source": [ "obj-69", 0 ]
                }
            },
            {
                "patchline": {
                    "destination": [ "obj-16", 0 ],
                    "source": [ "obj-70", 0 ]
                }
            },
            {
                "patchline": {
                    "destination": [ "obj-16", 0 ],
                    "hidden": 1,
                    "source": [ "obj-8", 0 ]
                }
            },
            {
                "patchline": {
                    "destination": [ "obj-11", 0 ],
                    "hidden": 1,
                    "order": 0,
                    "source": [ "obj-9", 0 ]
                }
            },
            {
                "patchline": {
                    "destination": [ "obj-8", 0 ],
                    "hidden": 1,
                    "order": 1,
                    "source": [ "obj-9", 0 ]
                }
            }
        ]
    }
}