{
    "patcher": {
        "fileversion": 1,
        "appversion": {
            "major": 9,
            "minor": 2,
            "revision": 0,
            "architecture": "x64",
            "modernui": 1
        },
        "classnamespace": "box",
        "rect": [ 59.0, 106.0, 670.0, 440.0 ],
        "boxes": [
            {
                "box": {
                    "comment": "",
                    "id": "obj-2",
                    "index": 1,
                    "maxclass": "inlet",
                    "numinlets": 0,
                    "numoutlets": 1,
                    "outlettype": [ "" ],
                    "patching_rect": [ 74.0, 68.0, 30.0, 30.0 ]
                }
            },
            {
                "box": {
                    "id": "obj-6",
                    "maxclass": "newobj",
                    "numinlets": 0,
                    "numoutlets": 1,
                    "outlettype": [ "" ],
                    "patching_rect": [ 49.0, 120.0, 158.0, 22.0 ],
                    "text": "r /TBO/transport/frame"
                }
            },
            {
                "box": {
                    "id": "obj-3",
                    "maxclass": "number",
                    "numinlets": 1,
                    "numoutlets": 2,
                    "outlettype": [ "", "bang" ],
                    "parameter_enable": 0,
                    "patching_rect": [ 49.0, 151.0, 50.0, 22.0 ]
                }
            },
            {
                "box": {
                    "id": "obj-1",
                    "maxclass": "newobj",
                    "numinlets": 1,
                    "numoutlets": 0,
                    "patching_rect": [ 49.0, 209.0, 145.0, 22.0 ],
                    "text": "s ---neuron.spikes.current"
                }
            },
            {
                "box": {
                    "id": "obj-53",
                    "maxclass": "newobj",
                    "numinlets": 1,
                    "numoutlets": 1,
                    "outlettype": [ "jit_matrix" ],
                    "patcher": {
                        "fileversion": 1,
                        "appversion": {
                            "major": 9,
                            "minor": 2,
                            "revision": 0,
                            "architecture": "x64",
                            "modernui": 1
                        },
                        "classnamespace": "box",
                        "rect": [ 461.0, 275.0, 752.0, 509.0 ],
                        "boxes": [
                            {
                                "box": {
                                    "id": "obj-11",
                                    "maxclass": "newobj",
                                    "numinlets": 0,
                                    "numoutlets": 1,
                                    "outlettype": [ "" ],
                                    "patching_rect": [ 324.0, 60.0, 163.0, 22.0 ],
                                    "text": "r ---neuronsSpikes.load.done"
                                }
                            },
                            {
                                "box": {
                                    "id": "obj-13",
                                    "maxclass": "number",
                                    "numinlets": 1,
                                    "numoutlets": 2,
                                    "outlettype": [ "", "bang" ],
                                    "parameter_enable": 0,
                                    "patching_rect": [ 49.0, 103.0, 50.0, 22.0 ]
                                }
                            },
                            {
                                "box": {
                                    "id": "obj-12",
                                    "maxclass": "number",
                                    "numinlets": 1,
                                    "numoutlets": 2,
                                    "outlettype": [ "", "bang" ],
                                    "parameter_enable": 0,
                                    "patching_rect": [ 452.0, 227.0, 50.0, 22.0 ]
                                }
                            },
                            {
                                "box": {
                                    "id": "obj-8",
                                    "maxclass": "number",
                                    "numinlets": 1,
                                    "numoutlets": 2,
                                    "outlettype": [ "", "bang" ],
                                    "parameter_enable": 0,
                                    "patching_rect": [ 400.0, 227.0, 50.0, 22.0 ]
                                }
                            },
                            {
                                "box": {
                                    "id": "obj-5",
                                    "maxclass": "newobj",
                                    "numinlets": 1,
                                    "numoutlets": 2,
                                    "outlettype": [ "int", "int" ],
                                    "patching_rect": [ 400.0, 200.0, 67.0, 22.0 ],
                                    "text": "unpack 0 0"
                                }
                            },
                            {
                                "box": {
                                    "id": "obj-9",
                                    "maxclass": "message",
                                    "numinlets": 2,
                                    "numoutlets": 1,
                                    "outlettype": [ "" ],
                                    "patching_rect": [ 324.0, 214.0, 55.0, 22.0 ],
                                    "text": "dim $1 1"
                                }
                            },
                            {
                                "box": {
                                    "id": "obj-7",
                                    "maxclass": "button",
                                    "numinlets": 1,
                                    "numoutlets": 1,
                                    "outlettype": [ "bang" ],
                                    "parameter_enable": 0,
                                    "patching_rect": [ 324.0, 85.0, 24.0, 24.0 ]
                                }
                            },
                            {
                                "box": {
                                    "id": "obj-3",
                                    "maxclass": "newobj",
                                    "numinlets": 2,
                                    "numoutlets": 2,
                                    "outlettype": [ "", "" ],
                                    "patching_rect": [ 324.0, 163.0, 59.0, 22.0 ],
                                    "text": "route dim"
                                }
                            },
                            {
                                "box": {
                                    "id": "obj-2",
                                    "maxclass": "newobj",
                                    "numinlets": 1,
                                    "numoutlets": 1,
                                    "outlettype": [ "" ],
                                    "patching_rect": [ 324.0, 137.0, 73.0, 22.0 ],
                                    "text": "jit.matrixinfo"
                                }
                            },
                            {
                                "box": {
                                    "id": "obj-1",
                                    "maxclass": "newobj",
                                    "numinlets": 1,
                                    "numoutlets": 2,
                                    "outlettype": [ "jit_matrix", "" ],
                                    "patching_rect": [ 324.0, 112.0, 148.0, 22.0 ],
                                    "text": "jit.matrix ---neuronsSpikes"
                                }
                            },
                            {
                                "box": {
                                    "id": "obj-230",
                                    "maxclass": "message",
                                    "numinlets": 2,
                                    "numoutlets": 1,
                                    "outlettype": [ "" ],
                                    "patching_rect": [ 232.0, 188.0, 64.0, 22.0 ],
                                    "text": "offset 0 $1"
                                }
                            },
                            {
                                "box": {
                                    "id": "obj-226",
                                    "maxclass": "newobj",
                                    "numinlets": 1,
                                    "numoutlets": 2,
                                    "outlettype": [ "bang", "int" ],
                                    "patching_rect": [ 50.0, 133.0, 201.0, 22.0 ],
                                    "text": "t b i"
                                }
                            },
                            {
                                "box": {
                                    "id": "obj-222",
                                    "maxclass": "newobj",
                                    "numinlets": 1,
                                    "numoutlets": 2,
                                    "outlettype": [ "jit_matrix", "" ],
                                    "patching_rect": [ 50.0, 233.0, 141.0, 22.0 ],
                                    "text": "jit.submatrix @dim 1 300"
                                }
                            },
                            {
                                "box": {
                                    "id": "obj-221",
                                    "maxclass": "button",
                                    "numinlets": 1,
                                    "numoutlets": 1,
                                    "outlettype": [ "bang" ],
                                    "parameter_enable": 0,
                                    "patching_rect": [ 50.0, 160.0, 24.0, 24.0 ]
                                }
                            },
                            {
                                "box": {
                                    "id": "obj-218",
                                    "maxclass": "newobj",
                                    "numinlets": 1,
                                    "numoutlets": 2,
                                    "outlettype": [ "jit_matrix", "" ],
                                    "patching_rect": [ 50.0, 188.0, 148.0, 22.0 ],
                                    "text": "jit.matrix ---neuronsSpikes"
                                }
                            },
                            {
                                "box": {
                                    "comment": "",
                                    "id": "obj-45",
                                    "index": 1,
                                    "maxclass": "inlet",
                                    "numinlets": 0,
                                    "numoutlets": 1,
                                    "outlettype": [ "" ],
                                    "patching_rect": [ 50.0, 56.0, 30.0, 30.0 ]
                                }
                            },
                            {
                                "box": {
                                    "comment": "",
                                    "id": "obj-46",
                                    "index": 1,
                                    "maxclass": "outlet",
                                    "numinlets": 1,
                                    "numoutlets": 0,
                                    "patching_rect": [ 50.0, 270.0, 30.0, 30.0 ]
                                }
                            }
                        ],
                        "lines": [
                            {
                                "patchline": {
                                    "destination": [ "obj-2", 0 ],
                                    "source": [ "obj-1", 0 ]
                                }
                            },
                            {
                                "patchline": {
                                    "destination": [ "obj-7", 0 ],
                                    "source": [ "obj-11", 0 ]
                                }
                            },
                            {
                                "patchline": {
                                    "destination": [ "obj-226", 0 ],
                                    "source": [ "obj-13", 0 ]
                                }
                            },
                            {
                                "patchline": {
                                    "destination": [ "obj-3", 0 ],
                                    "source": [ "obj-2", 0 ]
                                }
                            },
                            {
                                "patchline": {
                                    "destination": [ "obj-222", 0 ],
                                    "source": [ "obj-218", 0 ]
                                }
                            },
                            {
                                "patchline": {
                                    "destination": [ "obj-218", 0 ],
                                    "source": [ "obj-221", 0 ]
                                }
                            },
                            {
                                "patchline": {
                                    "destination": [ "obj-46", 0 ],
                                    "source": [ "obj-222", 0 ]
                                }
                            },
                            {
                                "patchline": {
                                    "destination": [ "obj-221", 0 ],
                                    "source": [ "obj-226", 0 ]
                                }
                            },
                            {
                                "patchline": {
                                    "destination": [ "obj-230", 0 ],
                                    "source": [ "obj-226", 1 ]
                                }
                            },
                            {
                                "patchline": {
                                    "destination": [ "obj-222", 0 ],
                                    "source": [ "obj-230", 0 ]
                                }
                            },
                            {
                                "patchline": {
                                    "destination": [ "obj-5", 0 ],
                                    "order": 0,
                                    "source": [ "obj-3", 0 ]
                                }
                            },
                            {
                                "patchline": {
                                    "destination": [ "obj-9", 0 ],
                                    "order": 1,
                                    "source": [ "obj-3", 0 ]
                                }
                            },
                            {
                                "patchline": {
                                    "destination": [ "obj-13", 0 ],
                                    "source": [ "obj-45", 0 ]
                                }
                            },
                            {
                                "patchline": {
                                    "destination": [ "obj-12", 0 ],
                                    "source": [ "obj-5", 1 ]
                                }
                            },
                            {
                                "patchline": {
                                    "destination": [ "obj-8", 0 ],
                                    "source": [ "obj-5", 0 ]
                                }
                            },
                            {
                                "patchline": {
                                    "destination": [ "obj-1", 0 ],
                                    "source": [ "obj-7", 0 ]
                                }
                            },
                            {
                                "patchline": {
                                    "destination": [ "obj-222", 0 ],
                                    "source": [ "obj-9", 0 ]
                                }
                            }
                        ],
                        "patchlinecolor": [ 0.309803921568627, 0.309803921568627, 0.309803921568627, 1.0 ],
                        "bgcolor": [ 0.647058823529412, 0.647058823529412, 0.647058823529412, 1.0 ],
                        "editing_bgcolor": [ 0.647058823529412, 0.647058823529412, 0.647058823529412, 1.0 ]
                    },
                    "patching_rect": [ 49.0, 178.0, 156.0, 22.0 ],
                    "saved_object_attributes": {
                        "editing_bgcolor": [ 0.647058823529412, 0.647058823529412, 0.647058823529412, 1.0 ],
                        "locked_bgcolor": [ 0.647058823529412, 0.647058823529412, 0.647058823529412, 1.0 ],
                        "patchlinecolor": [ 0.309803921568627, 0.309803921568627, 0.309803921568627, 1.0 ]
                    },
                    "text": "p \"read Spike data at index\""
                }
            },
            {
                "box": {
                    "id": "obj-8",
                    "linecount": 2,
                    "maxclass": "comment",
                    "numinlets": 1,
                    "numoutlets": 0,
                    "patching_rect": [ 40.0, 18.0, 274.0, 33.0 ],
                    "text": "TODO onscreenSelectedLabels should be recomputed after sorting labels"
                }
            }
        ],
        "lines": [
            {
                "patchline": {
                    "destination": [ "obj-53", 0 ],
                    "source": [ "obj-3", 0 ]
                }
            },
            {
                "patchline": {
                    "destination": [ "obj-1", 0 ],
                    "source": [ "obj-53", 0 ]
                }
            },
            {
                "patchline": {
                    "destination": [ "obj-3", 0 ],
                    "source": [ "obj-6", 0 ]
                }
            }
        ]
    }
}